<svg width="250" height="250" viewBox="0 0 250 250" fill="none" xmlns="http://www.w3.org/2000/svg">
<circle cx="125" cy="125" r="124.5" stroke="#2446AB"/>
<path d="M42.6758 118.188V121.234H47.4102V118.188H49.9883V120.156H54.2539V116.898H56.8555V129.625H54.2539V126.578H49.9883V128.266H40.0742V118.188H42.6758ZM42.4883 134.055C42.4648 131.477 45.2188 130 49.6836 130C54.1719 130 56.9141 131.477 56.9258 134.055C56.9141 136.586 54.1719 138.062 49.6836 138.062C45.2188 138.062 42.4648 136.586 42.4883 134.055ZM42.6758 126.227H47.4102V123.273H42.6758V126.227ZM45.0664 134.055C45.0547 135.344 46.7422 136.047 49.6836 136.047C52.6484 136.047 54.3242 135.344 54.3242 134.055C54.3242 132.695 52.6484 132.004 49.6836 131.992C46.7422 132.004 45.0547 132.695 45.0664 134.055ZM49.9883 124.469H54.2539V122.219H49.9883V124.469ZM62.4336 130.398C61.4258 130.398 60.5938 129.578 60.6055 128.57C60.5938 127.586 61.4258 126.777 62.4336 126.766C63.4062 126.777 64.2383 127.586 64.2383 128.57C64.2383 129.578 63.4062 130.398 62.4336 130.398ZM73.2617 118.375C76.625 118.363 79.0742 120.484 79.0977 123.484C79.0742 126.496 76.625 128.605 73.2617 128.617C69.9336 128.605 67.4375 126.496 67.4492 123.484C67.4375 120.484 69.9336 118.363 73.2617 118.375ZM66.4883 131.547C70.3086 131.547 75.5938 131.5 80.1758 130.844L80.3867 132.742C75.6406 133.645 70.5547 133.68 66.8164 133.68L66.4883 131.547ZM70.0273 123.484C70.0156 125.254 71.4102 126.344 73.2617 126.344C75.1367 126.344 76.5312 125.254 76.543 123.484C76.5312 121.727 75.1484 120.625 73.2617 120.625C71.4102 120.625 70.0156 121.727 70.0273 123.484ZM81.4414 138.109V116.898H84.043V138.109H81.4414ZM104.902 116.922V132.953H102.277V131.102H98.1289V129.273H102.277V116.922H104.902ZM87.043 126.438C90.9453 126.414 96.207 126.379 100.707 125.805L100.848 127.68C99.1016 127.973 97.2969 128.16 95.5039 128.289V132.367H92.9023V128.43C90.9219 128.512 89.0352 128.523 87.3711 128.523L87.043 126.438ZM88.6602 121.445C88.6602 119.207 90.8164 117.684 93.957 117.695C97.0391 117.684 99.207 119.207 99.2305 121.445C99.207 123.719 97.0391 125.16 93.957 125.172C90.8164 125.16 88.6602 123.719 88.6602 121.445ZM89.8555 137.664V131.406H92.457V135.555H105.395V137.664H89.8555ZM91.1211 121.445C91.1211 122.594 92.2578 123.262 93.957 123.273C95.5742 123.262 96.7344 122.594 96.7461 121.445C96.7344 120.297 95.5742 119.605 93.957 119.617C92.2578 119.605 91.1211 120.297 91.1211 121.445ZM120.629 136.234C117.312 136.211 114.008 134.242 114.02 127.984C114.02 122.184 116.656 118.797 120.816 118.797C124.086 118.797 126.336 120.848 126.723 123.602H123.699C123.395 122.301 122.363 121.434 120.816 121.445C118.355 121.434 116.984 123.613 116.973 127.188H117.137C118.004 125.723 119.633 124.855 121.496 124.867C124.543 124.855 126.898 127.164 126.887 130.375C126.898 133.75 124.379 136.258 120.629 136.234ZM117.301 130.469C117.324 132.238 118.707 133.762 120.629 133.773C122.516 133.762 123.922 132.309 123.934 130.445C123.922 128.641 122.562 127.188 120.676 127.188C118.766 127.188 117.324 128.699 117.301 130.469ZM135.723 136.234C131.633 136.234 129.195 133.07 129.207 127.516C129.195 121.984 131.656 118.797 135.723 118.797C139.789 118.797 142.238 121.984 142.238 127.516C142.238 133.082 139.801 136.234 135.723 136.234ZM132.277 127.516C132.277 131.594 133.59 133.668 135.723 133.68C137.844 133.668 139.168 131.594 139.168 127.516C139.156 123.473 137.844 121.34 135.723 121.328C133.602 121.34 132.289 123.473 132.277 127.516ZM151.051 136.234C146.961 136.234 144.523 133.07 144.535 127.516C144.523 121.984 146.984 118.797 151.051 118.797C155.117 118.797 157.566 121.984 157.566 127.516C157.566 133.082 155.129 136.234 151.051 136.234ZM147.605 127.516C147.605 131.594 148.918 133.668 151.051 133.68C153.172 133.668 154.496 131.594 154.496 127.516C154.484 123.473 153.172 121.34 151.051 121.328C148.93 121.34 147.617 123.473 147.605 127.516ZM165.207 118.445C167.117 118.445 168.699 119.512 169.648 121.375H174.605V116.898H177.184V138.109H174.605V130.094H169.836C168.91 132.203 167.246 133.422 165.207 133.422C162.02 133.422 159.758 130.527 159.77 125.922C159.758 121.352 162.02 118.445 165.207 118.445ZM162.277 125.922C162.266 129.18 163.461 131.066 165.207 131.078C166.965 131.066 168.148 129.18 168.16 125.922C168.148 122.688 166.965 120.789 165.207 120.789C163.461 120.789 162.266 122.688 162.277 125.922ZM170.387 123.508C170.539 124.246 170.621 125.055 170.621 125.922C170.621 126.648 170.562 127.34 170.445 127.984H174.605V123.508H170.387ZM204.043 116.898V138.086H201.535V127.211H199.262V137.102H196.824V117.461H199.262V125.102H201.535V116.898H204.043ZM185.691 131.852C190.203 129.25 192.113 125.898 192.488 121.656H186.676V119.57H195.02C195.02 125.301 193.215 130.223 187.191 133.656L185.691 131.852ZM38.75 147.211C42.1133 147.211 44.5625 149.309 44.5859 152.32C44.5625 154.922 42.7344 156.844 40.0625 157.312V160.406C41.9492 160.312 43.8594 160.148 45.6641 159.891L45.875 161.766C41.1289 162.668 36.043 162.703 32.3047 162.703L31.9766 160.57C33.5938 160.57 35.4805 160.57 37.4609 160.512V157.324C34.8008 156.855 32.9258 154.934 32.9375 152.32C32.9258 149.309 35.4219 147.211 38.75 147.211ZM35.5156 152.32C35.5039 154.066 36.8984 155.203 38.75 155.203C40.6367 155.203 42.0195 154.066 42.0312 152.32C42.0195 150.539 40.625 149.449 38.75 149.461C36.8984 149.449 35.5039 150.539 35.5156 152.32ZM46.9297 167.109V145.898H49.5312V167.109H46.9297ZM76.0156 145.898V167.086H73.3906V145.898H76.0156ZM58.4609 161.25C64.0156 158.613 66.5703 155.027 67.0391 150.211H59.5391V148.148H69.6875C69.6875 154.453 67.2383 159.809 59.8203 163.336L58.4609 161.25ZM84.9453 146.836C87.6875 146.824 89.8438 148.406 90.3711 150.727H94.2031V145.898H96.8047V157.266H94.2031V152.836H90.3945C89.8906 155.215 87.7109 156.82 84.9453 156.82C81.6992 156.82 79.3438 154.734 79.3438 151.805C79.3438 148.91 81.6992 146.824 84.9453 146.836ZM81.8281 151.805C81.8281 153.504 83.1172 154.629 84.9453 154.617C86.7266 154.629 88.0039 153.504 88.0156 151.805C88.0039 150.105 86.7266 149.004 84.9453 149.016C83.1172 149.004 81.8281 150.105 81.8281 151.805ZM82.8359 166.828V158.25H85.4141V160.5H94.2031V158.25H96.8047V166.828H82.8359ZM85.4141 164.719H94.2031V162.516H85.4141V164.719ZM112.367 165.234C108.746 165.234 106.156 163.266 106.086 160.406H109.156C109.238 161.766 110.598 162.668 112.367 162.656C114.23 162.668 115.578 161.637 115.578 160.125C115.578 158.602 114.266 157.512 112.062 157.5H110.539V155.156H112.062C113.867 155.156 115.121 154.148 115.109 152.672C115.121 151.242 114.043 150.281 112.391 150.281C110.797 150.281 109.426 151.172 109.367 152.602H106.438C106.508 149.754 109.098 147.797 112.414 147.797C115.859 147.797 118.086 149.906 118.062 152.508C118.086 154.406 116.82 155.777 114.969 156.164V156.305C117.359 156.621 118.719 158.156 118.695 160.289C118.719 163.16 116.035 165.234 112.367 165.234ZM127.625 165.234C123.535 165.234 121.098 162.07 121.109 156.516C121.098 150.984 123.559 147.797 127.625 147.797C131.691 147.797 134.141 150.984 134.141 156.516C134.141 162.082 131.703 165.234 127.625 165.234ZM124.18 156.516C124.18 160.594 125.492 162.668 127.625 162.68C129.746 162.668 131.07 160.594 131.07 156.516C131.059 152.473 129.746 150.34 127.625 150.328C125.504 150.34 124.191 152.473 124.18 156.516ZM142.953 165.234C138.863 165.234 136.426 162.07 136.438 156.516C136.426 150.984 138.887 147.797 142.953 147.797C147.02 147.797 149.469 150.984 149.469 156.516C149.469 162.082 147.031 165.234 142.953 165.234ZM139.508 156.516C139.508 160.594 140.82 162.668 142.953 162.68C145.074 162.668 146.398 160.594 146.398 156.516C146.387 152.473 145.074 150.34 142.953 150.328C140.832 150.34 139.52 152.473 139.508 156.516ZM158.281 165.234C154.191 165.234 151.754 162.07 151.766 156.516C151.754 150.984 154.215 147.797 158.281 147.797C162.348 147.797 164.797 150.984 164.797 156.516C164.797 162.082 162.359 165.234 158.281 165.234ZM154.836 156.516C154.836 160.594 156.148 162.668 158.281 162.68C160.402 162.668 161.727 160.594 161.727 156.516C161.715 152.473 160.402 150.34 158.281 150.328C156.16 150.34 154.848 152.473 154.836 156.516ZM172.438 147.445C174.348 147.445 175.93 148.512 176.879 150.375H181.836V145.898H184.414V167.109H181.836V159.094H177.066C176.141 161.203 174.477 162.422 172.438 162.422C169.25 162.422 166.988 159.527 167 154.922C166.988 150.352 169.25 147.445 172.438 147.445ZM169.508 154.922C169.496 158.18 170.691 160.066 172.438 160.078C174.195 160.066 175.379 158.18 175.391 154.922C175.379 151.688 174.195 149.789 172.438 149.789C170.691 149.789 169.496 151.688 169.508 154.922ZM177.617 152.508C177.77 153.246 177.852 154.055 177.852 154.922C177.852 155.648 177.793 156.34 177.676 156.984H181.836V152.508H177.617ZM211.273 145.898V167.086H208.766V156.211H206.492V166.102H204.055V146.461H206.492V154.102H208.766V145.898H211.273ZM192.922 160.852C197.434 158.25 199.344 154.898 199.719 150.656H193.906V148.57H202.25C202.25 154.301 200.445 159.223 194.422 162.656L192.922 160.852ZM88.7422 174.898V196.086H86.1406V185.305H81.6641V183.172H86.1406V174.898H88.7422ZM70.8594 190.227C76.3438 187.531 78.6992 183.957 79.1328 179.211H71.8438V177.148H81.7578C81.7344 183.406 79.5195 188.668 72.2188 192.266L70.8594 190.227ZM100.367 177.055V184.953H94.8828V189.078C97.0273 189.055 99.0781 188.973 101.445 188.586L101.633 190.695C98.7734 191.176 96.4531 191.246 93.8281 191.258H92.375V182.844H97.8594V179.164H92.3516V177.055H100.367ZM102.711 195.008V175.297H105.102V183.031H107.492V174.898H109.977V196.086H107.492V185.141H105.102V195.008H102.711ZM130.25 174.898V196.109H127.648V185.281H123.547V183.172H127.648V174.898H130.25ZM112.438 190.062C115.742 188.562 117.617 184.953 117.617 181.625V180.523H113.07V178.438H117.641V175.344H120.242V178.438H124.672V180.523H120.219V181.625C120.207 184.824 122.129 188.246 125.469 189.734L124.062 191.727C121.648 190.695 119.879 188.574 118.941 186.043C118.016 188.727 116.27 190.988 113.844 192.078L112.438 190.062ZM158.281 191.398V193.531H138.922V191.398H147.266V187.273H141.055V176.305H143.656V179.773H153.477V176.305H156.078V187.273H149.844V191.398H158.281ZM143.656 185.164H153.477V181.859H143.656V185.164ZM179 186.781V188.891H174.289V196.086H171.641V188.891H166.953V196.086H164.281V188.891H159.641V186.781H179ZM161.68 180.383C161.668 177.5 164.762 175.66 169.273 175.648C173.785 175.66 176.902 177.5 176.914 180.383C176.902 183.23 173.785 185.023 169.273 185.023C164.762 185.023 161.668 183.23 161.68 180.383ZM164.352 180.383C164.34 182 166.285 182.949 169.273 182.961C172.273 182.949 174.219 182 174.219 180.383C174.219 178.719 172.273 177.758 169.273 177.758C166.285 177.758 164.34 178.719 164.352 180.383Z" fill="white"/>
<path d="M105.914 59.2422V91.2344H101.449V75.2031H95.0859V71.5469H101.449V59.2422H105.914ZM78.6328 82.1641C86.7188 78.1738 90.0762 73.1113 90.7441 66.0977H80.1445V62.582H95.2617C95.2441 72.2324 92.1152 80.1426 80.9531 85.6797L78.6328 82.1641ZM123.105 62.3359V74.6758H115.266V80.4062C118.307 80.3711 121.189 80.248 124.477 79.7383L124.793 83.3242C120.609 84.0273 117.146 84.1328 113.191 84.1328H110.977V71.0898H118.781V65.957H110.941V62.3359H123.105ZM126.27 89.6875V59.7695H130.383V71.3359H133.477V59.2422H137.73V91.2344H133.477V74.957H130.383V89.6875H126.27ZM168.211 59.2422V91.3047H163.711V75.1328H157.945V71.5469H163.711V59.2422H168.211ZM141.035 81.8125C146.186 79.5098 148.682 74.0605 148.699 69.2617V68.0312H142.055V64.4453H148.699V59.9453H153.199V64.4453H159.668V68.0312H153.164V69.2617C153.146 73.8848 155.713 79.0527 160.934 81.3203L158.543 84.7656C154.904 83.2539 152.355 80.1953 150.949 76.5566C149.578 80.4238 147.047 83.6758 143.391 85.2578L141.035 81.8125Z" fill="#2446AB"/>
</svg>
