<svg width="68" height="68" viewBox="0 0 68 68" fill="none" xmlns="http://www.w3.org/2000/svg">
<g filter="url(#filter0_d_341_4232)">
<path d="M58 34C58 47.2548 47.2548 58 34 58C20.7452 58 10 47.2548 10 34C10 20.7452 20.7452 10 34 10C47.2548 10 58 20.7452 58 34Z" fill="#DA9C63"/>
</g>
<path fill-rule="evenodd" clip-rule="evenodd" d="M40.9526 23.6093C40.9225 23.6487 40.8729 23.6774 40.8148 23.6892C40.7568 23.7009 40.6949 23.6947 40.6429 23.6719C40.5909 23.6491 40.553 23.6115 40.5375 23.5676C40.522 23.5236 40.5302 23.4767 40.5603 23.4373L41.1987 22.6C41.2288 22.5606 41.2783 22.5319 41.3364 22.5201C41.3945 22.5084 41.4563 22.5146 41.5083 22.5374C41.5603 22.5603 41.5983 22.5978 41.6138 22.6418C41.6292 22.6858 41.621 22.7326 41.5909 22.772L40.9526 23.6093ZM42.2586 24.7242C42.2328 24.7358 42.2043 24.7433 42.1746 24.7464C42.145 24.7495 42.1148 24.7482 42.0858 24.7424C42.0569 24.7366 42.0297 24.7265 42.006 24.7127C41.9822 24.699 41.9623 24.6817 41.9474 24.6621C41.9325 24.6424 41.9229 24.6207 41.9191 24.5982C41.9154 24.5757 41.9175 24.5528 41.9255 24.531C41.9335 24.5091 41.9472 24.4887 41.9657 24.4709C41.9842 24.453 42.0072 24.4381 42.0333 24.4271L43.1375 23.9442C43.1633 23.9327 43.1918 23.9251 43.2215 23.922C43.2511 23.9189 43.2813 23.9202 43.3103 23.926C43.3392 23.9318 43.3664 23.9419 43.3901 23.9557C43.4139 23.9695 43.4338 23.9867 43.4487 24.0064C43.4637 24.026 43.4733 24.0477 43.477 24.0702C43.4808 24.0927 43.4786 24.1156 43.4706 24.1374C43.4626 24.1593 43.449 24.1797 43.4305 24.1976C43.412 24.2154 43.389 24.2303 43.3628 24.2413L42.2586 24.7242ZM37.1573 23.4371C37.1875 23.4765 37.1957 23.5233 37.1802 23.5673C37.1647 23.6113 37.1268 23.6488 37.0748 23.6717C37.0227 23.6945 36.9609 23.7007 36.9028 23.689C36.8448 23.6772 36.7952 23.6485 36.7651 23.6091L36.1276 22.7727C36.0974 22.7333 36.0891 22.6864 36.1045 22.6423C36.1199 22.5983 36.1578 22.5607 36.2098 22.5378C36.2618 22.5149 36.3237 22.5086 36.3818 22.5202C36.44 22.5319 36.4896 22.5606 36.5199 22.6L37.1573 23.4367V23.4371ZM35.6847 24.4271C35.7359 24.45 35.7731 24.4873 35.7883 24.5309C35.8034 24.5745 35.7953 24.6208 35.7657 24.6599C35.7361 24.699 35.6873 24.7277 35.63 24.7397C35.5726 24.7517 35.5113 24.7462 35.4594 24.7242L34.3549 24.2413C34.3036 24.2184 34.2664 24.1811 34.2513 24.1375C34.2361 24.0939 34.2442 24.0476 34.2738 24.0085C34.3035 23.9694 34.3522 23.9408 34.4096 23.9287C34.4669 23.9167 34.5282 23.9223 34.5802 23.9442L35.6847 24.4271ZM25.2592 39.3872C24.9072 39.3984 24.5454 39.4041 24.1937 39.4206C24.1402 39.4227 24.09 39.4409 24.0541 39.471C24.0179 39.5008 23.9986 39.5401 24.0001 39.5806C24.0526 40.3361 24.1007 41.0917 24.1509 41.8472C24.154 41.8893 24.179 41.9288 24.2204 41.957C24.2617 41.986 24.3164 42.0014 24.3727 41.9999C24.7264 41.9888 25.0855 41.9821 25.4381 41.9666C25.4917 41.9644 25.5418 41.9462 25.5778 41.9161C25.6139 41.8863 25.6333 41.847 25.6318 41.8066C25.5784 41.051 25.5311 40.2955 25.481 39.5399C25.4772 39.4977 25.452 39.4583 25.4106 39.4298C25.3693 39.4014 25.315 39.3862 25.2592 39.3875V39.3872ZM26.0695 41.4761C31.5095 42.2828 34.366 41.3677 38.667 39.9892C39.3356 39.775 40.0379 39.5499 40.7223 39.3386C40.7347 39.3343 40.7475 39.3309 40.7607 39.3284C40.8955 39.3043 41.0167 39.2484 41.1069 39.1688C41.1828 39.1015 41.2225 39.015 41.2181 38.9266C41.2102 38.8376 41.159 38.7539 41.0743 38.6919C40.9744 38.6182 40.8468 38.5698 40.7091 38.5532C40.6576 38.5474 40.6103 38.5283 40.5753 38.499C40.5313 38.4624 40.2018 38.6661 39.3229 38.8901C38.3867 39.1278 36.984 39.4964 35.1147 39.9961C35.0708 40.0101 35.026 40.0221 34.9803 40.0321C34.9613 40.037 34.9416 40.0399 34.9216 40.0408C34.7777 40.0522 34.3108 40.056 33.5208 40.0521C32.7065 40.0483 31.5446 40.0367 30.0351 40.0175C29.9751 40.0168 29.918 39.998 29.8762 39.9654C29.8345 39.9328 29.8115 39.8889 29.8125 39.8435C29.8134 39.798 29.8381 39.7547 29.8812 39.7231C29.9243 39.6915 29.9822 39.6741 30.0422 39.6748C31.5537 39.6941 32.7139 39.7055 33.5226 39.7092C34.2761 39.7128 34.7207 39.71 34.8562 39.7008L34.9574 39.6737C35.0439 39.6447 35.1211 39.6019 35.1836 39.5481C35.2598 39.4838 35.3042 39.4015 35.3095 39.3152C35.3118 39.2301 35.2746 39.1471 35.2044 39.0806C35.1273 39.0075 35.0242 38.9526 34.9073 38.9224C33.4054 38.8187 32.2154 38.7489 31.3371 38.713C30.7942 38.6764 30.2482 38.6738 29.7048 38.705C29.6971 38.7061 29.6894 38.707 29.6816 38.7075C29.2582 38.7765 28.8453 38.8783 28.4495 39.0115C27.8203 39.1987 26.9881 39.4677 25.9527 39.8184C25.9923 40.3688 26.0389 40.9248 26.068 41.4748L26.0695 41.4761ZM40.3767 34.4666C40.1803 34.3119 39.9447 34.1887 39.684 34.1046C39.4233 34.0205 39.1428 33.9772 38.8594 33.9772C38.5761 33.9772 38.2956 34.0205 38.0349 34.1046C37.7742 34.1887 37.5385 34.3119 37.3422 34.4666L37.3697 34.4888C37.7649 34.7881 38.3007 34.9562 38.8594 34.9562C39.4182 34.9562 39.954 34.7881 40.3491 34.4888L40.3767 34.4666ZM39.2311 32.6888C39.136 32.6167 39.0109 32.5719 38.877 32.5619C38.7431 32.5518 38.6087 32.5773 38.4969 32.6339C38.385 32.6905 38.3025 32.7748 38.2634 32.8723C38.2244 32.9698 38.2312 33.0746 38.2827 33.1687C38.3341 33.2629 38.4272 33.3406 38.5458 33.3886C38.6645 33.4367 38.8015 33.452 38.9334 33.4321C39.0654 33.4122 39.1841 33.3582 39.2694 33.2794C39.3547 33.2006 39.4013 33.1019 39.4013 32.9999C39.4013 32.9422 39.3863 32.8849 39.3571 32.8315C39.3279 32.7782 39.2851 32.7297 39.2311 32.6888ZM38.8204 32.2157C38.5923 32.2158 38.3707 32.2728 38.1898 32.378C38.0089 32.4832 37.8789 32.6307 37.8199 32.7976C37.761 32.9645 37.7764 33.1415 37.8638 33.301C37.9512 33.4606 38.1056 33.5939 38.3032 33.6802C37.8348 33.7593 37.405 33.9363 37.0629 34.1913C36.8675 33.9494 36.7608 33.6724 36.7536 33.3889C36.7465 33.1054 36.8392 32.8256 37.0222 32.5782C37.2052 32.3309 37.472 32.1249 37.795 31.9816C38.1179 31.8382 38.4855 31.7627 38.8599 31.7627C39.2342 31.7627 39.6018 31.8382 39.9248 31.9816C40.2478 32.1249 40.5145 32.3309 40.6975 32.5782C40.8806 32.8256 40.9733 33.1054 40.9661 33.3889C40.959 33.6724 40.8522 33.9494 40.6569 34.1913C40.3004 33.9252 39.8489 33.744 39.3581 33.6699C39.5512 33.581 39.7006 33.4467 39.7835 33.2875C39.8665 33.1282 39.8784 32.9528 39.8175 32.788C39.7565 32.6231 39.6261 32.4779 39.4461 32.3744C39.2661 32.271 39.0464 32.2149 38.8204 32.2148V32.2157ZM26.6993 31.2773H24.0004V37.2375H26.6993V31.2773ZM40.2878 29.8968H37.4322V30.174H40.2887V29.8971L40.2878 29.8968ZM38.0671 30.5191V30.7102H39.6512V30.5191H38.0671ZM40.4401 26.4022C40.457 26.3883 40.4768 26.3767 40.4987 26.3678C40.5376 26.3488 40.5695 26.3226 40.5913 26.2917C40.6131 26.2608 40.6242 26.2262 40.6234 26.1911C40.6227 26.1561 40.6101 26.1218 40.587 26.0915C40.5638 26.0611 40.5308 26.0357 40.4911 26.0178L40.4832 26.0133L40.4805 26.012C40.3816 25.9637 40.2675 25.9362 40.1499 25.9325C40.0323 25.9287 39.9155 25.9487 39.8115 25.9905C39.7076 26.0323 39.6202 26.0943 39.5584 26.1702C39.4966 26.2461 39.4626 26.3331 39.4599 26.4222C39.4599 26.4269 39.4599 26.4315 39.4599 26.4362V26.6493C39.7312 26.5945 39.9507 26.5454 40.1185 26.502C40.2309 26.4793 40.3388 26.4453 40.4392 26.4009L40.4401 26.4022ZM38.258 27.006V29.5237C38.1357 29.4933 38.026 29.4393 37.9397 29.3669C37.8534 29.2945 37.7936 29.2063 37.7661 29.1111C37.5522 28.3411 37.1878 27.5996 36.685 26.9111C36.5872 26.7748 36.5123 26.6299 36.4621 26.4795C36.3698 26.2031 36.3619 25.9144 36.4392 25.6354C36.5165 25.3564 36.6769 25.0944 36.9081 24.8695C37.1393 24.6445 37.4352 24.4625 37.7734 24.3373C38.1115 24.2121 38.4829 24.147 38.8593 24.147C39.2356 24.147 39.6071 24.2121 39.9452 24.3373C40.2833 24.4625 40.5793 24.6445 40.8105 24.8695C41.0417 25.0944 41.202 25.3564 41.2793 25.6354C41.3566 25.9144 41.3488 26.2031 41.2565 26.4795C41.2062 26.6299 41.1313 26.7748 41.0335 26.9111C40.5307 27.5996 40.1662 28.3411 39.9522 29.1111C39.9246 29.2062 39.8648 29.2942 39.7785 29.3665C39.6923 29.4388 39.5827 29.4927 39.4605 29.5231V27.0049C39.795 26.9386 40.063 26.8794 40.2646 26.8271C40.4373 26.7905 40.6005 26.7319 40.7472 26.6538C40.8501 26.6031 40.9343 26.5335 40.992 26.4515C41.0497 26.3695 41.0789 26.2777 41.077 26.1848C41.075 26.0919 41.042 26.0009 40.9809 25.9203C40.9199 25.8397 40.8328 25.7721 40.7278 25.724C40.5607 25.6423 40.3678 25.596 40.1691 25.5898C39.9703 25.5836 39.773 25.6178 39.5977 25.6889C39.4223 25.7599 39.2752 25.8652 39.1716 25.9939C39.0681 26.1225 39.0118 26.2698 39.0087 26.4204C39.0087 26.4258 39.0087 26.4311 39.0087 26.4364V29.5497H38.7154V26.4364C38.7154 26.4311 38.7154 26.4258 38.7154 26.4204C38.7123 26.2698 38.6561 26.1225 38.5525 25.9939C38.449 25.8652 38.3019 25.7599 38.1265 25.6889C37.9511 25.6178 37.7538 25.5836 37.5551 25.5898C37.3563 25.596 37.1634 25.6423 36.9963 25.724C36.8914 25.7721 36.8043 25.8397 36.7432 25.9203C36.6821 26.0009 36.6491 26.0919 36.6472 26.1848C36.6452 26.2777 36.6745 26.3695 36.7321 26.4515C36.7898 26.5335 36.874 26.6031 36.9769 26.6538C37.1231 26.732 37.2858 26.7907 37.458 26.8275C37.6597 26.8795 37.9277 26.9388 38.2621 27.0053L38.258 27.006ZM37.2207 26.3678C37.2426 26.3767 37.2625 26.3883 37.2794 26.4022C37.3798 26.4467 37.4876 26.4807 37.6 26.5033C37.7678 26.5466 37.9874 26.5957 38.2586 26.6506V26.4375C38.2586 26.4328 38.2586 26.4281 38.2586 26.4235C38.2562 26.3343 38.2224 26.2472 38.1606 26.1712C38.0989 26.0952 38.0115 26.0331 37.9074 25.9913C37.8034 25.9494 37.6865 25.9294 37.5688 25.9332C37.4511 25.9371 37.3369 25.9646 37.238 26.0131L37.2354 26.0144L37.2269 26.0166C37.1872 26.0346 37.1542 26.06 37.131 26.0903C37.1079 26.1207 37.0953 26.155 37.0945 26.19C37.0938 26.2251 37.1048 26.2597 37.1267 26.2906C37.1485 26.3215 37.1803 26.3477 37.2192 26.3666L37.2207 26.3678ZM39.8736 31.0328C39.9422 31.0114 40.001 30.9749 40.0423 30.9282C40.0837 30.8814 40.1058 30.8265 40.1059 30.7702V30.7191C40.2121 30.7478 40.3159 30.78 40.4172 30.8157C40.6097 30.8836 40.7941 30.9639 40.9684 31.0557C41.0121 31.0787 41.065 31.0893 41.118 31.0857C41.171 31.0822 41.2206 31.0646 41.2582 31.0362L41.7335 30.6762L42.4026 31.1831L41.9274 31.5431C41.8886 31.5724 41.8651 31.6114 41.8613 31.6528C41.8575 31.6942 41.8736 31.7353 41.9066 31.7684C42.2058 32.096 42.409 32.4682 42.5027 32.8602C42.512 32.8997 42.5395 32.9356 42.5802 32.9614C42.6209 32.9872 42.6723 33.0013 42.7253 33.0013H43.3968V33.7177H42.7256C42.6691 33.7177 42.6147 33.7336 42.5728 33.7624C42.531 33.7911 42.5049 33.8307 42.4995 33.8733C42.4037 34.2622 42.1999 34.6314 41.9016 34.9562C41.8712 34.9893 41.8571 35.0294 41.8618 35.0696C41.8666 35.1098 41.8898 35.1474 41.9274 35.1759L42.4026 35.5359L41.7335 36.0444L41.2582 35.6844C41.2195 35.655 41.1681 35.6372 41.1134 35.6343C41.0587 35.6314 41.0045 35.6436 40.9608 35.6686C40.5284 35.8954 40.037 36.0494 39.5195 36.1204C39.4673 36.1275 39.42 36.1482 39.3859 36.1791C39.3519 36.2099 39.3332 36.2488 39.3332 36.289V36.7977H38.3862V36.2888C38.3863 36.246 38.3653 36.2048 38.3273 36.1731C38.2893 36.1414 38.2371 36.1216 38.1809 36.1175C37.6674 36.0449 37.1801 35.8906 36.7513 35.6646C36.7076 35.6416 36.6546 35.6309 36.6016 35.6345C36.5485 35.6381 36.4989 35.6556 36.4612 35.6842L36.3004 35.8059L36.2975 35.8082L35.9851 36.0444L35.3159 35.5375L35.7912 35.1775C35.8299 35.1482 35.8534 35.1092 35.8572 35.0678C35.8611 35.0264 35.845 34.9853 35.812 34.9522C35.5126 34.6246 35.3093 34.2524 35.2156 33.8604C35.2062 33.8208 35.1788 33.785 35.1381 33.7592C35.0974 33.7334 35.046 33.7193 34.9929 33.7193H34.3226V32.9999H34.9941C35.0506 33 35.1051 32.9841 35.1469 32.9553C35.1887 32.9265 35.2149 32.887 35.2203 32.8444C35.316 32.4554 35.5198 32.0863 35.8181 31.7615C35.8485 31.7284 35.8625 31.6883 35.8578 31.6482C35.8531 31.6081 35.8299 31.5705 35.7923 31.542L35.3171 31.182L35.9862 30.6751L36.2963 30.9111L36.2998 30.9137L36.4603 31.0353C36.4991 31.0646 36.5505 31.0824 36.6052 31.0852C36.6599 31.0881 36.7141 31.0759 36.7578 31.0508C36.9299 30.9606 37.1119 30.8817 37.3017 30.8148C37.403 30.7793 37.5067 30.7471 37.6129 30.7182V30.7693C37.6131 30.8256 37.6352 30.8806 37.6765 30.9273C37.7179 30.9741 37.7766 31.0105 37.8453 31.032V31.3044C37.8454 31.3487 37.8591 31.3924 37.8855 31.432C37.9118 31.4716 37.95 31.506 37.9969 31.5324C37.4294 31.6863 36.9519 31.987 36.6485 32.3816C36.345 32.7761 36.2352 33.2391 36.3383 33.689C36.4414 34.1389 36.7509 34.5467 37.2121 34.8407C37.6734 35.1346 38.2568 35.2958 38.8596 35.2958C39.4623 35.2958 40.0458 35.1346 40.507 34.8407C40.9683 34.5467 41.2777 34.1389 41.3808 33.689C41.484 33.2391 41.3741 32.7761 41.0707 32.3816C40.7673 31.987 40.2897 31.6863 39.7222 31.5324C39.7369 31.5241 39.7509 31.5149 39.7639 31.5051C39.8341 31.4521 39.8736 31.3801 39.8739 31.3051V31.032L39.8736 31.0328ZM38.2994 31.0551V31.2462H39.4195V31.0551H38.2994ZM31.4641 30.4328H28.7652V37.2375H31.4641V30.4304V30.4328ZM36.2303 30.3795V29.3195H33.5314V37.2375H36.2303V36.341C36.1571 36.388 36.0632 36.4124 35.9674 36.4092C35.8715 36.4061 35.7807 36.3757 35.7131 36.3242L34.9451 35.7424C34.9391 35.7378 34.9334 35.733 34.9281 35.7279C34.8635 35.6727 34.8293 35.6008 34.8324 35.527C34.8356 35.4533 34.8759 35.3832 34.9451 35.3313L35.3388 35.033C35.0908 34.7345 34.9114 34.4063 34.8081 34.0624H34.2507C34.2002 34.0624 34.1503 34.0549 34.1037 34.0402C34.057 34.0256 34.0147 34.0041 33.9791 33.9771C33.9727 33.9723 33.9667 33.9672 33.9612 33.9619C33.9 33.9093 33.8662 33.8416 33.8661 33.7715V32.9493C33.8663 32.8721 33.9068 32.7981 33.9789 32.7436C34.0509 32.689 34.1485 32.6583 34.2504 32.6582H34.8078C34.9111 32.3142 35.0905 31.986 35.3385 31.6875L34.9448 31.3893C34.9388 31.3847 34.9331 31.3799 34.9278 31.3748C34.8632 31.3196 34.829 31.2477 34.8321 31.1739C34.8353 31.1002 34.8756 31.0301 34.9448 30.9782L35.7128 30.3964C35.7808 30.3451 35.8715 30.3149 35.9674 30.3116C36.0632 30.3084 36.1572 30.3323 36.2309 30.3788L36.2303 30.3795ZM42.6059 26.3131C42.5457 26.3131 42.488 26.295 42.4454 26.2627C42.4028 26.2305 42.3789 26.1867 42.3789 26.1411C42.3789 26.0955 42.4028 26.0517 42.4454 26.0195C42.488 25.9872 42.5457 25.9691 42.6059 25.9691H43.7729C43.8332 25.9691 43.8909 25.9872 43.9335 26.0195C43.9761 26.0517 44 26.0955 44 26.1411C44 26.1867 43.9761 26.2305 43.9335 26.2627C43.8909 26.295 43.8332 26.3131 43.7729 26.3131H42.6059ZM34.2041 26.3131C34.1439 26.3131 34.0861 26.295 34.0435 26.2627C34.0009 26.2305 33.977 26.1867 33.977 26.1411C33.977 26.0955 34.0009 26.0517 34.0435 26.0195C34.0861 25.9872 34.1439 25.9691 34.2041 25.9691H35.3711C35.4313 25.9691 35.489 25.9872 35.5316 26.0195C35.5742 26.0517 35.5981 26.0955 35.5981 26.1411C35.5981 26.1867 35.5742 26.2305 35.5316 26.2627C35.489 26.295 35.4313 26.3131 35.3711 26.3131H34.2041ZM39.0865 23.138C39.0865 23.1836 39.0626 23.2274 39.02 23.2596C38.9774 23.2919 38.9196 23.31 38.8594 23.31C38.7992 23.31 38.7415 23.2919 38.6989 23.2596C38.6563 23.2274 38.6324 23.1836 38.6324 23.138V22.172C38.6324 22.1264 38.6563 22.0826 38.6989 22.0504C38.7415 22.0181 38.7992 22 38.8594 22C38.9196 22 38.9774 22.0181 39.02 22.0504C39.0626 22.0826 39.0865 22.1264 39.0865 22.172V23.138Z" fill="white"/>
<defs>
<filter id="filter0_d_341_4232" x="0" y="0" width="68" height="68" filterUnits="userSpaceOnUse" color-interpolation-filters="sRGB">
<feFlood flood-opacity="0" result="BackgroundImageFix"/>
<feColorMatrix in="SourceAlpha" type="matrix" values="0 0 0 0 0 0 0 0 0 0 0 0 0 0 0 0 0 0 127 0" result="hardAlpha"/>
<feOffset/>
<feGaussianBlur stdDeviation="5"/>
<feComposite in2="hardAlpha" operator="out"/>
<feColorMatrix type="matrix" values="0 0 0 0 0 0 0 0 0 0 0 0 0 0 0 0 0 0 0.25 0"/>
<feBlend mode="normal" in2="BackgroundImageFix" result="effect1_dropShadow_341_4232"/>
<feBlend mode="normal" in="SourceGraphic" in2="effect1_dropShadow_341_4232" result="shape"/>
</filter>
</defs>
</svg>
