<svg width="68" height="68" viewBox="0 0 68 68" fill="none" xmlns="http://www.w3.org/2000/svg">
<g filter="url(#filter0_d_249_4629)">
<path d="M58 34C58 47.2548 47.2548 58 34 58C20.7452 58 10 47.2548 10 34C10 20.7452 20.7452 10 34 10C47.2548 10 58 20.7452 58 34Z" fill="#8864A4"/>
</g>
<path d="M21.6228 30.4323V30.3023C21.6228 30.0098 21.5903 29.6848 21.5299 29.318C21.5531 29.2576 21.581 29.2251 21.6228 29.2251C21.5624 28.9512 21.5299 28.7747 21.5299 28.6865V27.6836C21.6274 27.1032 21.7714 26.8107 21.9571 26.8107C21.9571 26.7967 21.9803 26.7921 22.0314 26.7921H24.3715C24.4969 26.7549 24.6083 26.7364 24.7058 26.7364C24.9055 26.8246 25.003 26.9917 25.003 27.2378V27.275C24.9426 27.5118 24.8637 27.6279 24.7616 27.6279C24.7569 27.665 24.6641 27.7021 24.483 27.7393C24.2972 27.73 24.2044 27.7161 24.2044 27.7021L24.1301 27.7207C23.09 27.7439 22.5189 27.7579 22.4214 27.7579V28.2965C22.4214 28.4126 22.4446 28.7515 22.4957 29.318H24.4644C24.7244 29.4015 24.8544 29.5919 24.8544 29.8937V29.9494C24.7709 30.1537 24.6176 30.3209 24.3901 30.4509C23.3175 30.3395 22.7186 30.2837 22.5886 30.2837V30.3023L22.5143 32.6053C22.2914 32.6796 22.1103 32.7168 21.9757 32.7168H21.8457C21.776 32.7168 21.7017 32.6193 21.6228 32.4196V31.491C21.6228 31.3702 21.5996 31.217 21.5485 31.0267C21.5996 30.7109 21.6228 30.5113 21.6228 30.4323ZM28.2625 32.7214H27.9236C26.4145 32.7214 25.6577 31.9367 25.6577 30.3673C25.6577 29.1183 26.4981 28.3893 28.1789 28.185C29.6322 28.185 30.3612 29.2483 30.3612 31.3749V32.1317C30.3612 32.805 30.2498 33.1393 30.0269 33.1393H29.9433C29.7901 33.1393 29.674 32.8607 29.6044 32.2989V32.0482H29.5208C29.0518 32.4985 28.634 32.7214 28.2625 32.7214ZM27.97 31.7278V31.8021C28.8615 31.4492 29.3072 30.9802 29.3072 30.3905C29.3072 29.6337 29.0193 29.2158 28.439 29.1322H28.0489C27.1064 29.304 26.6328 29.6709 26.6328 30.2327C26.6328 31.231 27.0785 31.7278 27.97 31.7278ZM31.6009 28.849L31.8935 28.7051H32.0885C32.6085 28.7051 32.8685 29.7823 32.8685 31.9414V32.0899C32.8685 32.1642 32.7385 32.2617 32.4785 32.3825C32.1303 32.3825 31.9028 32.285 31.796 32.0899C31.6659 30.4648 31.6009 29.383 31.6009 28.849ZM31.5034 27.665V27.3121C31.5684 27.1403 31.7635 27.0521 32.0885 27.0521H32.186C32.446 27.145 32.576 27.3493 32.576 27.665C32.576 27.7486 32.4785 27.8368 32.2835 27.925H31.796C31.7031 27.925 31.6056 27.8368 31.5034 27.665ZM33.9411 27.1264L34.2058 26.9964H34.4658C34.9115 27.3028 35.3201 28.9697 35.6916 31.9924C35.5755 32.2525 35.4594 32.3825 35.3433 32.3825H34.9069C34.5308 32.3825 34.2708 31.0824 34.1175 28.4868C34.0572 28.4868 34.0015 28.0318 33.9411 27.1264ZM38.1989 31.5049V31.6024C38.1989 31.7463 38.3568 31.8439 38.6725 31.8856C39.0579 31.8856 39.6893 31.6953 40.5715 31.3192H40.669C40.7573 31.3192 40.8548 31.412 40.9523 31.6024V31.6953C40.7758 32.4567 40.0794 32.8375 38.8629 32.8375H38.575C37.4374 32.5775 36.8663 31.946 36.8663 30.9384V30.3673C37.0752 29.2251 37.5488 28.654 38.2917 28.654H38.4821C39.7497 28.7608 40.3812 29.174 40.3812 29.8937C39.7311 30.9663 39.0022 31.5049 38.1989 31.5049ZM38.4821 29.6058C38.041 29.7591 37.8181 30.1398 37.8181 30.7481V30.8409C38.8954 30.567 39.434 30.2512 39.434 29.8937C38.9325 29.7034 38.6168 29.6058 38.4821 29.6058ZM43.4549 32.74H43.1903C42.8699 32.74 42.5449 31.4213 42.2199 28.7794C42.3081 28.5426 42.3963 28.4265 42.4845 28.4265H42.661C42.9303 28.4265 43.1346 28.9837 43.2785 30.098H43.3667C43.7242 29.2205 44.3139 28.7794 45.1265 28.7794C45.3633 28.8676 45.4794 28.9512 45.4794 29.0394V29.3923C45.4794 29.5362 45.1543 29.7126 44.5089 29.9216C44.1561 30.3116 43.8914 31.1938 43.715 32.5635L43.4549 32.74ZM26.0988 41.881V40.4834C26.0988 39.9959 26.122 39.2483 26.1731 38.2454H25.5277C24.5201 38.1247 24.0187 37.9622 24.0187 37.7532V37.4746C24.0976 37.2889 24.2647 37.196 24.5201 37.196H25.9549C26.2102 37.196 26.4238 37.1728 26.6049 37.1264C26.8556 37.1728 27.0924 37.196 27.3199 37.196H28.6154C29.1401 37.196 29.4047 37.405 29.4047 37.8229C29.2376 38.1525 29.0472 38.315 28.829 38.315C28.3414 38.2686 27.9561 38.2454 27.6821 38.2454H27.176V38.8722C27.176 39.3551 27.1992 39.7266 27.2503 39.9912C27.1992 40.2837 27.176 40.6134 27.176 40.9709C27.176 41.087 27.1992 41.4353 27.2503 42.0249C27.0831 42.35 26.8928 42.5125 26.6745 42.5125C26.3681 42.5125 26.1777 42.3035 26.0988 41.881ZM32.6271 42.7214H32.2881C30.7791 42.7214 30.0223 41.9367 30.0223 40.3673C30.0223 39.1183 30.8627 38.3893 32.5435 38.185C33.9968 38.185 34.7258 39.2483 34.7258 41.3749V42.1317C34.7258 42.805 34.6144 43.1393 34.3915 43.1393H34.3079C34.1547 43.1393 34.0386 42.8607 33.969 42.2989V42.0482H33.8854C33.4164 42.4985 32.9985 42.7214 32.6271 42.7214ZM32.3346 41.7278V41.8021C33.2261 41.4492 33.6718 40.9802 33.6718 40.3905C33.6718 39.6337 33.3839 39.2158 32.8035 39.1322H32.4135C31.4709 39.304 30.9973 39.6709 30.9973 40.2327C30.9973 41.231 31.4431 41.7278 32.3346 41.7278ZM35.9005 37.1264L36.1652 36.9964H36.4252C36.8709 37.3028 37.2795 38.9697 37.651 41.9924C37.5349 42.2525 37.4188 42.3825 37.3028 42.3825H36.8663C36.4902 42.3825 36.2302 41.0824 36.077 38.4868C36.0166 38.4868 35.9609 38.0318 35.9005 37.1264ZM39.7776 37.9715V39.3458H39.8704L42.0945 38.264C42.3406 38.3336 42.466 38.4079 42.466 38.4776V38.6958C42.466 38.7979 42.0666 39.109 41.2634 39.6337V39.708C42.0713 40.7388 42.5356 41.4863 42.6517 41.9506V42.0203C42.6517 42.0899 42.5588 42.1642 42.3731 42.2385H42.0945C41.9088 42.2385 41.4166 41.491 40.6133 39.9959H40.4276C39.9958 40.1955 39.7776 40.3441 39.7776 40.4323C39.7776 40.5809 39.8101 41.0359 39.8704 41.8021C39.8286 42.1874 39.5825 42.3825 39.1322 42.3825C38.8861 42.2199 38.7607 41.7881 38.7607 41.0824C38.8861 38.8072 38.9464 37.3864 38.9464 36.8153L39.225 36.6714H39.3179C39.564 36.6714 39.7172 37.1032 39.7776 37.9715Z" fill="white"/>
<defs>
<filter id="filter0_d_249_4629" x="0" y="0" width="68" height="68" filterUnits="userSpaceOnUse" color-interpolation-filters="sRGB">
<feFlood flood-opacity="0" result="BackgroundImageFix"/>
<feColorMatrix in="SourceAlpha" type="matrix" values="0 0 0 0 0 0 0 0 0 0 0 0 0 0 0 0 0 0 127 0" result="hardAlpha"/>
<feOffset/>
<feGaussianBlur stdDeviation="5"/>
<feComposite in2="hardAlpha" operator="out"/>
<feColorMatrix type="matrix" values="0 0 0 0 0 0 0 0 0 0 0 0 0 0 0 0 0 0 0.25 0"/>
<feBlend mode="normal" in2="BackgroundImageFix" result="effect1_dropShadow_249_4629"/>
<feBlend mode="normal" in="SourceGraphic" in2="effect1_dropShadow_249_4629" result="shape"/>
</filter>
</defs>
</svg>
