<svg width="68" height="68" viewBox="0 0 68 68" fill="none" xmlns="http://www.w3.org/2000/svg">
<g filter="url(#filter0_d_249_4670)">
<path d="M58 34C58 47.2548 47.2548 58 34 58C20.7452 58 10 47.2548 10 34C10 20.7452 20.7452 10 34 10C47.2548 10 58 20.7452 58 34Z" fill="#3366FF"/>
</g>
<path d="M39.2868 26.155H28.7131C27.4341 26.155 26.3682 27.2209 26.3682 28.5V39.031C26.3682 40.3101 27.4341 41.376 28.7131 41.376H39.2442C40.5232 41.376 41.5891 40.3101 41.5891 39.031V28.5C41.6318 27.2209 40.5659 26.155 39.2868 26.155Z" fill="white"/>
<path d="M29.1824 25.8992H29.3103C29.5661 25.8992 29.7793 25.6861 29.7793 25.4302V23.469C29.7793 23.2132 29.5661 23 29.3103 23H29.1824C28.9266 23 28.7134 23.2132 28.7134 23.469V25.4729C28.756 25.6861 28.9692 25.8992 29.1824 25.8992Z" fill="white"/>
<path d="M31.1008 25.8992H31.2287C31.4846 25.8992 31.6977 25.6861 31.6977 25.4302V23.469C31.6977 23.2132 31.4846 23 31.2287 23H31.1008C30.845 23 30.6318 23.2132 30.6318 23.469V25.4729C30.6318 25.6861 30.845 25.8992 31.1008 25.8992Z" fill="white"/>
<path d="M32.9768 25.8992H33.1047C33.3605 25.8992 33.5737 25.6861 33.5737 25.4302V23.469C33.5737 23.2132 33.3605 23 33.1047 23H32.9768C32.721 23 32.5078 23.2132 32.5078 23.469V25.4729C32.5504 25.6861 32.7636 25.8992 32.9768 25.8992Z" fill="white"/>
<path d="M34.8953 25.8992H35.0232C35.279 25.8992 35.4922 25.6861 35.4922 25.4302V23.469C35.4922 23.2132 35.279 23 35.0232 23H34.8953C34.6394 23 34.4263 23.2132 34.4263 23.469V25.4729C34.4263 25.6861 34.6394 25.8992 34.8953 25.8992Z" fill="white"/>
<path d="M36.7712 25.8992H36.8991C37.155 25.8992 37.3681 25.6861 37.3681 25.4302V23.469C37.3681 23.2132 37.155 23 36.8991 23H36.7712C36.5154 23 36.3022 23.2132 36.3022 23.469V25.4729C36.3449 25.6861 36.5154 25.8992 36.7712 25.8992Z" fill="white"/>
<path d="M38.6902 25.8992H38.8181C39.0739 25.8992 39.2871 25.6861 39.2871 25.4302V23.469C39.2871 23.2132 39.0739 23 38.8181 23H38.6902C38.4344 23 38.2212 23.2132 38.2212 23.469V25.4729C38.2212 25.6861 38.4344 25.8992 38.6902 25.8992Z" fill="white"/>
<path d="M29.3103 41.6746H29.1824C28.9266 41.6746 28.7134 41.8877 28.7134 42.1436V44.1474C28.7134 44.4032 28.9266 44.6164 29.1824 44.6164H29.3103C29.5661 44.6164 29.7793 44.4032 29.7793 44.1474V42.1436C29.7793 41.8877 29.5661 41.6746 29.3103 41.6746Z" fill="white"/>
<path d="M31.2287 41.6746H31.1008C30.845 41.6746 30.6318 41.8877 30.6318 42.1436V44.1474C30.6318 44.4032 30.845 44.6164 31.1008 44.6164H31.2287C31.4846 44.6164 31.6977 44.4032 31.6977 44.1474V42.1436C31.6551 41.8877 31.4846 41.6746 31.2287 41.6746Z" fill="white"/>
<path d="M33.1047 41.6746H32.9768C32.721 41.6746 32.5078 41.8877 32.5078 42.1436V44.1474C32.5078 44.4032 32.721 44.6164 32.9768 44.6164H33.1047C33.3605 44.6164 33.5737 44.4032 33.5737 44.1474V42.1436C33.5737 41.8877 33.3605 41.6746 33.1047 41.6746Z" fill="white"/>
<path d="M35.0232 41.6746H34.8953C34.6394 41.6746 34.4263 41.8877 34.4263 42.1436V44.1474C34.4263 44.4032 34.6394 44.6164 34.8953 44.6164H35.0232C35.279 44.6164 35.4922 44.4032 35.4922 44.1474V42.1436C35.4495 41.8877 35.2363 41.6746 35.0232 41.6746Z" fill="white"/>
<path d="M36.8991 41.6746H36.7712C36.5154 41.6746 36.3022 41.8877 36.3022 42.1436V44.1474C36.3022 44.4032 36.5154 44.6164 36.7712 44.6164H36.8991C37.155 44.6164 37.3681 44.4032 37.3681 44.1474V42.1436C37.3681 41.8877 37.155 41.6746 36.8991 41.6746Z" fill="white"/>
<path d="M38.8181 41.6746H38.6902C38.4344 41.6746 38.2212 41.8877 38.2212 42.1436V44.1474C38.2212 44.4032 38.4344 44.6164 38.6902 44.6164H38.8181C39.0739 44.6164 39.2871 44.4032 39.2871 44.1474V42.1436C39.2444 41.8877 39.0313 41.6746 38.8181 41.6746Z" fill="white"/>
<path d="M25.4729 38.0078H23.469C23.2132 38.0078 23 38.221 23 38.4768V38.6047C23 38.8605 23.2132 39.0737 23.469 39.0737H25.4729C25.7287 39.0737 25.9419 38.8605 25.9419 38.6047V38.4768C25.9419 38.221 25.7287 38.0078 25.4729 38.0078Z" fill="white"/>
<path d="M25.4729 36.1318H23.469C23.2132 36.1318 23 36.345 23 36.6008V36.7287C23 36.9846 23.2132 37.1977 23.469 37.1977H25.4729C25.7287 37.1977 25.9419 36.9846 25.9419 36.7287V36.6008C25.9419 36.3024 25.7287 36.1318 25.4729 36.1318Z" fill="white"/>
<path d="M25.4729 34.2131H23.469C23.2132 34.2131 23 34.4263 23 34.6821V34.81C23 35.0659 23.2132 35.279 23.469 35.279H25.4729C25.7287 35.279 25.9419 35.0659 25.9419 34.81V34.6821C25.9419 34.4263 25.7287 34.2131 25.4729 34.2131Z" fill="white"/>
<path d="M25.4729 32.3372H23.469C23.2132 32.3372 23 32.5503 23 32.8062V32.9341C23 33.1899 23.2132 33.4031 23.469 33.4031H25.4729C25.7287 33.4031 25.9419 33.1899 25.9419 32.9341V32.8062C25.9419 32.5503 25.7287 32.3372 25.4729 32.3372Z" fill="white"/>
<path d="M25.4729 30.4185H23.469C23.2132 30.4185 23 30.6316 23 30.8875V31.0154C23 31.2712 23.2132 31.4844 23.469 31.4844H25.4729C25.7287 31.4844 25.9419 31.2712 25.9419 31.0154V30.8875C25.9419 30.6316 25.7287 30.4185 25.4729 30.4185Z" fill="white"/>
<path d="M25.4729 28.5427H23.469C23.2132 28.5427 23 28.7559 23 29.0117V29.097C23 29.3528 23.2132 29.566 23.469 29.566H25.4729C25.7287 29.566 25.9419 29.3528 25.9419 29.097V28.9691C25.9419 28.7559 25.7287 28.5427 25.4729 28.5427Z" fill="white"/>
<path d="M44.531 38.0078H42.5271C42.2713 38.0078 42.0581 38.221 42.0581 38.4768V38.6047C42.0581 38.8605 42.2713 39.0737 42.5271 39.0737H44.531C44.7868 39.0737 45 38.8605 45 38.6047V38.4768C44.9573 38.221 44.7442 38.0078 44.531 38.0078Z" fill="white"/>
<path d="M44.531 36.1318H42.5271C42.2713 36.1318 42.0581 36.345 42.0581 36.6008V36.7287C42.0581 36.9846 42.2713 37.1977 42.5271 37.1977H44.531C44.7868 37.1977 45 36.9846 45 36.7287V36.6008C44.9573 36.3024 44.7442 36.1318 44.531 36.1318Z" fill="white"/>
<path d="M44.531 34.2131H42.5271C42.2713 34.2131 42.0581 34.4263 42.0581 34.6821V34.81C42.0581 35.0659 42.2713 35.279 42.5271 35.279H44.531C44.7868 35.279 45 35.0659 45 34.81V34.6821C44.9573 34.4263 44.7442 34.2131 44.531 34.2131Z" fill="white"/>
<path d="M44.531 32.3372H42.5271C42.2713 32.3372 42.0581 32.5503 42.0581 32.8062V32.9341C42.0581 33.1899 42.2713 33.4031 42.5271 33.4031H44.531C44.7868 33.4031 45 33.1899 45 32.9341V32.8062C44.9573 32.5503 44.7442 32.3372 44.531 32.3372Z" fill="white"/>
<path d="M44.531 30.4185H42.5271C42.2713 30.4185 42.0581 30.6316 42.0581 30.8875V31.0154C42.0581 31.2712 42.2713 31.4844 42.5271 31.4844H44.531C44.7868 31.4844 45 31.2712 45 31.0154V30.8875C44.9573 30.6316 44.7442 30.4185 44.531 30.4185Z" fill="white"/>
<path d="M44.531 28.5427H42.5271C42.2713 28.5427 42.0581 28.7559 42.0581 29.0117V29.097C42.0581 29.3528 42.2713 29.566 42.5271 29.566H44.531C44.7868 29.566 45 29.3528 45 29.097V28.9691C44.9573 28.7559 44.7442 28.5427 44.531 28.5427Z" fill="white"/>
<defs>
<filter id="filter0_d_249_4670" x="0" y="0" width="68" height="68" filterUnits="userSpaceOnUse" color-interpolation-filters="sRGB">
<feFlood flood-opacity="0" result="BackgroundImageFix"/>
<feColorMatrix in="SourceAlpha" type="matrix" values="0 0 0 0 0 0 0 0 0 0 0 0 0 0 0 0 0 0 127 0" result="hardAlpha"/>
<feOffset/>
<feGaussianBlur stdDeviation="5"/>
<feComposite in2="hardAlpha" operator="out"/>
<feColorMatrix type="matrix" values="0 0 0 0 0 0 0 0 0 0 0 0 0 0 0 0 0 0 0.25 0"/>
<feBlend mode="normal" in2="BackgroundImageFix" result="effect1_dropShadow_249_4670"/>
<feBlend mode="normal" in="SourceGraphic" in2="effect1_dropShadow_249_4670" result="shape"/>
</filter>
</defs>
</svg>
