<svg width="68" height="68" viewBox="0 0 68 68" fill="none" xmlns="http://www.w3.org/2000/svg">
<g filter="url(#filter0_d_341_4231)">
<path d="M58 34C58 47.2548 47.2548 58 34 58C20.7452 58 10 47.2548 10 34C10 20.7452 20.7452 10 34 10C47.2548 10 58 20.7452 58 34Z" fill="#DA9C63"/>
</g>
<path d="M31.9091 26.1999H38.7273C38.8479 26.1999 38.9635 26.1578 39.0487 26.0827C39.134 26.0077 39.1819 25.906 39.1819 25.7999C39.1819 25.6938 39.134 25.5921 39.0487 25.5171C38.9635 25.442 38.8479 25.3999 38.7273 25.3999H31.9091C31.7886 25.3999 31.673 25.442 31.5877 25.5171C31.5025 25.5921 31.4546 25.6938 31.4546 25.7999C31.4546 25.906 31.5025 26.0077 31.5877 26.0827C31.673 26.1578 31.7886 26.1999 31.9091 26.1999Z" fill="white"/>
<path d="M31.9091 29.3999H38.7273C38.8479 29.3999 38.9635 29.3577 39.0487 29.2827C39.134 29.2077 39.1819 29.1059 39.1819 28.9999C39.1819 28.8938 39.134 28.792 39.0487 28.717C38.9635 28.642 38.8479 28.5999 38.7273 28.5999H31.9091C31.7886 28.5999 31.673 28.642 31.5877 28.717C31.5025 28.792 31.4546 28.8938 31.4546 28.9999C31.4546 29.1059 31.5025 29.2077 31.5877 29.2827C31.673 29.3577 31.7886 29.3999 31.9091 29.3999Z" fill="white"/>
<path d="M31.9091 32.6H37.3637C37.4842 32.6 37.5998 32.5579 37.6851 32.4829C37.7703 32.4079 37.8182 32.3061 37.8182 32.2C37.8182 32.094 37.7703 31.9922 37.6851 31.9172C37.5998 31.8422 37.4842 31.8 37.3637 31.8H31.9091C31.7886 31.8 31.673 31.8422 31.5877 31.9172C31.5025 31.9922 31.4546 32.094 31.4546 32.2C31.4546 32.3061 31.5025 32.4079 31.5877 32.4829C31.673 32.5579 31.7886 32.6 31.9091 32.6Z" fill="white"/>
<path d="M34.6364 39.8H31.9091C31.7886 39.8 31.673 39.8422 31.5877 39.9172C31.5025 39.9922 31.4546 40.094 31.4546 40.2C31.4546 40.3061 31.5025 40.4079 31.5877 40.4829C31.673 40.5579 31.7886 40.6 31.9091 40.6H34.6364C34.757 40.6 34.8726 40.5579 34.9578 40.4829C35.0431 40.4079 35.091 40.3061 35.091 40.2C35.091 40.094 35.0431 39.9922 34.9578 39.9172C34.8726 39.8422 34.757 39.8 34.6364 39.8Z" fill="white"/>
<path d="M30.0911 24.6001H28.2729C28.2132 24.6001 28.1541 24.6104 28.0989 24.6305C28.0438 24.6506 27.9937 24.6801 27.9515 24.7172C27.9092 24.7544 27.8758 24.7985 27.8529 24.847C27.8301 24.8955 27.8183 24.9476 27.8184 25.0001V26.6001C27.8183 26.6526 27.8301 26.7047 27.8529 26.7532C27.8758 26.8017 27.9092 26.8458 27.9515 26.883C27.9937 26.9201 28.0438 26.9496 28.0989 26.9697C28.1541 26.9898 28.2132 27.0001 28.2729 27.0001H30.0911C30.1508 27.0001 30.2099 26.9898 30.2651 26.9697C30.3202 26.9496 30.3703 26.9201 30.4125 26.883C30.4547 26.8458 30.4882 26.8017 30.5111 26.7532C30.5339 26.7047 30.5456 26.6526 30.5456 26.6001V25.0001C30.5456 24.9476 30.5339 24.8955 30.5111 24.847C30.4882 24.7985 30.4547 24.7544 30.4125 24.7172C30.3703 24.6801 30.3202 24.6506 30.2651 24.6305C30.2099 24.6104 30.1508 24.6001 30.0911 24.6001ZM29.6365 26.2001H28.7275V25.4001H29.6365V26.2001Z" fill="white"/>
<path d="M30.0911 27.8H28.2729C28.2132 27.8 28.1541 27.8104 28.0989 27.8305C28.0438 27.8506 27.9937 27.88 27.9515 27.9172C27.9092 27.9543 27.8758 27.9984 27.8529 28.047C27.8301 28.0955 27.8183 28.1475 27.8184 28.2V29.8C27.8183 29.8526 27.8301 29.9046 27.8529 29.9531C27.8758 30.0017 27.9092 30.0458 27.9515 30.0829C27.9937 30.1201 28.0438 30.1495 28.0989 30.1696C28.1541 30.1897 28.2132 30.2001 28.2729 30.2H30.0911C30.1508 30.2001 30.2099 30.1897 30.2651 30.1696C30.3202 30.1495 30.3703 30.1201 30.4125 30.0829C30.4547 30.0458 30.4882 30.0017 30.5111 29.9531C30.5339 29.9046 30.5456 29.8526 30.5456 29.8V28.2C30.5456 28.1475 30.5339 28.0955 30.5111 28.047C30.4882 27.9984 30.4547 27.9543 30.4125 27.9172C30.3703 27.88 30.3202 27.8506 30.2651 27.8305C30.2099 27.8104 30.1508 27.8 30.0911 27.8ZM29.6365 29.4H28.7275V28.6H29.6365V29.4Z" fill="white"/>
<path d="M30.0911 31H28.2729C28.2132 31 28.1541 31.0103 28.0989 31.0304C28.0438 31.0505 27.9937 31.08 27.9515 31.1171C27.9092 31.1543 27.8758 31.1984 27.8529 31.2469C27.8301 31.2954 27.8183 31.3475 27.8184 31.4V33C27.8183 33.0525 27.8301 33.1046 27.8529 33.1531C27.8758 33.2016 27.9092 33.2457 27.9515 33.2829C27.9937 33.32 28.0438 33.3495 28.0989 33.3696C28.1541 33.3897 28.2132 33.4 28.2729 33.4H30.0911C30.1508 33.4 30.2099 33.3897 30.2651 33.3696C30.3202 33.3495 30.3703 33.32 30.4125 33.2829C30.4547 33.2457 30.4882 33.2016 30.5111 33.1531C30.5339 33.1046 30.5456 33.0525 30.5456 33V31.4C30.5456 31.3475 30.5339 31.2954 30.5111 31.2469C30.4882 31.1984 30.4547 31.1543 30.4125 31.1171C30.3703 31.08 30.3202 31.0505 30.2651 31.0304C30.2099 31.0103 30.1508 31 30.0911 31ZM29.6365 32.6H28.7275V31.8H29.6365V32.6Z" fill="white"/>
<path d="M30.0911 39H28.2729C28.2132 39 28.1541 39.0103 28.0989 39.0304C28.0438 39.0505 27.9937 39.08 27.9515 39.1171C27.9092 39.1543 27.8758 39.1984 27.8529 39.2469C27.8301 39.2954 27.8183 39.3475 27.8184 39.4V41C27.8183 41.0525 27.8301 41.1046 27.8529 41.1531C27.8758 41.2016 27.9092 41.2457 27.9515 41.2829C27.9937 41.32 28.0438 41.3495 28.0989 41.3696C28.1541 41.3897 28.2132 41.4 28.2729 41.4H30.0911C30.1508 41.4 30.2099 41.3897 30.2651 41.3696C30.3202 41.3495 30.3703 41.32 30.4125 41.2829C30.4547 41.2457 30.4882 41.2016 30.5111 41.1531C30.5339 41.1046 30.5456 41.0525 30.5456 41V39.4C30.5456 39.3475 30.5339 39.2954 30.5111 39.2469C30.4882 39.1984 30.4547 39.1543 30.4125 39.1171C30.3703 39.08 30.3202 39.0505 30.2651 39.0304C30.2099 39.0103 30.1508 39 30.0911 39ZM29.6365 40.6H28.7275V39.8H29.6365V40.6Z" fill="white"/>
<path d="M46 37.8C45.9983 36.7029 45.5313 35.6459 44.6906 34.8359C43.8499 34.0258 42.6959 33.521 41.4545 33.4203V23.4C41.4546 23.3475 41.4428 23.2954 41.42 23.2469C41.3971 23.1984 41.3637 23.1543 41.3214 23.1171C41.2792 23.08 41.2291 23.0505 41.174 23.0304C41.1188 23.0103 41.0597 23 41 23H26.4545C26.3948 23 26.3357 23.0103 26.2806 23.0304C26.2254 23.0505 26.1753 23.08 26.1331 23.1171C26.0909 23.1543 26.0574 23.1984 26.0346 23.2469C26.0117 23.2954 26 23.3475 26 23.4V42.6C26 42.6525 26.0117 42.7046 26.0346 42.7531C26.0574 42.8016 26.0909 42.8457 26.1331 42.8829C26.1753 42.92 26.2254 42.9495 26.2806 42.9696C26.3357 42.9897 26.3948 43 26.4545 43H41C41.0597 43 41.1188 42.9897 41.174 42.9696C41.2291 42.9495 41.2792 42.92 41.3214 42.8829C41.3637 42.8457 41.3971 42.8016 41.42 42.7531C41.4428 42.7046 41.4546 42.6525 41.4545 42.6V42.1797C42.6959 42.079 43.8499 41.5742 44.6906 40.7641C45.5313 39.9541 45.9983 38.8971 46 37.8ZM26.9091 42.2V23.8H40.5455V33.4203C39.3034 33.5195 38.1484 34.0239 37.3074 34.8343C36.4663 35.6447 36 36.7025 36 37.8C36 38.8975 36.4663 39.9553 37.3074 40.7657C38.1484 41.5761 39.3034 42.0805 40.5455 42.1797V42.2H26.9091ZM36.9091 37.8C36.9091 37.088 37.149 36.392 37.5985 35.7999C38.048 35.2079 38.687 34.7465 39.4345 34.474C40.182 34.2016 41.0045 34.1303 41.7981 34.2692C42.5917 34.4081 43.3206 34.7509 43.8927 35.2544C44.4648 35.7579 44.8545 36.3993 45.0123 37.0977C45.1702 37.796 45.0891 38.5198 44.7795 39.1777C44.4699 39.8355 43.9455 40.3977 43.2728 40.7933C42.6 41.1889 41.8091 41.4 41 41.4C39.9154 41.3989 38.8756 41.0193 38.1086 40.3444C37.3417 39.6695 36.9103 38.7544 36.9091 37.8Z" fill="white"/>
<path d="M42.8181 38.2C42.9387 38.2 43.0543 38.1579 43.1396 38.0829C43.2248 38.0079 43.2727 37.9061 43.2727 37.8C43.2727 37.694 43.2248 37.5922 43.1396 37.5172C43.0543 37.4422 42.9387 37.4 42.8181 37.4H41.4545V36.2C41.4545 36.094 41.4066 35.9922 41.3214 35.9172C41.2361 35.8422 41.1205 35.8 41 35.8C40.8794 35.8 40.7638 35.8422 40.6785 35.9172C40.5933 35.9922 40.5454 36.094 40.5454 36.2V37.8C40.5454 37.8526 40.5571 37.9046 40.58 37.9531C40.6028 38.0017 40.6363 38.0458 40.6785 38.0829C40.7207 38.1201 40.7708 38.1495 40.826 38.1696C40.8811 38.1897 40.9403 38.2001 41 38.2H42.8181Z" fill="white"/>
<defs>
<filter id="filter0_d_341_4231" x="0" y="0" width="68" height="68" filterUnits="userSpaceOnUse" color-interpolation-filters="sRGB">
<feFlood flood-opacity="0" result="BackgroundImageFix"/>
<feColorMatrix in="SourceAlpha" type="matrix" values="0 0 0 0 0 0 0 0 0 0 0 0 0 0 0 0 0 0 127 0" result="hardAlpha"/>
<feOffset/>
<feGaussianBlur stdDeviation="5"/>
<feComposite in2="hardAlpha" operator="out"/>
<feColorMatrix type="matrix" values="0 0 0 0 0 0 0 0 0 0 0 0 0 0 0 0 0 0 0.25 0"/>
<feBlend mode="normal" in2="BackgroundImageFix" result="effect1_dropShadow_341_4231"/>
<feBlend mode="normal" in="SourceGraphic" in2="effect1_dropShadow_341_4231" result="shape"/>
</filter>
</defs>
</svg>
