<svg width="68" height="68" viewBox="0 0 68 68" fill="none" xmlns="http://www.w3.org/2000/svg">
<g filter="url(#filter0_d_357_3949)">
<path d="M58 34C58 47.2548 47.2548 58 34 58C20.7452 58 10 47.2548 10 34C10 20.7452 20.7452 10 34 10C47.2548 10 58 20.7452 58 34Z" fill="#3366FF"/>
</g>
<path d="M30.2225 42.5903L29.4683 42.2782C29.2672 42.1952 29.0527 42.1525 28.8362 42.1525C28.3849 42.1525 27.9518 42.338 27.6327 42.6679L27.4426 42.8644C26.7923 42.6402 26.2825 42.113 26.0656 41.4407L26.394 41.1435C26.6229 40.9363 26.7541 40.6377 26.7541 40.3234V39.871C26.7541 39.7322 26.7286 39.5948 26.6787 39.4663L26.3307 38.5665C26.1706 38.1526 25.7829 37.8813 25.3519 37.8813C25.144 37.8813 24.9405 37.9451 24.7674 38.0643C24.2878 38.3946 24 38.9509 24 39.5464V39.661C24.1976 42.5209 26.3978 44.7957 29.1639 45H29.2744C29.8504 45 30.3885 44.7024 30.708 44.2066C30.8236 44.0276 30.8852 43.8172 30.8852 43.6022C30.8852 43.1566 30.6229 42.7558 30.2225 42.5903Z" fill="white"/>
<path d="M40.0557 27.7999C39.7114 27.4743 39.4918 27.0105 39.4918 26.4915C39.4918 25.5102 40.264 24.7119 41.2131 24.7119C42.1622 24.7119 42.9344 25.5102 42.9344 26.4915C42.9344 27.0105 42.7148 27.4743 42.3705 27.7999C42.9423 28.0391 43.437 28.4488 43.7851 28.9877C44.1173 28.4773 44.3115 27.8633 44.3115 27.2034C44.3115 25.4373 42.9217 24 41.2131 24C39.5045 24 38.1147 25.4373 38.1147 27.2034C38.1147 27.8633 38.3089 28.4773 38.6411 28.9873C38.9892 28.4488 39.4839 28.0391 40.0557 27.7999Z" fill="white"/>
<path d="M39.1143 29.5527C39.6671 30.0809 40.4032 30.4066 41.2132 30.4066C42.0233 30.4066 42.7593 30.0809 43.3122 29.5527C42.8894 28.7693 42.0914 28.271 41.2132 28.271C40.335 28.271 39.537 28.7693 39.1143 29.5527Z" fill="white"/>
<path d="M41.2132 27.5594C41.7836 27.5594 42.246 27.0814 42.246 26.4916C42.246 25.9019 41.7836 25.4238 41.2132 25.4238C40.6428 25.4238 40.1804 25.9019 40.1804 26.4916C40.1804 27.0814 40.6428 27.5594 41.2132 27.5594Z" fill="white"/>
<path d="M34.3276 30.4067C33.9576 30.4067 33.5634 30.9502 33.2917 31.8305H35.3639C35.0919 30.9502 34.6977 30.4067 34.3276 30.4067Z" fill="white"/>
<path d="M35.6974 33.9662C35.6795 33.4512 35.6227 32.9728 35.539 32.5425H33.1161C33.0321 32.9728 32.9757 33.4512 32.9578 33.9662H35.6974Z" fill="white"/>
<path d="M32.2697 34.6777H30.5583C30.6031 35.1867 30.7432 35.6669 30.9591 36.1015H32.4105C32.333 35.6612 32.2852 35.1828 32.2697 34.6777Z" fill="white"/>
<path d="M37.2468 31.8308C36.8178 31.2944 36.2515 30.8822 35.6067 30.6416C35.7971 30.9687 35.9589 31.3698 36.0856 31.8308H37.2468Z" fill="white"/>
<path d="M32.4105 32.5425H30.9591C30.7436 32.9771 30.6031 33.4572 30.5583 33.9662H32.2697C32.2852 33.4611 32.333 32.9828 32.4105 32.5425Z" fill="white"/>
<path d="M31.4087 31.8308H32.5699C32.6966 31.3698 32.858 30.9687 33.0488 30.6416C32.404 30.8822 31.838 31.2944 31.4087 31.8308Z" fill="white"/>
<path d="M31.4087 36.8135C31.8376 37.3499 32.404 37.762 33.0488 38.0026C32.8584 37.6755 32.6966 37.2744 32.5699 36.8135H31.4087Z" fill="white"/>
<path d="M35.6064 38.0026C36.2516 37.7624 36.8176 37.3499 37.2465 36.8135H36.0853C35.9586 37.2744 35.7972 37.6755 35.6064 38.0026Z" fill="white"/>
<path d="M32.9578 34.6777C32.9757 35.1928 33.0325 35.6711 33.1161 36.1015H35.539C35.623 35.6711 35.6795 35.1928 35.6974 34.6777H32.9578Z" fill="white"/>
<path d="M36.2449 36.1015H37.6963C37.9118 35.6669 38.0523 35.1867 38.097 34.6777H36.3857C36.3702 35.1828 36.3223 35.6612 36.2449 36.1015Z" fill="white"/>
<path d="M34.3277 38.2372C34.6978 38.2372 35.092 37.6937 35.3636 36.8135H33.2915C33.5635 37.6937 33.9577 38.2372 34.3277 38.2372Z" fill="white"/>
<path d="M36.2449 32.5425C36.3223 32.9828 36.3698 33.4611 36.3857 33.9662H38.097C38.0523 33.4572 37.9121 32.9771 37.6963 32.5425H36.2449Z" fill="white"/>
<path d="M42.5903 38.2373C41.2617 38.2373 40.1804 39.3549 40.1804 40.7288V42.1526C40.1804 43.5265 41.2617 44.6441 42.5903 44.6441V43.9322C41.6411 43.9322 40.8689 43.1339 40.8689 42.1526V40.7288C40.8689 39.7475 41.6411 38.9492 42.5903 38.9492C43.5394 38.9492 44.3116 39.7475 44.3116 40.7288V43.2204C44.3116 43.4165 44.1573 43.5763 43.9673 43.5763C43.7773 43.5763 43.623 43.4165 43.623 43.2204V42.1526V41.4407V40.7288C43.623 40.1401 43.1597 39.661 42.5903 39.661C42.0208 39.661 41.5575 40.1401 41.5575 40.7288V42.1526C41.5575 42.7413 42.0208 43.2204 42.5903 43.2204C42.7114 43.2204 42.8264 43.1947 42.9345 43.1549V43.2204C42.9345 43.8091 43.3979 44.2882 43.9673 44.2882C44.5367 44.2882 45.0001 43.8091 45.0001 43.2204V40.7288C45.0001 39.3549 43.9188 38.2373 42.5903 38.2373ZM42.9345 41.4407V42.1526C42.9345 42.3487 42.7803 42.5085 42.5903 42.5085C42.4002 42.5085 42.246 42.3487 42.246 42.1526V40.7288C42.246 40.5327 42.4002 40.3729 42.5903 40.3729C42.7803 40.3729 42.9345 40.5327 42.9345 40.7288V41.4407Z" fill="white"/>
<path d="M28.7242 27.5591H27.5379L25.2427 28.9828H31.0194L28.7242 27.5591Z" fill="white"/>
<path d="M28.6769 26.8475L31.431 24H24.8308L27.5849 26.8475H28.6769Z" fill="white"/>
<path d="M31.9178 28.7105V24.5034L29.3748 27.1327L31.9178 28.7105Z" fill="white"/>
<path d="M24.3442 24.5034V28.7105L26.8873 27.1327L24.3442 24.5034Z" fill="white"/>
<path d="M33.9837 26.782V29.7131C34.0976 29.7039 34.2116 29.695 34.328 29.695C34.4443 29.695 34.5583 29.7039 34.6722 29.7131V26.782C35.0719 26.6347 35.3607 26.2431 35.3607 25.7797C35.3607 25.191 34.8974 24.7119 34.328 24.7119C33.7585 24.7119 33.2952 25.191 33.2952 25.7797C33.2952 26.2431 33.584 26.6347 33.9837 26.782Z" fill="white"/>
<path d="M34.6722 41.8623V38.9312C34.5583 38.9404 34.4443 38.9493 34.328 38.9493C34.2116 38.9493 34.0976 38.9404 33.9837 38.9312V41.8623C33.584 42.0096 33.2952 42.4011 33.2952 42.8646C33.2952 43.4533 33.7585 43.9324 34.328 43.9324C34.8974 43.9324 35.3607 43.4533 35.3607 42.8646C35.3607 42.4011 35.0719 42.0096 34.6722 41.8623Z" fill="white"/>
<path d="M27.0347 33.9663C26.8922 33.553 26.5135 33.2544 26.0653 33.2544C25.4958 33.2544 25.0325 33.7335 25.0325 34.3222C25.0325 34.9109 25.4958 35.39 26.0653 35.39C26.5135 35.39 26.8922 35.0914 27.0347 34.6781H29.8697C29.8607 34.5603 29.8521 34.4425 29.8521 34.3222C29.8521 34.2019 29.8607 34.0841 29.8697 33.9663H27.0347Z" fill="white"/>
<path d="M41.6209 34.6781C41.7634 35.0914 42.1421 35.39 42.5903 35.39C43.1597 35.39 43.6231 34.9109 43.6231 34.3222C43.6231 33.7335 43.1597 33.2544 42.5903 33.2544C42.1421 33.2544 41.7634 33.553 41.6209 33.9663H38.7859C38.7948 34.0841 38.8034 34.2019 38.8034 34.3222C38.8034 34.4425 38.7948 34.5603 38.7859 34.6781H41.6209Z" fill="white"/>
<defs>
<filter id="filter0_d_357_3949" x="0" y="0" width="68" height="68" filterUnits="userSpaceOnUse" color-interpolation-filters="sRGB">
<feFlood flood-opacity="0" result="BackgroundImageFix"/>
<feColorMatrix in="SourceAlpha" type="matrix" values="0 0 0 0 0 0 0 0 0 0 0 0 0 0 0 0 0 0 127 0" result="hardAlpha"/>
<feOffset/>
<feGaussianBlur stdDeviation="5"/>
<feComposite in2="hardAlpha" operator="out"/>
<feColorMatrix type="matrix" values="0 0 0 0 0 0 0 0 0 0 0 0 0 0 0 0 0 0 0.25 0"/>
<feBlend mode="normal" in2="BackgroundImageFix" result="effect1_dropShadow_357_3949"/>
<feBlend mode="normal" in="SourceGraphic" in2="effect1_dropShadow_357_3949" result="shape"/>
</filter>
</defs>
</svg>
