<svg width="416" height="192" viewBox="0 0 416 192" fill="none" xmlns="http://www.w3.org/2000/svg">
<rect y="151" width="126" height="41" rx="20" fill="#2446AB"/>
<rect x="26" y="110" width="163" height="41" rx="20" fill="#0B0924"/>
<rect x="105" y="81.5" width="163" height="41" rx="20" transform="rotate(-30 105 81.5)" fill="#2446AB"/>
<circle cx="288" cy="106" r="39.5" stroke="#6479E4"/>
<rect x="288" y="35" width="128" height="41" rx="20" fill="#2DB6F1"/>
<path d="M28.043 170.75V171.934H18.3164V170.75H28.043ZM18.75 169.309C20.7422 169.186 21.8555 168.576 22.1836 167.926H19.207V166.754H27.1641V167.926H24.1582C24.4863 168.582 25.6113 169.186 27.6211 169.309L27.1523 170.457C25.1777 170.311 23.8066 169.689 23.168 168.793C22.5293 169.684 21.1758 170.311 19.2188 170.457L18.75 169.309ZM19.4414 173.609V172.52H26.8594V175.238H20.918V175.883H27.1406V177.008H19.4531V174.195H25.3828V173.609H19.4414ZM37.6758 166.414V177.078H36.1875V171.734H34.0664V170.516H36.1875V166.414H37.6758ZM28.582 174.055C31.2773 172.725 32.3965 171.037 32.6191 168.699H29.0859V167.527H34.125C34.1191 170.744 33.0762 173.381 29.3555 175.227L28.582 174.055ZM43.9219 166.555C46.2949 166.561 47.7949 167.334 47.8008 168.629C47.7949 169.9 46.2949 170.662 43.9219 170.656C41.5605 170.662 40.0312 169.9 40.0312 168.629C40.0312 167.334 41.5605 166.561 43.9219 166.555ZM39.0586 172.402V171.207H48.7852V172.402H44.6602V173.328H47.625V176.961H40.1836V173.328H43.1719V172.402H39.0586ZM41.5898 168.629C41.5781 169.215 42.4277 169.52 43.9219 169.52C45.3926 169.52 46.2539 169.215 46.2539 168.629C46.2539 168.014 45.3926 167.697 43.9219 167.703C42.4277 167.697 41.5781 168.014 41.5898 168.629ZM41.6602 175.766H46.1602V174.512H41.6602V175.766ZM52.5938 176V167.516H55.9219C57.8496 167.516 58.957 168.705 58.957 170.375C58.957 172.068 57.832 173.234 55.875 173.234H54.3516V176H52.5938ZM54.3516 171.816H55.5938C56.6367 171.816 57.1465 171.23 57.1406 170.375C57.1465 169.531 56.6367 168.963 55.5938 168.957H54.3516V171.816ZM61.7695 167.516V176H60.0352V167.516H61.7695ZM66 176.129C64.0488 176.123 62.8535 174.863 62.8594 172.848C62.8535 170.885 64.0664 169.555 65.9297 169.555C67.5996 169.555 68.918 170.609 68.918 172.777V173.27H64.5703C64.5703 174.23 65.1387 174.822 66.0352 174.828C66.627 174.822 67.0488 174.564 67.2188 174.184H68.8711C68.625 175.361 67.5703 176.123 66 176.129ZM64.5703 172.18H67.2773C67.2715 171.406 66.7383 170.85 65.9648 170.855C65.168 170.85 64.6055 171.447 64.5703 172.18ZM69.7031 174.219C69.709 172.801 70.8457 172.338 72.0703 172.262C72.5273 172.232 73.3828 172.191 73.6523 172.18V171.664C73.6465 171.131 73.2832 170.826 72.6328 170.82C72.041 170.826 71.6719 171.09 71.5781 171.523H69.9258C70.0312 170.422 70.9922 169.555 72.6797 169.555C74.0684 169.555 75.3809 170.176 75.375 171.711V176H73.7344V175.121H73.6875C73.377 175.707 72.7676 176.123 71.8242 176.117C70.6055 176.123 69.709 175.479 69.7031 174.219ZM71.3672 174.172C71.3672 174.658 71.7598 174.916 72.3164 174.922C73.1074 174.916 73.6582 174.4 73.6523 173.727V173.264C73.3887 173.275 72.6445 173.316 72.3516 173.34C71.748 173.393 71.3672 173.68 71.3672 174.172ZM80.332 171.523C80.2559 171.078 79.8691 170.791 79.2891 170.785C78.7266 170.791 78.2988 171.055 78.3047 171.441C78.2988 171.729 78.5215 171.951 79.125 172.074L80.2617 172.309C81.498 172.566 82.0957 173.117 82.1016 174.031C82.0957 175.285 80.9707 176.123 79.2773 176.129C77.5605 176.123 76.5527 175.355 76.4062 174.113H78.1523C78.2344 174.611 78.6387 174.869 79.2773 174.875C79.9102 174.869 80.332 174.617 80.332 174.207C80.332 173.879 80.0625 173.674 79.4648 173.551L78.4102 173.34C77.1973 173.1 76.5762 172.479 76.582 171.535C76.5762 170.316 77.625 169.555 79.2656 169.555C80.8711 169.555 81.8672 170.316 81.9609 171.523H80.332ZM87.2461 173.293V169.637H88.9805V176H87.3164V174.852H87.2461C86.959 175.59 86.2734 176.082 85.3125 176.082C84.041 176.082 83.168 175.18 83.168 173.691V169.637H84.9023V173.387C84.9023 174.143 85.3359 174.611 86.0156 174.617C86.6484 174.611 87.2461 174.16 87.2461 173.293ZM90.3281 176V169.637H92.0039V170.738H92.0742C92.3027 169.959 92.8945 169.543 93.6094 169.543C93.7852 169.543 94.0078 169.566 94.1602 169.602V171.148C93.9961 171.096 93.6621 171.055 93.4219 171.055C92.6367 171.055 92.0566 171.6 92.0625 172.379V176H90.3281ZM97.6875 176.129C95.7363 176.123 94.541 174.863 94.5469 172.848C94.541 170.885 95.7539 169.555 97.6172 169.555C99.2871 169.555 100.605 170.609 100.605 172.777V173.27H96.2578C96.2578 174.23 96.8262 174.822 97.7227 174.828C98.3145 174.822 98.7363 174.564 98.9062 174.184H100.559C100.312 175.361 99.2578 176.123 97.6875 176.129ZM96.2578 172.18H98.9648C98.959 171.406 98.4258 170.85 97.6523 170.855C96.8555 170.85 96.293 171.447 96.2578 172.18Z" fill="white"/>
<path d="M317.27 51.3281V52.5H311.34V51.3281H313.637V50.3203H315.125V51.3281H317.27ZM311.867 54.9375C311.855 53.7363 312.928 52.8926 314.363 52.8867C315.811 52.8926 316.883 53.7363 316.895 54.9375C316.883 56.1035 315.811 56.9648 314.363 56.9648C312.928 56.9648 311.855 56.1035 311.867 54.9375ZM312.98 58.875V57.6914H320.305V61.0781H318.816V58.875H312.98ZM313.262 54.9375C313.256 55.4883 313.713 55.8281 314.363 55.8281C315.008 55.8281 315.5 55.4883 315.5 54.9375C315.5 54.3574 315.008 54.0117 314.363 54.0117C313.707 54.0117 313.256 54.3574 313.262 54.9375ZM317.363 56.0625V54.8555H318.816V53.9883H317.387V52.8047H318.816V50.4141H320.305V57.1875H318.816V56.0625H317.363ZM330.617 50.4258V58.207H329.117V50.4258H330.617ZM321.652 55.5703C323.439 54.9727 324.219 53.4902 324.219 52.043V51.0117H325.777V52.043C325.766 53.4551 326.521 54.832 328.273 55.3945L327.512 56.5664C326.305 56.168 325.479 55.3711 325.004 54.3574C324.523 55.4473 323.674 56.3262 322.426 56.7539L321.652 55.5703ZM323.469 60.8906V57.457H324.98V59.6953H330.898V60.8906H323.469ZM336.98 51.5156V60H335.223V51.5156H336.98ZM340.109 56.3203V60H338.375V53.6367H340.027V54.75H340.098C340.385 54.0176 341.064 53.5547 342.008 53.5547C343.338 53.5547 344.205 54.4629 344.199 55.9453V60H342.477V56.25C342.471 55.4648 342.049 54.9961 341.328 54.9961C340.607 54.9961 340.109 55.4824 340.109 56.3203ZM347.281 56.3203V60H345.547V53.6367H347.199V54.75H347.27C347.557 54.0176 348.236 53.5547 349.18 53.5547C350.51 53.5547 351.377 54.4629 351.371 55.9453V60H349.648V56.25C349.643 55.4648 349.221 54.9961 348.5 54.9961C347.779 54.9961 347.281 55.4824 347.281 56.3203ZM355.578 60.1289C353.656 60.123 352.455 58.8047 352.461 56.8359C352.455 54.873 353.656 53.5547 355.578 53.5547C357.506 53.5547 358.701 54.873 358.707 56.8359C358.701 58.8047 357.506 60.123 355.578 60.1289ZM354.219 56.8359C354.219 57.9492 354.682 58.7754 355.59 58.7812C356.475 58.7754 356.943 57.9492 356.938 56.8359C356.943 55.7168 356.475 54.8789 355.59 54.8789C354.682 54.8789 354.219 55.7168 354.219 56.8359ZM365.492 53.6367L363.254 60H361.309L359.082 53.6367H360.91L362.246 58.207H362.316L363.652 53.6367H365.492ZM365.855 58.2188C365.861 56.8008 366.998 56.3379 368.223 56.2617C368.68 56.2324 369.535 56.1914 369.805 56.1797V55.6641C369.799 55.1309 369.436 54.8262 368.785 54.8203C368.193 54.8262 367.824 55.0898 367.73 55.5234H366.078C366.184 54.4219 367.145 53.5547 368.832 53.5547C370.221 53.5547 371.533 54.1758 371.527 55.7109V60H369.887V59.1211H369.84C369.529 59.707 368.92 60.123 367.977 60.1172C366.758 60.123 365.861 59.4785 365.855 58.2188ZM367.52 58.1719C367.52 58.6582 367.912 58.916 368.469 58.9219C369.26 58.916 369.811 58.4004 369.805 57.7266V57.2637C369.541 57.2754 368.797 57.3164 368.504 57.3398C367.9 57.3926 367.52 57.6797 367.52 58.1719ZM376.203 53.6367V54.9375H375.008V58.043C375.002 58.5527 375.254 58.6758 375.605 58.6875C375.781 58.6875 376.086 58.6699 376.297 58.6523V60.0234C376.109 60.0527 375.799 60.0879 375.371 60.082C374.117 60.0879 373.262 59.5254 373.273 58.2891V54.9375H372.395V53.6367H373.273V52.1133H375.008V53.6367H376.203ZM377.293 60V53.6367H379.027V60H377.293ZM377.211 51.9258C377.211 51.4336 377.639 51.041 378.16 51.0352C378.676 51.041 379.104 51.4336 379.098 51.9258C379.104 52.4062 378.676 52.8047 378.16 52.8047C377.639 52.8047 377.211 52.4062 377.211 51.9258ZM383.234 60.1289C381.312 60.123 380.111 58.8047 380.117 56.8359C380.111 54.873 381.312 53.5547 383.234 53.5547C385.162 53.5547 386.357 54.873 386.363 56.8359C386.357 58.8047 385.162 60.123 383.234 60.1289ZM381.875 56.8359C381.875 57.9492 382.338 58.7754 383.246 58.7812C384.131 58.7754 384.6 57.9492 384.594 56.8359C384.6 55.7168 384.131 54.8789 383.246 54.8789C382.338 54.8789 381.875 55.7168 381.875 56.8359ZM389.188 56.3203V60H387.453V53.6367H389.105V54.75H389.176C389.463 54.0176 390.143 53.5547 391.086 53.5547C392.416 53.5547 393.283 54.4629 393.277 55.9453V60H391.555V56.25C391.549 55.4648 391.127 54.9961 390.406 54.9961C389.686 54.9961 389.188 55.4824 389.188 56.3203Z" fill="white"/>
<path d="M288.094 97.0859V98.2812H280.676V94.5781H282.164V97.0859H288.094ZM279.445 100.414V99.1953H289.195V100.414H279.445ZM280.559 103.062C280.559 101.803 281.965 101.088 284.297 101.082C286.611 101.088 288 101.803 288.012 103.062C288 104.334 286.611 105.043 284.297 105.043C281.965 105.043 280.559 104.334 280.559 103.062ZM282.082 103.062C282.076 103.619 282.82 103.9 284.297 103.906C285.744 103.9 286.506 103.619 286.512 103.062C286.506 102.494 285.744 102.254 284.297 102.242C282.82 102.254 282.076 102.494 282.082 103.062ZM294.938 95.0352V98.3633H291.715V99.5C293.297 99.5 294.246 99.4473 295.324 99.2422L295.465 100.438C294.217 100.66 293.098 100.689 291.035 100.695H290.238V97.25H293.438V96.207H290.215V95.0352H294.938ZM291.457 102.664V101.469H298.805V105.078H297.316V102.664H291.457ZM295.547 99.3477V98.1641H297.316V97.0859H295.547V95.9023H297.316V94.4258H298.805V100.988H297.316V99.3477H295.547ZM270.17 118H268.271L271.213 109.516H273.475L276.404 118H274.518L273.879 116.043H270.809L270.17 118ZM271.254 114.672H273.434L272.373 111.426H272.314L271.254 114.672ZM277.365 118V109.516H279.1V112.703H279.146C279.387 112.188 279.891 111.555 280.963 111.555C282.369 111.555 283.547 112.645 283.553 114.824C283.547 116.951 282.416 118.105 280.963 118.105C279.926 118.105 279.398 117.508 279.146 116.98H279.076V118H277.365ZM279.064 114.812C279.059 115.961 279.557 116.717 280.412 116.723C281.297 116.717 281.777 115.938 281.771 114.812C281.777 113.705 281.309 112.938 280.412 112.938C279.551 112.938 279.059 113.67 279.064 114.812ZM284.666 118V111.637H286.4V118H284.666ZM284.584 109.926C284.584 109.434 285.012 109.041 285.533 109.035C286.049 109.041 286.477 109.434 286.471 109.926C286.477 110.406 286.049 110.805 285.533 110.805C285.012 110.805 284.584 110.406 284.584 109.926ZM289.482 109.516V118H287.748V109.516H289.482ZM290.83 118V111.637H292.564V118H290.83ZM290.748 109.926C290.748 109.434 291.176 109.041 291.697 109.035C292.213 109.041 292.641 109.434 292.635 109.926C292.641 110.406 292.213 110.805 291.697 110.805C291.176 110.805 290.748 110.406 290.748 109.926ZM297.264 111.637V112.938H296.068V116.043C296.062 116.553 296.314 116.676 296.666 116.688C296.842 116.688 297.146 116.67 297.357 116.652V118.023C297.17 118.053 296.859 118.088 296.432 118.082C295.178 118.088 294.322 117.525 294.334 116.289V112.938H293.455V111.637H294.334V110.113H296.068V111.637H297.264ZM301.166 118.129C299.215 118.123 298.02 116.863 298.025 114.848C298.02 112.885 299.232 111.555 301.096 111.555C302.766 111.555 304.084 112.609 304.084 114.777V115.27H299.736C299.736 116.23 300.305 116.822 301.201 116.828C301.793 116.822 302.215 116.564 302.385 116.184H304.037C303.791 117.361 302.736 118.123 301.166 118.129ZM299.736 114.18H302.443C302.438 113.406 301.904 112.85 301.131 112.855C300.334 112.85 299.771 113.447 299.736 114.18ZM308.807 113.523C308.73 113.078 308.344 112.791 307.764 112.785C307.201 112.791 306.773 113.055 306.779 113.441C306.773 113.729 306.996 113.951 307.6 114.074L308.736 114.309C309.973 114.566 310.57 115.117 310.576 116.031C310.57 117.285 309.445 118.123 307.752 118.129C306.035 118.123 305.027 117.355 304.881 116.113H306.627C306.709 116.611 307.113 116.869 307.752 116.875C308.385 116.869 308.807 116.617 308.807 116.207C308.807 115.879 308.537 115.674 307.939 115.551L306.885 115.34C305.672 115.1 305.051 114.479 305.057 113.535C305.051 112.316 306.1 111.555 307.74 111.555C309.346 111.555 310.342 112.316 310.436 113.523H308.807Z" fill="#90A7EA"/>
<path d="M154.72 71.2361L158.617 77.985L157.318 78.735L153.421 71.9861L154.72 71.2361ZM149.822 80.4239C151.092 79.0956 151.145 77.6171 150.507 76.5239L150.466 76.4529L148.578 77.5427L147.998 76.538L149.886 75.4482L149.294 74.4232L150.613 73.6614L151.205 74.6865L153.082 73.6025L153.663 74.6072L151.775 75.697L151.816 75.7681C152.4 76.804 153.693 77.4248 155.452 76.9569L155.419 78.3292C154.183 78.6501 153.093 78.4609 152.218 77.9175C152.297 79.0153 151.939 80.1289 151.021 81.0712L149.822 80.4239ZM153.762 83.8731L152.08 80.9604L153.389 80.2046L154.473 82.0821L159.599 79.1231L160.196 80.1583L153.762 83.8731ZM161.445 67.8136L162.043 68.8487L160.206 69.9093C160.769 70.8152 161.999 71.3977 163.641 70.9841L163.634 72.3549C162.426 72.6531 161.356 72.4522 160.503 71.9233C160.574 73.0189 160.227 74.1528 159.341 75.0907L158.131 74.4492C159.308 73.1474 159.421 71.6679 158.907 70.6593L157.039 71.7374L156.442 70.7022L161.445 67.8136ZM161.106 75.641L160.515 74.6159L166.665 71.0651L168.106 73.5617L163.265 76.3567L163.605 76.9453L168.72 73.9922L169.3 74.9969L162.886 78.7L161.421 76.1628L166.272 73.362L165.968 72.8343L161.106 75.641ZM162.694 70.5159L162.102 69.4909L163.554 68.653L162.458 66.7552L163.747 66.0111L166.46 70.7099L165.171 71.4541L164.145 69.6781L162.694 70.5159ZM172.477 72.0393L168.235 64.6916L169.758 63.8127L171.638 67.0705L171.74 67.0119L172.528 62.2131L174.365 61.1526L173.523 66.0228L178.638 68.4827L176.811 69.5374L173.019 67.6806L172.787 69.0596L174 71.1604L172.477 72.0393ZM179.683 67.8792L176.501 62.3684L178.003 61.5012L181.185 67.012L179.683 67.8792ZM175.575 60.9277C175.329 60.5014 175.503 59.9476 175.952 59.6818C176.401 59.429 176.968 59.5552 177.209 59.9843C177.454 60.3975 177.283 60.9564 176.836 61.2142C176.385 61.475 175.815 61.3438 175.575 60.9277ZM182.014 62.2842L183.854 65.4709L182.352 66.3381L179.171 60.8274L180.601 60.0012L181.158 60.9653L181.219 60.9302C181.101 60.1523 181.459 59.4116 182.276 58.9399C183.427 58.2749 184.633 58.6278 185.369 59.9146L187.396 63.426L185.904 64.2874L184.029 61.0398C183.632 60.3627 183.032 60.1677 182.408 60.5281C181.784 60.8884 181.595 61.5586 182.014 62.2842ZM190.646 61.6717C189.387 62.3982 187.826 61.9669 186.762 60.1249C185.672 58.2373 186.152 56.7016 187.37 55.9985C188.294 55.4653 189.052 55.7585 189.507 56.0908L189.558 56.0615L187.964 53.301L189.466 52.4338L193.709 59.7815L192.227 60.637L191.717 59.754L191.646 59.795C191.702 60.3718 191.544 61.1531 190.646 61.6717ZM188.299 59.2242C188.856 60.2014 189.657 60.639 190.421 60.2046C191.169 59.7659 191.217 58.8652 190.643 57.8706C190.072 56.8811 189.285 56.49 188.529 56.9265C187.762 57.3689 187.74 58.268 188.299 59.2242ZM194.578 55.0303L196.418 58.217L194.916 59.0842L191.735 53.5735L193.166 52.7473L193.722 53.7114L193.783 53.6763C193.666 52.8984 194.023 52.1577 194.84 51.686C195.992 51.021 197.197 51.3739 197.933 52.6607L199.96 56.1721L198.468 57.0334L196.593 53.7859C196.196 53.1088 195.596 52.9138 194.972 53.2742C194.348 53.6345 194.16 54.3047 194.578 55.0303ZM203.688 54.1685C201.996 55.139 200.331 54.6457 199.328 52.8972C198.341 51.2002 198.727 49.4419 200.34 48.5102C201.787 47.6753 203.456 47.9295 204.54 49.807L204.786 50.2332L201.021 52.4071C201.501 53.2393 202.289 53.4676 203.068 53.0244C203.578 52.7235 203.814 52.2893 203.771 51.8745L205.202 51.0483C205.578 52.1913 205.045 53.3783 203.688 54.1685ZM200.476 51.4632L202.82 50.1097C202.428 49.4428 201.688 49.2274 201.021 49.6192C200.328 50.0125 200.14 50.8114 200.476 51.4632ZM208.003 46.3598C207.714 46.0122 207.236 45.9569 206.73 46.2419C206.246 46.5282 206.007 46.9704 206.206 47.3024C206.344 47.554 206.648 47.6355 207.233 47.4403L208.334 47.0749C209.534 46.68 210.327 46.8581 210.789 47.6468C211.411 48.7357 210.856 50.0238 209.392 50.8756C207.902 51.7289 206.646 51.568 205.898 50.5655L207.41 49.6925C207.73 50.0828 208.209 50.1039 208.765 49.7896C209.31 49.4682 209.549 49.039 209.344 48.6838C209.18 48.3997 208.844 48.3568 208.265 48.5491L207.246 48.8937C206.076 49.2921 205.227 49.0648 204.761 48.2449C204.146 47.1924 204.674 46.0083 206.095 45.188C207.485 44.3852 208.729 44.5469 209.413 45.5453L208.003 46.3598ZM213.605 43.1254C213.316 42.7778 212.838 42.7225 212.332 43.0075C211.848 43.2938 211.61 43.736 211.808 44.068C211.946 44.3196 212.251 44.4011 212.835 44.2059L213.936 43.8405C215.136 43.4456 215.929 43.6238 216.391 44.4124C217.013 45.5013 216.458 46.7894 214.994 47.6412C213.504 48.4945 212.248 48.3337 211.5 47.3311L213.012 46.4581C213.332 46.8484 213.811 46.8695 214.367 46.5553C214.912 46.2338 215.152 45.8046 214.946 45.4494C214.782 45.1653 214.446 45.1224 213.867 45.3147L212.849 45.6594C211.678 46.0578 210.83 45.8304 210.363 45.0105C209.749 43.958 210.276 42.7739 211.697 41.9536C213.087 41.1509 214.331 41.3125 215.015 42.3109L213.605 43.1254Z" fill="white"/>
<path d="M40.3477 119.867C40.3418 121.291 41.0742 122.609 42.7852 123.137L42 124.309C40.8516 123.91 40.0723 123.178 39.6211 122.217C39.1523 123.33 38.291 124.203 37.0078 124.637L36.2227 123.441C38.0449 122.855 38.8301 121.426 38.8359 119.938V118.965H40.3477V119.867ZM37.9922 127.016C37.9922 125.703 39.3867 124.936 41.6602 124.941C43.9395 124.936 45.334 125.703 45.3398 127.016C45.334 128.334 43.9395 129.084 41.6602 129.078C39.3867 129.084 37.9922 128.334 37.9922 127.016ZM39.4805 127.016C39.4805 127.607 40.248 127.918 41.6602 127.918C43.0781 127.918 43.8457 127.607 43.8516 127.016C43.8457 126.406 43.0781 126.102 41.6602 126.102C40.248 126.102 39.4805 126.406 39.4805 127.016ZM41.8125 121.59V120.371H43.8164V118.414H45.3047V124.66H43.8164V121.59H41.8125ZM52.7461 119.129V120.324H50.625C50.6309 121.566 51.3867 122.768 53.0859 123.266L52.3711 124.438C51.1934 124.08 50.373 123.359 49.9043 122.451C49.4297 123.523 48.5625 124.379 47.2852 124.801L46.5234 123.617C48.293 123.061 49.0957 121.678 49.1133 120.324H46.9336V119.129H52.7461ZM48 127.004C47.9941 125.703 49.4004 124.947 51.6562 124.953C53.877 124.947 55.248 125.703 55.2539 127.004C55.248 128.311 53.877 129.084 51.6562 129.078C49.4004 129.084 47.9941 128.311 48 127.004ZM49.5 127.004C49.4883 127.613 50.2559 127.918 51.6562 127.918C53.0391 127.918 53.7773 127.613 53.7773 127.004C53.7773 126.406 53.0391 126.107 51.6562 126.113C50.2559 126.107 49.4883 126.406 49.5 127.004ZM53.6484 124.742V118.414H55.1484V120.887H56.5898V122.105H55.1484V124.742H53.6484ZM63.0586 119.48V120.336C63.0469 121.338 63.0469 122.65 62.7656 124.426L61.2891 124.309C61.5352 122.762 61.5586 121.619 61.5703 120.676H57.5273V119.48H63.0586ZM56.9648 125.703C57.5625 125.703 58.2305 125.697 58.9219 125.68V122.539H60.3984V125.633C61.4473 125.592 62.5078 125.516 63.4922 125.387L63.5859 126.5C61.3887 126.869 58.9746 126.91 57.1055 126.898L56.9648 125.703ZM63.9961 129.078V118.414H65.5078V122.703H66.9609V123.945H65.5078V129.078H63.9961ZM75 125.059C77.332 125.059 78.7969 125.797 78.8086 127.074C78.7969 128.334 77.332 129.084 75 129.078C72.6855 129.084 71.1973 128.334 71.2031 127.074C71.1973 125.797 72.6855 125.059 75 125.059ZM70.2188 124.379V123.172H73.8516V121.309H75.3281V123.172H79.8984V124.379H70.2188ZM71.3086 120.066V118.895H78.75V119.762C78.7559 120.611 78.7559 121.525 78.4453 122.621L76.9805 122.48C77.2207 121.514 77.25 120.793 77.2617 120.066H71.3086ZM72.6914 127.074C72.6855 127.648 73.5293 127.941 75 127.941C76.4707 127.941 77.3203 127.648 77.3203 127.074C77.3203 126.482 76.4707 126.166 75 126.172C73.5293 126.166 72.6855 126.482 72.6914 127.074ZM90.3164 124.344V125.551H88.0312V129.078H86.5078V125.551H84.3281V129.078H82.793V125.551H80.5547V124.344H90.3164ZM81.5391 121.18C81.5332 119.709 83.1152 118.771 85.4062 118.766C87.6973 118.771 89.2969 119.709 89.2969 121.18C89.2969 122.615 87.6973 123.529 85.4062 123.523C83.1152 123.529 81.5332 122.615 81.5391 121.18ZM83.0742 121.18C83.0684 121.93 83.9766 122.346 85.4062 122.352C86.8477 122.346 87.75 121.93 87.75 121.18C87.75 120.395 86.8477 119.967 85.4062 119.961C83.9766 119.967 83.0684 120.395 83.0742 121.18ZM42.3516 136.246C42.1113 135.449 41.4727 134.963 40.5469 134.957C39.2344 134.963 38.3438 135.965 38.3438 137.746C38.3438 139.539 39.2051 140.553 40.5586 140.559C41.7715 140.553 42.4922 139.867 42.5156 138.801H40.6758V137.477H44.2148V138.531C44.2148 140.758 42.6855 142.117 40.5469 142.117C38.168 142.117 36.5508 140.453 36.5508 137.77C36.5508 135.016 38.2734 133.398 40.5117 133.398C42.4277 133.398 43.8984 134.576 44.1328 136.246H42.3516ZM45.4688 142V135.637H47.1445V136.738H47.2148C47.4434 135.959 48.0352 135.543 48.75 135.543C48.9258 135.543 49.1484 135.566 49.3008 135.602V137.148C49.1367 137.096 48.8027 137.055 48.5625 137.055C47.7773 137.055 47.1973 137.6 47.2031 138.379V142H45.4688ZM52.8047 142.129C50.8828 142.123 49.6816 140.805 49.6875 138.836C49.6816 136.873 50.8828 135.555 52.8047 135.555C54.7324 135.555 55.9277 136.873 55.9336 138.836C55.9277 140.805 54.7324 142.123 52.8047 142.129ZM51.4453 138.836C51.4453 139.949 51.9082 140.775 52.8164 140.781C53.7012 140.775 54.1699 139.949 54.1641 138.836C54.1699 137.717 53.7012 136.879 52.8164 136.879C51.9082 136.879 51.4453 137.717 51.4453 138.836ZM58.1133 142L56.3789 135.637H58.1367L59.1328 139.938H59.1914L60.2344 135.637H61.957L63.0117 139.914H63.0703L64.0547 135.637H65.8125L64.0664 142H62.2383L61.1367 137.957H61.0547L59.9531 142H58.1133ZM70.043 135.637V136.938H68.8477V140.043C68.8418 140.553 69.0938 140.676 69.4453 140.688C69.6211 140.688 69.9258 140.67 70.1367 140.652V142.023C69.9492 142.053 69.6387 142.088 69.2109 142.082C67.957 142.088 67.1016 141.525 67.1133 140.289V136.938H66.2344V135.637H67.1133V134.113H68.8477V135.637H70.043ZM73.0078 138.32V142H71.2734V133.516H72.9609V136.75H73.0312C73.3242 136.006 73.9629 135.555 74.9297 135.555C76.2598 135.555 77.1328 136.451 77.1328 137.945V142H75.3984V138.25C75.3984 137.459 74.9766 136.996 74.25 136.996C73.5176 136.996 73.0078 137.482 73.0078 138.32ZM80.9297 140.219C80.9355 138.801 82.0723 138.338 83.2969 138.262C83.7539 138.232 84.6094 138.191 84.8789 138.18V137.664C84.873 137.131 84.5098 136.826 83.8594 136.82C83.2676 136.826 82.8984 137.09 82.8047 137.523H81.1523C81.2578 136.422 82.2188 135.555 83.9062 135.555C85.2949 135.555 86.6074 136.176 86.6016 137.711V142H84.9609V141.121H84.9141C84.6035 141.707 83.9941 142.123 83.0508 142.117C81.832 142.123 80.9355 141.479 80.9297 140.219ZM82.5938 140.172C82.5938 140.658 82.9863 140.916 83.543 140.922C84.334 140.916 84.8848 140.4 84.8789 139.727V139.264C84.6152 139.275 83.8711 139.316 83.5781 139.34C82.9746 139.393 82.5938 139.68 82.5938 140.172ZM89.6602 138.32V142H87.9258V135.637H89.5781V136.75H89.6484C89.9355 136.018 90.6152 135.555 91.5586 135.555C92.8887 135.555 93.7559 136.463 93.75 137.945V142H92.0273V138.25C92.0215 137.465 91.5996 136.996 90.8789 136.996C90.1582 136.996 89.6602 137.482 89.6602 138.32ZM97.4414 142.105C95.9883 142.105 94.8516 140.951 94.8516 138.824C94.8516 136.645 96.0352 135.555 97.4414 135.555C98.5078 135.555 99.0176 136.188 99.2461 136.703H99.3047V133.516H101.039V142H99.3281V140.98H99.2461C99.0059 141.508 98.4785 142.105 97.4414 142.105ZM96.6328 138.812C96.627 139.938 97.1016 140.717 97.9805 140.723C98.8477 140.717 99.3398 139.961 99.3398 138.812C99.3398 137.67 98.8535 136.938 97.9805 136.938C97.0957 136.938 96.627 137.705 96.6328 138.812ZM109.84 135.941C109.77 135.268 109.236 134.875 108.375 134.875C107.484 134.875 106.986 135.285 106.98 135.848C106.975 136.463 107.607 136.738 108.34 136.902L109.102 137.09C110.555 137.424 111.639 138.162 111.645 139.574C111.639 141.127 110.432 142.123 108.363 142.117C106.312 142.123 105.006 141.174 104.953 139.352H106.664C106.723 140.207 107.402 140.641 108.34 140.641C109.266 140.641 109.863 140.207 109.863 139.574C109.863 138.994 109.336 138.725 108.41 138.496L107.484 138.273C106.055 137.922 105.176 137.207 105.176 135.965C105.17 134.424 106.529 133.398 108.387 133.398C110.268 133.398 111.504 134.441 111.527 135.941H109.84ZM114.492 138.32V142H112.758V133.516H114.445V136.75H114.516C114.809 136.006 115.447 135.555 116.414 135.555C117.744 135.555 118.617 136.451 118.617 137.945V142H116.883V138.25C116.883 137.459 116.461 136.996 115.734 136.996C115.002 136.996 114.492 137.482 114.492 138.32ZM119.648 140.219C119.654 138.801 120.791 138.338 122.016 138.262C122.473 138.232 123.328 138.191 123.598 138.18V137.664C123.592 137.131 123.229 136.826 122.578 136.82C121.986 136.826 121.617 137.09 121.523 137.523H119.871C119.977 136.422 120.938 135.555 122.625 135.555C124.014 135.555 125.326 136.176 125.32 137.711V142H123.68V141.121H123.633C123.322 141.707 122.713 142.123 121.77 142.117C120.551 142.123 119.654 141.479 119.648 140.219ZM121.312 140.172C121.312 140.658 121.705 140.916 122.262 140.922C123.053 140.916 123.604 140.4 123.598 139.727V139.264C123.334 139.275 122.59 139.316 122.297 139.34C121.693 139.393 121.312 139.68 121.312 140.172ZM126.645 142V135.637H128.32V136.738H128.391C128.619 135.959 129.211 135.543 129.926 135.543C130.102 135.543 130.324 135.566 130.477 135.602V137.148C130.312 137.096 129.979 137.055 129.738 137.055C128.953 137.055 128.373 137.6 128.379 138.379V142H126.645ZM131.32 142V135.637H133.055V142H131.32ZM131.238 133.926C131.238 133.434 131.666 133.041 132.188 133.035C132.703 133.041 133.131 133.434 133.125 133.926C133.131 134.406 132.703 134.805 132.188 134.805C131.666 134.805 131.238 134.406 131.238 133.926ZM136.137 138.32V142H134.402V135.637H136.055V136.75H136.125C136.412 136.018 137.092 135.555 138.035 135.555C139.365 135.555 140.232 136.463 140.227 137.945V142H138.504V138.25C138.498 137.465 138.076 136.996 137.355 136.996C136.635 136.996 136.137 137.482 136.137 138.32ZM144.434 144.52C142.676 144.52 141.592 143.729 141.492 142.527H143.203C143.297 143.037 143.777 143.266 144.469 143.266C145.271 143.266 145.811 142.92 145.816 142.035V140.875H145.734C145.506 141.391 144.943 141.912 143.918 141.906C142.482 141.912 141.328 140.898 141.328 138.777C141.328 136.627 142.512 135.555 143.918 135.555C144.984 135.555 145.5 136.188 145.734 136.703H145.805V135.637H147.527V142.07C147.521 143.693 146.244 144.52 144.434 144.52ZM143.109 138.801C143.104 139.902 143.578 140.6 144.457 140.605C145.324 140.6 145.816 139.932 145.816 138.801C145.816 137.67 145.33 136.938 144.457 136.938C143.572 136.938 143.104 137.705 143.109 138.801Z" fill="white"/>
</svg>
