<svg width="103" height="103" viewBox="0 0 103 103" fill="none" xmlns="http://www.w3.org/2000/svg">
<g filter="url(#filter0_d_341_4230)">
<path d="M94.3333 51.6667C94.3333 75.2308 75.2308 94.3333 51.6667 94.3333C28.1025 94.3333 9 75.2308 9 51.6667C9 28.1025 28.1025 9 51.6667 9C75.2308 9 94.3333 28.1025 94.3333 51.6667Z" fill="#2446AB"/>
</g>
<path d="M35.2855 37.6147C34.9066 37.6147 34.5433 37.7526 34.2754 37.9979C34.0074 38.2431 33.8569 38.5756 33.8569 38.9225V51.9995C33.8569 52.1712 33.8939 52.3413 33.9657 52.5C34.0375 52.6586 34.1427 52.8027 34.2753 52.9241C34.408 53.0456 34.5655 53.142 34.7388 53.2077C34.9121 53.2734 35.0979 53.3072 35.2855 53.3072H41.7141C41.9017 53.3072 42.0874 53.2734 42.2608 53.2077C42.4341 53.142 42.5916 53.0456 42.7242 52.9241C42.8569 52.8027 42.9621 52.6586 43.0339 52.5C43.1057 52.3413 43.1426 52.1712 43.1426 51.9995V38.9225C43.1426 38.5756 42.9921 38.2431 42.7242 37.9979C42.4563 37.7526 42.0929 37.6147 41.7141 37.6147H35.2855ZM38.4579 49.0572C38.649 49.0521 38.8393 49.082 39.0175 49.1455C39.1957 49.2089 39.3581 49.3044 39.4952 49.4263C39.6324 49.5482 39.7413 49.6942 39.8157 49.8554C39.8901 50.0166 39.9284 50.1898 39.9284 50.3648C39.929 50.5369 39.8926 50.7076 39.8211 50.8668C39.7496 51.026 39.6445 51.1706 39.5118 51.2926C39.379 51.4145 39.2213 51.5112 39.0477 51.5772C38.874 51.6432 38.6878 51.6772 38.4998 51.6772C38.3118 51.6772 38.1256 51.6432 37.9519 51.5772C37.7783 51.5112 37.6205 51.4145 37.4878 51.2926C37.3551 51.1706 37.25 51.026 37.1785 50.8668C37.107 50.7076 37.0705 50.5369 37.0712 50.3648C37.0711 50.0245 37.2158 49.6976 37.4747 49.4535C37.7337 49.2093 38.0864 49.0672 38.4579 49.0572Z" fill="white"/>
<path d="M47.5289 62.6779C47.5294 62.42 47.4743 62.1646 47.3669 61.9262C47.2594 61.6878 47.1016 61.4711 46.9026 61.2886C46.7036 61.1061 46.4672 60.9613 46.2069 60.8625C45.9467 60.7637 45.6677 60.7129 45.386 60.7129C45.1043 60.7129 44.8253 60.7637 44.5651 60.8625C44.3049 60.9613 44.0685 61.1061 43.8694 61.2886C43.6704 61.4711 43.5126 61.6878 43.4052 61.9262C43.2977 62.1646 43.2427 62.42 43.2432 62.6779C43.2427 62.9358 43.2977 63.1913 43.4052 63.4297C43.5126 63.6681 43.6704 63.8847 43.8694 64.0673C44.0685 64.2498 44.3049 64.3946 44.5651 64.4934C44.8253 64.5922 45.1043 64.643 45.386 64.643C45.6677 64.643 45.9467 64.5922 46.2069 64.4934C46.4672 64.3946 46.7036 64.2498 46.9026 64.0673C47.1016 63.8847 47.2594 63.6681 47.3669 63.4297C47.4743 63.1913 47.5294 62.9358 47.5289 62.6779Z" fill="white"/>
<path d="M68.9566 62.6778C68.9571 62.4199 68.902 62.1646 68.7946 61.9262C68.6871 61.6878 68.5293 61.4711 68.3303 61.2886C68.1313 61.1061 67.8949 60.9613 67.6346 60.8625C67.3744 60.7637 67.0955 60.7129 66.8138 60.7129C66.532 60.7129 66.2531 60.7637 65.9929 60.8625C65.7326 60.9613 65.4963 61.1061 65.2972 61.2886C65.0982 61.4711 64.9404 61.6878 64.833 61.9262C64.7255 62.1646 64.6704 62.4199 64.6709 62.6778C64.6704 62.9357 64.7255 63.1912 64.833 63.4295C64.9404 63.6679 65.0982 63.8846 65.2972 64.0671C65.4963 64.2496 65.7326 64.3943 65.9929 64.4931C66.2531 64.5918 66.532 64.6427 66.8138 64.6427C67.0955 64.6427 67.3744 64.5918 67.6346 64.4931C67.8949 64.3943 68.1313 64.2496 68.3303 64.0671C68.5293 63.8846 68.6871 63.6679 68.7946 63.4295C68.902 63.1912 68.9571 62.9357 68.9566 62.6778Z" fill="white"/>
<path d="M58.7574 62.6784C58.7574 62.1581 58.5317 61.6592 58.1298 61.2913C57.7279 60.9235 57.1829 60.7168 56.6146 60.7168C56.0462 60.7168 55.5012 60.9235 55.0993 61.2913C54.6974 61.6592 54.4717 62.1581 54.4717 62.6784C54.4717 63.1986 54.6974 63.6976 55.0993 64.0654C55.5012 64.4333 56.0462 64.64 56.6146 64.64C57.1829 64.64 57.7279 64.4333 58.1298 64.0654C58.5317 63.6976 58.7574 63.1986 58.7574 62.6784Z" fill="white"/>
<path d="M37.3287 62.6778C37.3292 62.4199 37.2741 62.1646 37.1666 61.9262C37.0591 61.6878 36.9014 61.4711 36.7023 61.2886C36.5033 61.1061 36.2669 60.9613 36.0067 60.8625C35.7465 60.7637 35.4675 60.7129 35.1858 60.7129C34.9041 60.7129 34.6252 60.7637 34.3649 60.8625C34.1047 60.9613 33.8683 61.1061 33.6693 61.2886C33.4703 61.4711 33.3125 61.6878 33.205 61.9262C33.0976 62.1646 33.0425 62.4199 33.043 62.6778C33.0425 62.9357 33.0976 63.1912 33.205 63.4295C33.3125 63.6679 33.4703 63.8845 33.6693 64.067C33.8683 64.2495 34.1047 64.3943 34.3649 64.4931C34.6252 64.5918 34.9041 64.6427 35.1858 64.6427C35.4675 64.6427 35.7465 64.5918 36.0067 64.4931C36.2669 64.3943 36.5033 64.2495 36.7023 64.067C36.9014 63.8845 37.0591 63.6679 37.1666 63.4295C37.2741 63.1912 37.3292 62.9357 37.3287 62.6778Z" fill="white"/>
<path d="M46.7147 50.039C46.7148 49.9531 46.6964 49.868 46.6605 49.7886C46.6247 49.7092 46.5721 49.637 46.5057 49.5762C46.4394 49.5155 46.3606 49.4672 46.2739 49.4343C46.1872 49.4014 46.0943 49.3845 46.0004 49.3845C45.9066 49.3845 45.8136 49.4014 45.7269 49.4343C45.6402 49.4672 45.5615 49.5155 45.4951 49.5762C45.4288 49.637 45.3762 49.7092 45.3403 49.7886C45.3045 49.868 45.2861 49.9531 45.2861 50.039C45.2861 50.1249 45.3045 50.21 45.3403 50.2894C45.3762 50.3688 45.4288 50.441 45.4951 50.5017C45.5615 50.5625 45.6402 50.6106 45.7269 50.6435C45.8136 50.6764 45.9066 50.6934 46.0004 50.6934C46.0943 50.6934 46.1872 50.6764 46.2739 50.6435C46.3606 50.6106 46.4394 50.5625 46.5057 50.5017C46.5721 50.441 46.6247 50.3688 46.6605 50.2894C46.6964 50.21 46.7148 50.1249 46.7147 50.039Z" fill="white"/>
<path d="M46.7147 47.4233C46.7148 47.3373 46.6964 47.2523 46.6605 47.1729C46.6247 47.0935 46.5721 47.0213 46.5057 46.9605C46.4394 46.8997 46.3606 46.8516 46.2739 46.8187C46.1872 46.7858 46.0943 46.7688 46.0004 46.7688C45.9066 46.7688 45.8136 46.7858 45.7269 46.8187C45.6402 46.8516 45.5615 46.8997 45.4951 46.9605C45.4288 47.0213 45.3762 47.0935 45.3403 47.1729C45.3045 47.2523 45.2861 47.3373 45.2861 47.4233C45.2861 47.5092 45.3045 47.5942 45.3403 47.6736C45.3762 47.753 45.4288 47.8252 45.4951 47.886C45.5615 47.9468 45.6402 47.9951 45.7269 48.028C45.8136 48.0608 45.9066 48.0777 46.0004 48.0777C46.0943 48.0777 46.1872 48.0608 46.2739 48.028C46.3606 47.9951 46.4394 47.9468 46.5057 47.886C46.5721 47.8252 46.6247 47.753 46.6605 47.6736C46.6964 47.5942 46.7148 47.5092 46.7147 47.4233Z" fill="white"/>
<path d="M46.7147 44.808C46.7148 44.7221 46.6964 44.6369 46.6605 44.5575C46.6247 44.4781 46.5721 44.4061 46.5057 44.3453C46.4394 44.2845 46.3606 44.2362 46.2739 44.2033C46.1872 44.1704 46.0943 44.1536 46.0004 44.1536C45.9066 44.1536 45.8136 44.1704 45.7269 44.2033C45.6402 44.2362 45.5615 44.2845 45.4951 44.3453C45.4288 44.4061 45.3762 44.4781 45.3403 44.5575C45.3045 44.6369 45.2861 44.7221 45.2861 44.808C45.2861 44.8939 45.3045 44.979 45.3403 45.0584C45.3762 45.1378 45.4288 45.2099 45.4951 45.2706C45.5615 45.3314 45.6402 45.3797 45.7269 45.4126C45.8136 45.4455 45.9066 45.4623 46.0004 45.4623C46.0943 45.4623 46.1872 45.4455 46.2739 45.4126C46.3606 45.3797 46.4394 45.3314 46.5057 45.2706C46.5721 45.2099 46.6247 45.1378 46.6605 45.0584C46.6964 44.979 46.7148 44.8939 46.7147 44.808Z" fill="white"/>
<path d="M46.7147 42.1921C46.7148 42.1061 46.6964 42.0211 46.6605 41.9417C46.6247 41.8623 46.5721 41.7901 46.5057 41.7293C46.4394 41.6685 46.3606 41.6203 46.2739 41.5874C46.1872 41.5545 46.0943 41.5376 46.0004 41.5376C45.9066 41.5376 45.8136 41.5545 45.7269 41.5874C45.6402 41.6203 45.5615 41.6685 45.4951 41.7293C45.4288 41.7901 45.3762 41.8623 45.3403 41.9417C45.3045 42.0211 45.2861 42.1061 45.2861 42.1921C45.2861 42.278 45.3045 42.363 45.3403 42.4424C45.3762 42.5218 45.4288 42.594 45.4951 42.6548C45.5615 42.7156 45.6402 42.7637 45.7269 42.7966C45.8136 42.8295 45.9066 42.8465 46.0004 42.8465C46.0943 42.8465 46.1872 42.8295 46.2739 42.7966C46.3606 42.7637 46.4394 42.7156 46.5057 42.6548C46.5721 42.594 46.6247 42.5218 46.6605 42.4424C46.6964 42.363 46.7148 42.278 46.7147 42.1921Z" fill="white"/>
<path d="M46.7147 39.5773C46.7148 39.4914 46.6964 39.4063 46.6605 39.3269C46.6247 39.2475 46.5721 39.1753 46.5057 39.1146C46.4394 39.0538 46.3606 39.0055 46.2739 38.9726C46.1872 38.9397 46.0943 38.9229 46.0004 38.9229C45.9066 38.9229 45.8136 38.9397 45.7269 38.9726C45.6402 39.0055 45.5615 39.0538 45.4951 39.1146C45.4288 39.1753 45.3762 39.2475 45.3403 39.3269C45.3045 39.4063 45.2861 39.4914 45.2861 39.5773C45.2861 39.6632 45.3045 39.7483 45.3403 39.8277C45.3762 39.9071 45.4288 39.9793 45.4951 40.0401C45.5615 40.1008 45.6402 40.149 45.7269 40.1819C45.8136 40.2147 45.9066 40.2318 46.0004 40.2318C46.0943 40.2318 46.1872 40.2147 46.2739 40.1819C46.3606 40.149 46.4394 40.1008 46.5057 40.0401C46.5721 39.9793 46.6247 39.9071 46.6605 39.8277C46.6964 39.7483 46.7148 39.6632 46.7147 39.5773Z" fill="white"/>
<path d="M61.5259 40.8851C61.526 40.6501 61.4755 40.4174 61.3774 40.2002C61.2792 39.9831 61.1353 39.7857 60.9538 39.6195C60.7723 39.4533 60.5568 39.3214 60.3197 39.2314C60.0825 39.1415 59.8283 39.0952 59.5715 39.0952C59.3148 39.0952 59.0606 39.1415 58.8234 39.2314C58.5862 39.3214 58.3707 39.4533 58.1892 39.6195C58.0077 39.7857 57.8638 39.9831 57.7657 40.2002C57.6675 40.4174 57.6171 40.6501 57.6172 40.8851C57.6171 41.1202 57.6675 41.3529 57.7657 41.5701C57.8638 41.7872 58.0077 41.9846 58.1892 42.1508C58.3707 42.317 58.5862 42.4488 58.8234 42.5387C59.0606 42.6287 59.3148 42.6751 59.5715 42.6751C59.8283 42.6751 60.0825 42.6287 60.3197 42.5387C60.5568 42.4488 60.7723 42.317 60.9538 42.1508C61.1353 41.9846 61.2792 41.7872 61.3774 41.5701C61.4755 41.3529 61.526 41.1202 61.5259 40.8851Z" fill="white"/>
<path d="M56.0527 55.9234H31V35H70.9999V55.9234H63.3074C63.3887 55.6947 63.43 55.4557 63.43 55.2152V54.6155H69.5713V36.3079H32.4284V54.6155H55.93V55.2152C55.93 55.4557 55.9715 55.6947 56.0527 55.9234Z" fill="white"/>
<path d="M50.6596 45.4551L50.6651 45.4601H48.1416V44.1523H50.0529C50.0865 44.6365 50.3015 45.0974 50.6596 45.4551Z" fill="white"/>
<path d="M51.7126 44.5712C51.5526 44.4114 51.4685 44.2 51.4789 43.9834C51.4892 43.7669 51.5931 43.5629 51.7677 43.4165C51.9422 43.27 52.1732 43.193 52.4098 43.2024C52.6463 43.2119 52.8691 43.3071 53.0291 43.4668L54.5617 44.9976L56.9804 43.8104C57.3956 43.6067 57.8595 43.5 58.3306 43.5H61.2872C61.6624 43.5 62.0339 43.5677 62.3806 43.6991C62.7272 43.8306 63.0422 44.0232 63.3075 44.2661C63.5728 44.509 63.7833 44.7972 63.9268 45.1145C64.0704 45.4319 64.1443 45.772 64.1443 46.1155V49.2961C64.1426 49.5118 64.0477 49.718 63.8805 49.87C63.7132 50.0219 63.4871 50.1073 63.2515 50.1073C63.0159 50.1073 62.7898 50.0219 62.6225 49.87C62.4553 49.718 62.3604 49.5118 62.3587 49.2961V45.8506C62.3586 45.8073 62.3397 45.7657 62.3062 45.7351C62.2727 45.7044 62.2273 45.6873 62.1799 45.6873C62.1326 45.6873 62.0872 45.7044 62.0537 45.7351C62.0202 45.7657 62.0013 45.8073 62.0012 45.8506V55.2152C62.0012 55.4753 61.8883 55.7248 61.6874 55.9087C61.4865 56.0927 61.2139 56.1959 60.9298 56.1959C60.6456 56.1959 60.3731 56.0927 60.1722 55.9087C59.9712 55.7248 59.8583 55.4753 59.8583 55.2152V50.4694C59.8566 50.4271 59.837 50.3871 59.8038 50.3578C59.7705 50.3285 59.7261 50.3121 59.6799 50.3121C59.6337 50.3121 59.5893 50.3285 59.556 50.3578C59.5228 50.3871 59.5032 50.4271 59.5014 50.4694V55.2152C59.5012 55.4752 59.3882 55.7244 59.1873 55.9081C58.9863 56.0919 58.714 56.195 58.43 56.195C58.146 56.195 57.8737 56.0919 57.6728 55.9081C57.4719 55.7244 57.3589 55.4752 57.3586 55.2152V45.4797L55.6501 46.3183C55.2304 46.5244 54.7478 46.5965 54.2783 46.5235C53.8088 46.4504 53.3793 46.2364 53.0576 45.915L51.7126 44.5712Z" fill="white"/>
<path d="M52.4288 41.5388V42.8465H48.1431V41.5388H52.4288Z" fill="white"/>
<path d="M52.4288 46.7698V48.0775H48.1431V46.7698H52.4288Z" fill="white"/>
<path d="M48.1431 38.9229V40.2306H53.8573V38.9229H48.1431Z" fill="white"/>
<path d="M48.1431 49.3845V50.6922H53.8573V49.3845H48.1431Z" fill="white"/>
<path d="M38.2754 66.7863C38.0607 66.4946 37.7839 66.2456 37.4616 66.054C37.1394 65.8625 36.7782 65.7323 36.3997 65.6715C35.5965 65.5424 34.7749 65.5424 33.9718 65.6715C33.5933 65.7323 33.2321 65.8625 32.9098 66.054C32.5876 66.2456 32.3108 66.4946 32.0961 66.7863C31.5982 67.4629 31.2277 68.2112 31 68.9999H39.3715C39.1438 68.2112 38.7733 67.4629 38.2754 66.7863Z" fill="white"/>
<path d="M48.4757 66.7863C48.261 66.4946 47.9842 66.2456 47.6619 66.054C47.3397 65.8625 46.9785 65.7323 46.6 65.6715C45.7968 65.5424 44.9752 65.5424 44.172 65.6715C43.7936 65.7323 43.4324 65.8625 43.1101 66.054C42.7878 66.2456 42.511 66.4946 42.2964 66.7863C41.7984 67.4629 41.4279 68.2112 41.2002 68.9999H49.5718C49.3441 68.2112 48.9736 67.4629 48.4757 66.7863Z" fill="white"/>
<path d="M59.7041 66.7863C59.4894 66.4946 59.2127 66.2456 58.8904 66.054C58.5681 65.8625 58.2069 65.7323 57.8284 65.6715C57.0252 65.5424 56.2037 65.5424 55.4005 65.6715C55.022 65.7323 54.6608 65.8625 54.3386 66.054C54.0163 66.2456 53.7395 66.4946 53.5248 66.7863C53.0269 67.4629 52.6564 68.2112 52.4287 68.9999H60.8002C60.5725 68.2112 60.202 67.4629 59.7041 66.7863Z" fill="white"/>
<path d="M69.9034 66.7863C69.6887 66.4946 69.4119 66.2456 69.0896 66.054C68.7674 65.8625 68.4062 65.7323 68.0277 65.6715C67.2246 65.5424 66.403 65.5424 65.5998 65.6715C65.2213 65.7323 64.8601 65.8625 64.5378 66.054C64.2155 66.2456 63.9388 66.4946 63.7241 66.7863C63.2262 67.4629 62.8557 68.2112 62.6279 68.9999H70.9995C70.7718 68.2112 70.4013 67.4629 69.9034 66.7863Z" fill="white"/>
<defs>
<filter id="filter0_d_341_4230" x="0.976744" y="0.976744" width="101.38" height="101.38" filterUnits="userSpaceOnUse" color-interpolation-filters="sRGB">
<feFlood flood-opacity="0" result="BackgroundImageFix"/>
<feColorMatrix in="SourceAlpha" type="matrix" values="0 0 0 0 0 0 0 0 0 0 0 0 0 0 0 0 0 0 127 0" result="hardAlpha"/>
<feOffset/>
<feGaussianBlur stdDeviation="4.01163"/>
<feComposite in2="hardAlpha" operator="out"/>
<feColorMatrix type="matrix" values="0 0 0 0 0 0 0 0 0 0 0 0 0 0 0 0 0 0 0.25 0"/>
<feBlend mode="normal" in2="BackgroundImageFix" result="effect1_dropShadow_341_4230"/>
<feBlend mode="normal" in="SourceGraphic" in2="effect1_dropShadow_341_4230" result="shape"/>
</filter>
</defs>
</svg>
