<svg width="112" height="112" viewBox="0 0 112 112" fill="none" xmlns="http://www.w3.org/2000/svg">
<path d="M111.333 56.0001C111.333 86.5598 86.5596 111.333 55.9998 111.333C25.4401 111.333 0.666504 86.5598 0.666504 56.0001C0.666504 25.4403 25.4401 0.666748 55.9998 0.666748C86.5596 0.666748 111.333 25.4403 111.333 56.0001Z" fill="#3366FF"/>
<path d="M59.3507 55.528C59.1378 55.528 58.9817 55.6484 58.8824 55.889C58.7759 56.1296 58.7262 56.4269 58.7262 56.7878C58.7262 57.1558 58.7759 57.4602 58.8824 57.7008C58.9888 57.9485 59.1449 58.0688 59.3507 58.0688C59.5565 58.0688 59.7197 57.9485 59.8262 57.7008C59.9326 57.4531 59.9894 57.1488 59.9894 56.7878C59.9894 56.4269 59.9326 56.1296 59.8262 55.889C59.7197 55.6484 59.5636 55.528 59.3507 55.528Z" fill="white"/>
<path d="M62.4375 55.528C62.2247 55.528 62.0685 55.6484 61.9692 55.889C61.8628 56.1296 61.8131 56.4269 61.8131 56.7878C61.8131 57.1558 61.8628 57.4602 61.9692 57.7008C62.0756 57.9485 62.2318 58.0688 62.4375 58.0688C62.6433 58.0688 62.8066 57.9485 62.913 57.7008C63.0194 57.4531 63.0762 57.1488 63.0762 56.7878C63.0762 56.4269 63.0194 56.1296 62.913 55.889C62.8066 55.6484 62.6504 55.528 62.4375 55.528Z" fill="white"/>
<path d="M66.2488 32.9446H43.4132C41.9869 32.9446 40.8302 34.0982 40.8302 35.5208V58.2956C40.8302 59.7182 41.9869 60.8718 43.4132 60.8718H66.2488C67.6751 60.8718 68.8318 59.7182 68.8318 58.2956V35.5208C68.8318 34.0982 67.6751 32.9446 66.2488 32.9446ZM57.6766 57.9842L57.6695 58.6212L55.1645 58.6283C55.1645 58.3593 55.2 58.0975 55.2781 57.8427C55.3561 57.5879 55.569 57.3331 55.9167 57.0925L56.527 56.6537C56.6263 56.5829 56.7257 56.5051 56.8179 56.4201C56.9173 56.3352 56.967 56.2149 56.9741 56.0734C56.9812 55.9318 56.9386 55.8044 56.8463 55.6912C56.7541 55.5779 56.6192 55.5213 56.4489 55.5213C56.2644 55.5213 56.1296 55.585 56.0303 55.7195C55.9309 55.854 55.8883 56.0167 55.8883 56.2007H55.2071C55.1929 55.8823 55.2923 55.5779 55.5051 55.309C55.718 55.033 56.0374 54.8985 56.4489 54.8985C56.8463 54.8985 57.1515 55.0188 57.3643 55.2595C57.5772 55.5001 57.6908 55.769 57.6908 56.0663C57.6908 56.3565 57.6127 56.5829 57.4566 56.7386C57.3005 56.8943 57.1444 57.0288 56.9953 57.142L56.307 57.6516C56.2148 57.7153 56.1509 57.7719 56.1012 57.8215C56.0515 57.871 56.0161 57.9276 55.9877 57.9913L57.6766 57.9842ZM60.3731 58.1753C60.139 58.5363 59.7983 58.7132 59.3584 58.7132C58.9184 58.7132 58.5849 58.5363 58.3578 58.1753C58.1307 57.8144 58.0101 57.3544 58.0101 56.7882C58.0101 56.2291 58.1236 55.769 58.3578 55.4152C58.5849 55.0613 58.9184 54.8844 59.3584 54.8844C59.8054 54.8844 60.1461 55.0613 60.3731 55.4152C60.6073 55.769 60.7208 56.2291 60.7208 56.7882C60.7208 57.3544 60.6073 57.8215 60.3731 58.1753ZM63.46 58.1753C63.2258 58.5363 62.8852 58.7132 62.4452 58.7132C62.0052 58.7132 61.6717 58.5363 61.4447 58.1753C61.2176 57.8144 61.0969 57.3544 61.0969 56.7882C61.0969 56.2291 61.2105 55.769 61.4447 55.4152C61.6717 55.0613 62.0052 54.8844 62.4452 54.8844C62.8923 54.8844 63.2329 55.0613 63.46 55.4152C63.6941 55.769 63.8077 56.2291 63.8077 56.7882C63.8077 57.3544 63.687 57.8215 63.46 58.1753ZM66.2488 56.038C66.0998 56.2149 65.9578 56.4555 65.8088 56.7669C65.6598 57.0783 65.5392 57.4251 65.454 57.8002C65.3618 58.1753 65.3192 58.4655 65.3121 58.6637H64.5528C64.5599 58.4938 64.6025 58.239 64.6734 57.8922C64.7444 57.5525 64.865 57.2128 65.0282 56.8731C65.1631 56.5971 65.3121 56.3494 65.4682 56.13C65.6243 55.9106 65.7449 55.7549 65.823 55.6487L64.0348 55.6416V54.9764H66.5894L66.5965 55.6416C66.5113 55.7336 66.3907 55.8681 66.2488 56.038ZM67.5616 35.082L66.4262 45.2167C66.2843 45.7971 66.1139 45.9598 65.7166 45.9174C65.0708 45.8537 65.085 45.2592 65.085 45.2592C65.085 45.2592 65.3688 38.9674 65.3759 38.8825C65.4043 38.6419 65.2411 38.4933 65.0495 38.6773C61.7143 42.0036 44.0022 58.4372 43.2004 59.244C42.9378 59.4846 42.7462 59.5412 42.512 59.3077C42.1643 58.9609 42.5546 58.6 42.5546 58.6C42.5546 58.6 63.0839 36.8938 63.169 36.8089C63.3535 36.639 63.2613 36.4267 62.9987 36.455C60.7776 36.455 58.9894 36.8301 56.7754 36.7805C56.3851 36.7735 56.0161 36.6532 55.9735 36.1931C55.9664 35.5349 56.4986 35.5066 56.4986 35.5066L66.8448 34.3813C67.7177 34.2398 67.5616 35.082 67.5616 35.082Z" fill="white"/>
<path d="M20.0158 72.6766C19.6239 73.2149 19.081 73.6026 18.3903 73.8461L21.2944 77.9697H19.0553L16.3695 74.0351H16.2667V77.9697H14.4998V67.7328H16.8803C17.4522 67.7328 17.873 67.752 18.1461 67.7873C18.5637 67.8514 18.9171 67.9763 19.2095 68.1621C19.6271 68.4024 19.9612 68.7709 20.2086 69.2643C20.4656 69.7385 20.5941 70.2544 20.5941 70.8087C20.5909 71.5264 20.3981 72.148 20.0158 72.6766ZM18.3903 69.7994C18.1268 69.5943 17.6867 69.4918 17.0731 69.4918H16.2667V72.2729H17.0346C17.6642 72.2729 18.114 72.1704 18.3774 71.9653C18.6601 71.7603 18.7982 71.4046 18.7982 70.9048C18.7982 70.3825 18.6633 70.0173 18.3903 69.7994Z" fill="white"/>
<path d="M21.6312 72.4748C21.8111 72.0006 22.0713 71.5648 22.4118 71.1707C22.7877 70.751 23.215 70.4274 23.6905 70.2031C24.1756 69.9788 24.6799 69.8667 25.2004 69.8667C25.7304 69.8667 26.2284 69.966 26.6974 70.1615C27.1664 70.3665 27.5937 70.6709 27.976 71.0746C28.3358 71.4591 28.6153 71.9044 28.8209 72.4043C29.0265 72.9073 29.1293 73.4167 29.1293 73.9358C29.1293 74.4645 29.0297 74.9835 28.8338 75.493C28.6539 75.996 28.4065 76.4317 28.0917 76.8098C27.6997 77.2392 27.2628 77.5724 26.7874 77.8031C26.2926 78.037 25.785 78.1523 25.2646 78.1523C24.7088 78.1523 24.1948 78.0498 23.7162 77.8447C23.2375 77.63 22.8231 77.3257 22.4761 76.9316C22.1163 76.5471 21.84 76.0953 21.644 75.5763C21.4577 75.0668 21.3613 74.551 21.3613 74.0319C21.3613 73.4872 21.4513 72.9682 21.6312 72.4748ZM23.7162 75.7108C24.1177 76.1594 24.6317 76.3837 25.2646 76.3837C25.8686 76.3837 26.3697 76.1594 26.7617 75.7108C27.1632 75.2719 27.3624 74.7048 27.3624 74.0031C27.3624 73.2854 27.1632 72.7087 26.7617 72.2697C26.3601 71.85 25.8525 71.6385 25.2389 71.6385C24.6317 71.6385 24.1306 71.8532 23.729 72.2825C23.321 72.7311 23.1154 73.3078 23.1154 74.0159C23.1154 74.708 23.3146 75.2719 23.7162 75.7108Z" fill="white"/>
<path d="M32.8303 77.928C32.4705 77.7935 32.13 77.598 31.8055 77.3385V77.9697H30.0803V67.7328H31.783V70.7158C32.1235 70.4466 32.4769 70.2512 32.8464 70.1262C33.2126 70.0013 33.6045 69.9372 34.0222 69.9372C34.5683 69.9372 35.0663 70.0365 35.5192 70.2319C35.9786 70.4306 36.393 70.7286 36.7593 71.1323C37.0998 71.5168 37.3665 71.9557 37.5528 72.4491C37.7487 72.9426 37.8483 73.4616 37.8483 74.0063C37.8483 75.1629 37.4725 76.137 36.7239 76.9348C35.9722 77.7326 35.047 78.1299 33.9483 78.1299C33.5596 78.1299 33.1869 78.0626 32.8303 77.928ZM32.3838 75.7237C32.811 76.1786 33.3122 76.4093 33.8937 76.4093C34.5073 76.4093 35.0245 76.1818 35.4421 75.7237C35.8758 75.2655 36.0943 74.6952 36.0943 74.0031C36.0943 73.3302 35.8758 72.776 35.4421 72.337C35.0245 71.9077 34.5137 71.693 33.9065 71.693C33.2993 71.693 32.795 71.9141 32.3838 72.3498C31.9661 72.808 31.7573 73.3847 31.7573 74.0832C31.7541 74.7144 31.9629 75.2591 32.3838 75.7237Z" fill="white"/>
<path d="M38.8092 72.4748C38.9891 72.0006 39.2493 71.5648 39.5898 71.1707C39.9657 70.751 40.393 70.4274 40.8684 70.2031C41.3535 69.9788 41.8579 69.8667 42.3783 69.8667C42.9084 69.8667 43.4063 69.966 43.8754 70.1615C44.3444 70.3665 44.7717 70.6709 45.154 71.0746C45.5138 71.4591 45.7933 71.9044 45.9989 72.4043C46.2045 72.9073 46.3073 73.4167 46.3073 73.9358C46.3073 74.4645 46.2077 74.9835 46.0117 75.493C45.8318 75.996 45.5845 76.4317 45.2696 76.8098C44.8777 77.2392 44.4408 77.5724 43.9653 77.8031C43.4706 78.037 42.963 78.1523 42.4426 78.1523C41.8868 78.1523 41.3728 78.0498 40.8941 77.8447C40.4154 77.63 40.001 77.3257 39.6541 76.9316C39.2943 76.5471 39.018 76.0953 38.822 75.5763C38.6357 75.0668 38.5393 74.551 38.5393 74.0319C38.5425 73.4872 38.6293 72.9682 38.8092 72.4748ZM40.8941 75.7108C41.2957 76.1594 41.8097 76.3837 42.4426 76.3837C43.0465 76.3837 43.5477 76.1594 43.9396 75.7108C44.3412 75.2719 44.5404 74.7048 44.5404 74.0031C44.5404 73.2854 44.3412 72.7087 43.9396 72.2697C43.5381 71.85 43.0305 71.6385 42.4169 71.6385C41.8097 71.6385 41.3085 71.8532 40.907 72.2825C40.499 72.7311 40.2934 73.3078 40.2934 74.0159C40.2934 74.708 40.4958 75.2719 40.8941 75.7108Z" fill="white"/>
<path d="M47.6693 71.7891H46.6831V70.123H47.6693V67.7328H49.3559V70.123H50.3679V71.7891H49.3559V77.9697H47.6661V71.7891H47.6693Z" fill="white"/>
<path d="M54.4058 77.9665V67.7328H56.1213L60.304 74.4773V67.7328H62.0709V77.9697H60.4325L56.1984 71.0362V77.9665H54.4058Z" fill="white"/>
<path d="M73.9131 77.3899C73.1614 77.8994 72.2972 78.1557 71.3174 78.1557C70.5913 78.1557 69.9135 78.0019 69.2838 77.6975C68.6541 77.4027 68.0952 76.967 67.6068 76.3935C67.2053 75.9 66.9001 75.349 66.6848 74.7402C66.4728 74.1122 66.3636 73.4586 66.3636 72.7793C66.3636 72.0616 66.4921 71.3856 66.7459 70.7512C67.0029 70.1072 67.3755 69.524 67.8703 69.005C68.3393 68.5212 68.863 68.1559 69.4444 67.9028C70.0323 67.6529 70.6588 67.5279 71.3238 67.5279C72.3229 67.5279 73.1999 67.7906 73.9581 68.3193C74.742 68.864 75.3588 69.6618 75.8021 70.7095H73.7814C73.4666 70.2513 73.1035 69.9181 72.6923 69.7035C72.2908 69.5048 71.8314 69.4087 71.3109 69.4087C70.8837 69.4087 70.4917 69.4856 70.1351 69.6362C69.7689 69.7964 69.4444 70.0335 69.1617 70.3475C68.8373 70.6775 68.5931 71.0556 68.4325 71.4753C68.2718 71.895 68.1883 72.334 68.1883 72.7921C68.1883 73.2759 68.2622 73.7277 68.4068 74.1474C68.561 74.5672 68.7859 74.9356 69.0846 75.2496C69.3738 75.5796 69.7143 75.836 70.1094 76.0154C70.4917 76.1948 70.8933 76.2845 71.3109 76.2845C71.8153 76.2845 72.2619 76.182 72.6538 75.9769C73.0554 75.7719 73.4055 75.4611 73.7043 75.051H75.8149C75.3266 76.0827 74.6905 76.8613 73.9131 77.3899Z" fill="white"/>
<path d="M76.7202 72.4748C76.9001 72.0006 77.1604 71.5648 77.5009 71.1707C77.8768 70.751 78.304 70.4274 78.7795 70.2031C79.2646 69.9788 79.769 69.8667 80.2894 69.8667C80.8195 69.8667 81.3174 69.966 81.7865 70.1615C82.2555 70.3665 82.6828 70.6709 83.0651 71.0746C83.4249 71.4591 83.7044 71.9044 83.91 72.4043C84.1156 72.9073 84.2184 73.4167 84.2184 73.9358C84.2184 74.4645 84.1188 74.9835 83.9228 75.493C83.7429 75.996 83.4955 76.4317 83.1807 76.8098C82.7888 77.2392 82.3519 77.5724 81.8764 77.8031C81.3817 78.037 80.8741 78.1523 80.3537 78.1523C79.7979 78.1523 79.2839 78.0498 78.8052 77.8447C78.3265 77.63 77.9153 77.3257 77.5651 76.9316C77.2086 76.5471 76.9291 76.0953 76.7331 75.5763C76.5468 75.0668 76.4504 74.551 76.4504 74.0319C76.4504 73.4872 76.5403 72.9682 76.7202 72.4748ZM78.8052 75.7108C79.2068 76.1594 79.7208 76.3837 80.3537 76.3837C80.9576 76.3837 81.4588 76.1594 81.8507 75.7108C82.2523 75.2719 82.4515 74.7048 82.4515 74.0031C82.4515 73.2854 82.2523 72.7087 81.8507 72.2697C81.4491 71.85 80.9416 71.6385 80.328 71.6385C79.7208 71.6385 79.2196 71.8532 78.8181 72.2825C78.4101 72.7311 78.2045 73.3078 78.2045 74.0159C78.2045 74.708 78.4036 75.2719 78.8052 75.7108Z" fill="white"/>
<path d="M95.4565 77.967H93.7538V73.4269C93.7538 72.8277 93.6414 72.3792 93.4197 72.0844C93.2077 71.8056 92.8896 71.6679 92.472 71.6679C91.9676 71.6679 91.6239 71.8345 91.4344 72.1645C91.2545 72.4881 91.1645 73.0552 91.1645 73.869V77.967H89.4875V74.0068C89.4875 73.1642 89.388 72.5682 89.192 72.219C88.996 71.8505 88.6587 71.6679 88.18 71.6679C87.6757 71.6679 87.3191 71.8473 87.1038 72.2061C86.8982 72.5554 86.7954 73.1385 86.7954 73.9523V77.9702H85.157V70.1235H86.7183V70.6201C86.956 70.3959 87.2098 70.2357 87.4733 70.1363C87.7303 70.0466 88.0098 70.0018 88.3182 70.0018C88.7711 70.0018 89.1663 70.0819 89.5068 70.2421C89.857 70.4119 90.159 70.681 90.416 71.0495C90.6794 70.6906 90.9942 70.4215 91.3637 70.2421C91.7235 70.0819 92.1347 70.0018 92.6037 70.0018C93.4294 70.0018 94.1104 70.2933 94.6373 70.8733C95.1738 71.466 95.4436 72.2478 95.4436 73.225" fill="white"/>
</svg>
