<svg width="68" height="68" viewBox="0 0 68 68" fill="none" xmlns="http://www.w3.org/2000/svg">
<g filter="url(#filter0_d_307_3853)">
<path d="M58 34C58 47.2548 47.2548 58 34 58C20.7452 58 10 47.2548 10 34C10 20.7452 20.7452 10 34 10C47.2548 10 58 20.7452 58 34Z" fill="#FDD015"/>
</g>
<path fill-rule="evenodd" clip-rule="evenodd" d="M34.5 17C33.1223 17 32 17.8016 32 18.7857C32 19.2836 32.2877 19.7344 32.75 20.0587V21.8214C32.75 21.8519 32.7609 21.8818 32.7816 21.9084C32.8024 21.935 32.8323 21.9573 32.8686 21.9733C32.9048 21.9893 32.9462 21.9984 32.9888 21.9998C33.0313 22.0012 33.0737 21.9948 33.1118 21.9812L34.5 21.4852L35.8882 21.9812C35.9263 21.9948 35.9687 22.0012 36.0112 21.9998C36.0538 21.9984 36.0952 21.9893 36.1314 21.9733C36.1677 21.9573 36.1976 21.935 36.2184 21.9084C36.2391 21.8818 36.25 21.8519 36.25 21.8214V20.0587C36.7123 19.7344 37 19.2836 37 18.7857C37 17.8016 35.8777 17 34.5 17ZM34.5 17.6885C34.5472 17.6885 34.5934 17.698 34.6333 17.7159C34.6732 17.7338 34.7052 17.7593 34.7256 17.7896L35.0811 18.3135L35.8901 18.3923C35.9368 18.3968 35.9808 18.4106 36.017 18.4321C36.0532 18.4536 36.0802 18.4819 36.0947 18.5138C36.1093 18.5457 36.111 18.5799 36.0995 18.6125C36.088 18.645 36.0638 18.6746 36.0298 18.6978L35.4399 19.1L35.585 19.6726C35.5933 19.7057 35.5885 19.7397 35.5709 19.7709C35.5533 19.802 35.5237 19.829 35.4856 19.8487C35.4474 19.8684 35.4022 19.88 35.3552 19.8823C35.3082 19.8845 35.2612 19.8772 35.2197 19.8613L34.5 19.5861L33.7803 19.8613C33.7246 19.8826 33.6597 19.888 33.5986 19.8767C33.5376 19.8654 33.4847 19.8381 33.4507 19.8003C33.4166 19.7624 33.4039 19.7169 33.415 19.6726L33.5601 19.0999L32.9702 18.6978C32.9362 18.6746 32.912 18.645 32.9005 18.6125C32.889 18.5799 32.8907 18.5457 32.9053 18.5138C32.9198 18.4819 32.9468 18.4536 32.983 18.4321C33.0192 18.4106 33.0632 18.3968 33.1099 18.3923L33.9189 18.3135L34.2744 17.7896C34.2948 17.7593 34.3268 17.7338 34.3667 17.7159C34.4066 17.698 34.4528 17.6885 34.5 17.6885ZM33.25 20.3308C33.6181 20.4834 34.0449 20.5714 34.5 20.5714C34.9551 20.5714 35.3819 20.4834 35.75 20.3308V21.5326L34.6118 21.126C34.5771 21.1136 34.5388 21.1071 34.5 21.1071C34.4612 21.1071 34.4229 21.1136 34.3882 21.126L33.25 21.5326V20.3308Z" fill="white"/>
<path d="M35.5106 30.2334V28.7667C35.919 28.7667 36.2532 29.0967 36.2532 29.5H36.9958C36.9958 28.6934 36.3274 28.0334 35.5106 28.0334V27.3H34.7679V28.0334C33.9511 28.0334 33.2827 28.6934 33.2827 29.5C33.2827 30.3067 33.9511 30.9667 34.7679 30.9667V32.4334C34.3595 32.4334 34.0253 32.1034 34.0253 31.7H33.2827C33.2827 32.5067 33.9511 33.1667 34.7679 33.1667V33.9H35.5106V33.1667C36.3274 33.1667 36.9958 32.5067 36.9958 31.7C36.9958 30.8934 36.3274 30.2334 35.5106 30.2334ZM34.0253 29.5C34.0253 29.0967 34.3595 28.7667 34.7679 28.7667V30.2334C34.3595 30.2334 34.0253 29.9034 34.0253 29.5ZM35.5106 32.4334V30.9667C35.919 30.9667 36.2532 31.2967 36.2532 31.7C36.2532 32.1034 35.919 32.4334 35.5106 32.4334Z" fill="white"/>
<path d="M30.9067 32.8733L29.6442 34.5233L31.1666 36.0266L32.8375 34.78C33.1345 34.9266 33.4687 35.0733 33.8029 35.1833L34.0999 37.2H36.2164L36.5134 35.1833C36.8476 35.0733 37.1818 34.9633 37.4788 34.78L39.1497 36.0266L40.672 34.5233L39.4096 32.8733C39.5581 32.58 39.7066 32.25 39.818 31.92L41.8602 31.6267V29.5367L39.818 29.2433C39.7066 28.9133 39.5953 28.5833 39.4096 28.29L40.672 26.64L39.1497 25.1367L37.4788 26.3833C37.1818 26.2367 36.8476 26.09 36.5134 25.98L36.2164 24H34.0999L33.8029 26.0167C33.4687 26.1267 33.1345 26.2367 32.8375 26.42L31.1666 25.1733L29.6442 26.6767L30.9067 28.3267C30.7582 28.62 30.6096 28.95 30.4982 29.28L28.4561 29.5367V31.6267L30.4982 31.92C30.6096 32.2867 30.7582 32.58 30.9067 32.8733ZM39.9294 30.0133L41.0805 30.16V31.0033L39.9294 31.15C39.9666 30.9667 39.9666 30.7833 39.9666 30.5633C39.9666 30.3433 39.9666 30.1967 39.9294 30.0133ZM35.548 36.4666H34.694L34.5455 35.33C34.7311 35.3666 34.9168 35.3666 35.1396 35.3666C35.3624 35.3666 35.548 35.3666 35.7337 35.33L35.548 36.4666ZM39.6324 34.45L39.0383 35.0366L38.11 34.34C38.4071 34.0833 38.7041 33.8266 38.9269 33.5333L39.6324 34.45ZM39.0383 26.1633L39.6324 26.75L38.9269 27.6667C38.667 27.3733 38.4071 27.08 38.11 26.86L39.0383 26.1633ZM34.7311 24.7333H35.5851L35.7337 25.87C35.548 25.8333 35.3252 25.8333 35.1396 25.8333C34.9539 25.8333 34.7311 25.8333 34.5455 25.87L34.7311 24.7333ZM35.1396 26.5667C37.4045 26.5667 39.224 28.3633 39.224 30.6C39.224 32.8366 37.4045 34.6333 35.1396 34.6333C32.8746 34.6333 31.0552 32.8366 31.0552 30.6C31.0552 28.3633 32.8746 26.5667 35.1396 26.5667ZM30.6468 26.75L31.2409 26.1633L32.1691 26.86C31.8721 27.1167 31.575 27.3733 31.3522 27.6667L30.6468 26.75ZM31.3522 33.5333C31.6122 33.8266 31.8721 34.12 32.1691 34.34L31.2409 35.0366L30.6468 34.45L31.3522 33.5333ZM30.3497 31.1867L29.1987 31.0033V30.16L30.3497 30.0133C30.3126 30.1967 30.3126 30.4167 30.3126 30.6C30.3126 30.7833 30.3126 31.0033 30.3497 31.1867Z" fill="white"/>
<path d="M45.87 38.1167C45.5729 37.53 44.9046 37.2734 44.3105 37.4934L35.659 40.6467C35.7704 40.5 35.8447 40.3534 35.9189 40.2067V40.17C36.1789 39.4 35.8076 38.5567 35.0649 38.2267L29.7553 35.9534C28.3072 35.33 26.5991 35.8067 25.708 37.0534L24 39.3634V40.61L26.265 37.4934C26.9705 36.5034 28.3072 36.1367 29.4211 36.6134L34.7308 38.8867C35.1392 39.07 35.3249 39.4734 35.2135 39.9134C35.1392 40.1334 34.9907 40.3167 34.7679 40.39C34.5451 40.5 34.3223 40.5 34.0995 40.4267L28.9384 38.63L28.6785 39.3267L34.7679 41.49C35.0278 41.5634 35.2877 41.5634 35.5105 41.49L44.5333 38.19C44.7932 38.1167 45.0531 38.19 45.1645 38.4467C45.2759 38.7034 45.2016 38.9967 44.9417 39.1434L35.3991 44.2767C35.1763 44.3867 34.8793 44.4233 34.6194 44.3867L28.3443 43.0667L25.3738 46H26.4135L28.5671 43.8367L34.508 45.0833C34.9535 45.1567 35.3991 45.12 35.7704 44.9L45.313 39.7667C45.9442 39.4367 46.167 38.7034 45.87 38.1167Z" fill="white"/>
<defs>
<filter id="filter0_d_307_3853" x="0" y="0" width="68" height="68" filterUnits="userSpaceOnUse" color-interpolation-filters="sRGB">
<feFlood flood-opacity="0" result="BackgroundImageFix"/>
<feColorMatrix in="SourceAlpha" type="matrix" values="0 0 0 0 0 0 0 0 0 0 0 0 0 0 0 0 0 0 127 0" result="hardAlpha"/>
<feOffset/>
<feGaussianBlur stdDeviation="5"/>
<feComposite in2="hardAlpha" operator="out"/>
<feColorMatrix type="matrix" values="0 0 0 0 0 0 0 0 0 0 0 0 0 0 0 0 0 0 0.25 0"/>
<feBlend mode="normal" in2="BackgroundImageFix" result="effect1_dropShadow_307_3853"/>
<feBlend mode="normal" in="SourceGraphic" in2="effect1_dropShadow_307_3853" result="shape"/>
</filter>
</defs>
</svg>
