<svg width="120" height="120" viewBox="0 0 120 120" fill="none" xmlns="http://www.w3.org/2000/svg">
<g filter="url(#filter0_d_1_9)">
<path d="M110 60C110 87.6142 87.6142 110 60 110C32.3858 110 10 87.6142 10 60C10 32.3858 32.3858 10 60 10C87.6142 10 110 32.3858 110 60Z" fill="#6494A4"/>
</g>
<path d="M65.8276 52.5712C64.0972 50.7945 61.6821 49.6848 59.0215 49.6848H54.1308V52.5303H59.0215C60.8231 52.5303 62.5179 53.2505 63.7895 54.5559C63.8073 54.5737 63.8251 54.5915 63.8429 54.6093C65.15 55.8826 65.8685 57.5757 65.8685 59.3773V65.8686V68.714V78.0508C65.8685 81.7286 62.8772 84.72 59.1994 84.72C55.5216 84.72 52.5302 81.7286 52.5302 78.0508V68.714C52.5302 67.1419 51.2569 65.8686 49.6847 65.8686H40.348C36.6702 65.8686 33.6788 62.8772 33.6788 59.1994C33.6788 55.5216 36.6702 52.5303 40.348 52.5303H48.0842V49.6848H40.348C35.114 49.6848 30.8333 53.9673 30.8333 59.1994C30.8333 64.4334 35.114 68.714 40.348 68.714H49.6847V78.0508C49.6847 83.2848 53.9654 87.5655 59.1994 87.5655C64.4333 87.5655 68.714 83.2848 68.714 78.0508V68.714V65.8686V59.3773C68.714 56.7149 67.6043 54.3016 65.8276 52.5712Z" fill="white"/>
<path d="M78.0505 49.6848H68.7137V40.348C68.7137 35.114 64.433 30.8333 59.199 30.8333C53.9651 30.8333 49.6844 35.114 49.6844 40.348V49.6848V52.5303V59.0215C49.6844 61.6839 50.7942 64.0972 52.5708 65.8276C54.3012 67.6043 56.7164 68.714 59.3769 68.714H64.2676V65.8685H59.3769C57.5753 65.8685 55.8805 65.1483 54.6089 63.8429C54.5911 63.8251 54.5733 63.8073 54.5556 63.7895C53.2484 62.5162 52.5299 60.8231 52.5299 59.0215V52.5303V49.6848V40.348C52.5299 36.6702 55.5212 33.6788 59.199 33.6788C62.8769 33.6788 65.8682 36.6702 65.8682 40.348V49.6848C65.8682 51.2569 67.1415 52.5303 68.7137 52.5303H78.0505C81.7283 52.5303 84.7196 55.5216 84.7196 59.1994C84.7196 62.8772 81.7283 65.8685 78.0505 65.8685H70.3143V68.714H78.0505C83.2844 68.714 87.5651 64.4333 87.5651 59.1994C87.5651 53.9655 83.2844 49.6848 78.0505 49.6848Z" fill="white"/>
<defs>
<filter id="filter0_d_1_9" x="0" y="0" width="120" height="120" filterUnits="userSpaceOnUse" color-interpolation-filters="sRGB">
<feFlood flood-opacity="0" result="BackgroundImageFix"/>
<feColorMatrix in="SourceAlpha" type="matrix" values="0 0 0 0 0 0 0 0 0 0 0 0 0 0 0 0 0 0 127 0" result="hardAlpha"/>
<feOffset/>
<feGaussianBlur stdDeviation="5"/>
<feComposite in2="hardAlpha" operator="out"/>
<feColorMatrix type="matrix" values="0 0 0 0 0 0 0 0 0 0 0 0 0 0 0 0 0 0 0.25 0"/>
<feBlend mode="normal" in2="BackgroundImageFix" result="effect1_dropShadow_1_9"/>
<feBlend mode="normal" in="SourceGraphic" in2="effect1_dropShadow_1_9" result="shape"/>
</filter>
</defs>
</svg>
