<svg width="68" height="68" viewBox="0 0 68 68" fill="none" xmlns="http://www.w3.org/2000/svg">
<g filter="url(#filter0_d_259_4752)">
<path d="M58 34C58 47.2548 47.2548 58 34 58C20.7452 58 10 47.2548 10 34C10 20.7452 20.7452 10 34 10C47.2548 10 58 20.7452 58 34Z" fill="#3366FF"/>
</g>
<path d="M34 23C27.9345 23 23 27.9345 23 33.9997C23 40.0648 27.9345 45 34 45C40.0655 45 45 40.0652 45 34C45 27.9348 40.0655 23 34 23ZM24.3063 34.6413H26.4871C26.5612 36.1044 26.8873 37.5063 27.4189 38.7809H25.5453C24.8428 37.5439 24.4045 36.1384 24.3063 34.6413ZM34.6413 27.9361V24.7649C36.1667 25.3623 37.481 26.4849 38.4535 27.9361H34.6413ZM39.1805 29.2187C39.775 30.4661 40.1418 31.8754 40.2252 33.3587H34.6413V29.2187H39.1805ZM33.3587 24.7649V27.9361H29.5465C30.519 26.4849 31.8333 25.3623 33.3587 24.7649ZM33.3587 29.2187V33.3587H27.7745C27.8579 31.8757 28.2244 30.4661 28.8192 29.2187H33.3587ZM26.4868 33.3587H24.306C24.4041 31.8612 24.8425 30.4561 25.545 29.2187H27.4186C26.8873 30.4937 26.5612 31.8959 26.4868 33.3587ZM27.7745 34.6413H33.3587V38.7809H28.8189C28.2244 37.5339 27.8579 36.1243 27.7745 34.6413ZM33.3587 40.0635V43.2351C31.833 42.6378 30.519 41.5151 29.5461 40.0635H33.3587ZM34.6413 43.2351V40.0635H38.4539C37.481 41.5151 36.167 42.6378 34.6413 43.2351ZM34.6413 38.7809V34.6413H40.2252C40.1421 36.1243 39.7756 37.5339 39.1808 38.7809H34.6413ZM41.5132 34.6413H43.694C43.5959 36.1384 43.1572 37.5439 42.455 38.7809H40.5814C41.113 37.5063 41.4388 36.1044 41.5132 34.6413ZM41.5132 33.3587C41.4388 31.8956 41.1127 30.4937 40.5811 29.2187H42.455C43.1572 30.4561 43.5962 31.8612 43.694 33.3587H41.5132ZM41.585 27.9361H39.9532C39.2735 26.7401 38.3987 25.7012 37.3771 24.889C39.0432 25.5085 40.4929 26.5727 41.585 27.9361ZM30.6229 24.889C29.6013 25.7012 28.7262 26.7401 28.0468 27.9361H26.415C27.5071 26.5727 28.9571 25.5085 30.6229 24.889ZM26.415 40.0635H28.0464C28.7262 41.2593 29.601 42.2988 30.6226 43.1107C28.9568 42.4912 27.5068 41.427 26.415 40.0635ZM37.3774 43.111C38.399 42.2988 39.2738 41.2596 39.9536 40.0635H41.585C40.4929 41.427 39.0432 42.4912 37.3774 43.111Z" fill="white"/>
<defs>
<filter id="filter0_d_259_4752" x="0" y="0" width="68" height="68" filterUnits="userSpaceOnUse" color-interpolation-filters="sRGB">
<feFlood flood-opacity="0" result="BackgroundImageFix"/>
<feColorMatrix in="SourceAlpha" type="matrix" values="0 0 0 0 0 0 0 0 0 0 0 0 0 0 0 0 0 0 127 0" result="hardAlpha"/>
<feOffset/>
<feGaussianBlur stdDeviation="5"/>
<feComposite in2="hardAlpha" operator="out"/>
<feColorMatrix type="matrix" values="0 0 0 0 0 0 0 0 0 0 0 0 0 0 0 0 0 0 0.25 0"/>
<feBlend mode="normal" in2="BackgroundImageFix" result="effect1_dropShadow_259_4752"/>
<feBlend mode="normal" in="SourceGraphic" in2="effect1_dropShadow_259_4752" result="shape"/>
</filter>
</defs>
</svg>
