<svg width="68" height="68" viewBox="0 0 68 68" fill="none" xmlns="http://www.w3.org/2000/svg">
<g filter="url(#filter0_d_357_3958)">
<path d="M58 34C58 47.2548 47.2548 58 34 58C20.7452 58 10 47.2548 10 34C10 20.7452 20.7452 10 34 10C47.2548 10 58 20.7452 58 34Z" fill="#3366FF"/>
</g>
<path d="M43.7314 38.9782L40.7404 37.6655L35.0111 40.1671C34.6951 40.2909 34.337 40.39 34 40.39C33.6419 40.39 33.3049 40.3157 32.9889 40.1671L27.2596 37.6655L24.2686 38.9782C23.9105 39.1268 23.9105 39.7213 24.2686 39.8946L33.5155 43.907C33.8315 44.0309 34.1685 44.0309 34.4845 43.907L43.7314 39.8946C44.0895 39.7213 44.0895 39.1268 43.7314 38.9782Z" fill="white"/>
<path d="M43.7314 33.5539L40.7404 32.2412L35.0111 34.718C34.6951 34.8666 34.337 34.9409 34 34.9409C33.6419 34.9409 33.3049 34.8666 32.9889 34.718L27.2596 32.2412L24.2686 33.5539C23.9105 33.7025 23.9105 34.2969 24.2686 34.4703L33.5155 38.4579C33.8315 38.6065 34.1685 38.6065 34.4845 38.4579L43.7314 34.4455C44.0895 34.2969 44.0895 33.7025 43.7314 33.5539Z" fill="white"/>
<path d="M24.2686 29.0217L33.5155 33.0341C33.8315 33.1579 34.1685 33.1579 34.4845 33.0341L43.7314 29.0217C44.0895 28.8731 44.0895 28.2539 43.7314 28.1053L34.4845 24.0929C34.1685 23.969 33.8315 23.969 33.5155 24.0929L24.2686 28.1053C23.9105 28.2539 23.9105 28.8731 24.2686 29.0217Z" fill="white"/>
<defs>
<filter id="filter0_d_357_3958" x="0" y="0" width="68" height="68" filterUnits="userSpaceOnUse" color-interpolation-filters="sRGB">
<feFlood flood-opacity="0" result="BackgroundImageFix"/>
<feColorMatrix in="SourceAlpha" type="matrix" values="0 0 0 0 0 0 0 0 0 0 0 0 0 0 0 0 0 0 127 0" result="hardAlpha"/>
<feOffset/>
<feGaussianBlur stdDeviation="5"/>
<feComposite in2="hardAlpha" operator="out"/>
<feColorMatrix type="matrix" values="0 0 0 0 0 0 0 0 0 0 0 0 0 0 0 0 0 0 0.25 0"/>
<feBlend mode="normal" in2="BackgroundImageFix" result="effect1_dropShadow_357_3958"/>
<feBlend mode="normal" in="SourceGraphic" in2="effect1_dropShadow_357_3958" result="shape"/>
</filter>
</defs>
</svg>
