<svg width="109" height="109" viewBox="0 0 109 109" fill="none" xmlns="http://www.w3.org/2000/svg">
<g filter="url(#filter0_d_249_4722)">
<path d="M97.3333 54.6667C97.3333 78.2308 78.2308 97.3333 54.6667 97.3333C31.1025 97.3333 12 78.2308 12 54.6667C12 31.1025 31.1025 12 54.6667 12C78.2308 12 97.3333 31.1025 97.3333 54.6667Z" fill="#2446AB"/>
</g>
<path d="M74.4182 63.5212L68.3474 61.2554L56.7188 65.5733C56.0775 65.7871 55.3507 65.9581 54.6667 65.9581C53.9399 65.9581 53.2559 65.8299 52.6146 65.5733L40.986 61.2554L34.9152 63.5212C34.1884 63.7777 34.1884 64.8038 34.9152 65.1031L53.6834 72.0289C54.3247 72.2427 55.0087 72.2427 55.65 72.0289L74.4182 65.1031C75.145 64.8038 75.145 63.7777 74.4182 63.5212Z" fill="white"/>
<path d="M74.4182 54.1584L68.3474 51.8926L56.7188 56.1678C56.0775 56.4243 55.3507 56.5526 54.6667 56.5526C53.9399 56.5526 53.2559 56.4243 52.6146 56.1678L40.986 51.8926L34.9152 54.1584C34.1884 54.415 34.1884 55.441 34.9152 55.7403L53.6834 62.6234C54.3247 62.8799 55.0087 62.8799 55.65 62.6234L74.4182 55.6975C75.145 55.441 75.145 54.415 74.4182 54.1584Z" fill="white"/>
<path d="M34.9152 46.3348L53.6834 53.2606C54.3247 53.4744 55.0087 53.4744 55.65 53.2606L74.4182 46.3348C75.145 46.0782 75.145 45.0094 74.4182 44.7529L55.65 37.8271C55.0087 37.6133 54.3247 37.6133 53.6834 37.8271L34.9152 44.7529C34.1884 45.0094 34.1884 46.0782 34.9152 46.3348Z" fill="white"/>
<defs>
<filter id="filter0_d_249_4722" x="0.837209" y="0.837209" width="107.659" height="107.659" filterUnits="userSpaceOnUse" color-interpolation-filters="sRGB">
<feFlood flood-opacity="0" result="BackgroundImageFix"/>
<feColorMatrix in="SourceAlpha" type="matrix" values="0 0 0 0 0 0 0 0 0 0 0 0 0 0 0 0 0 0 127 0" result="hardAlpha"/>
<feOffset/>
<feGaussianBlur stdDeviation="5.5814"/>
<feComposite in2="hardAlpha" operator="out"/>
<feColorMatrix type="matrix" values="0 0 0 0 0 0 0 0 0 0 0 0 0 0 0 0 0 0 0.25 0"/>
<feBlend mode="normal" in2="BackgroundImageFix" result="effect1_dropShadow_249_4722"/>
<feBlend mode="normal" in="SourceGraphic" in2="effect1_dropShadow_249_4722" result="shape"/>
</filter>
</defs>
</svg>
