<svg width="68" height="68" viewBox="0 0 68 68" fill="none" xmlns="http://www.w3.org/2000/svg">
<g filter="url(#filter0_d_249_4703)">
<path d="M58 34C58 47.2548 47.2548 58 34 58C20.7452 58 10 47.2548 10 34C10 20.7452 20.7452 10 34 10C47.2548 10 58 20.7452 58 34Z" fill="#3366FF"/>
</g>
<path fill-rule="evenodd" clip-rule="evenodd" d="M33.7193 46.9507C33.8995 47.0157 34.0958 47.0166 34.276 46.9524C40.7151 44.6783 44.9814 38.8395 45 27.0683C45.0008 26.7389 44.8198 26.4382 44.5321 26.2917L34.3784 21.0917C34.1406 20.9694 33.8597 20.9694 33.6219 21.0917L23.4683 26.2917C23.1823 26.4373 23.0012 26.7363 23.0003 27.0631C22.9555 38.8585 27.3241 44.6462 33.7193 46.9507ZM33.7193 42.6173C33.8995 42.6823 34.0958 42.6832 34.276 42.619C38.5169 41.1214 41.3616 37.2959 41.3734 29.5444C41.3743 29.215 41.1932 28.9143 40.9055 28.7678L34.3784 25.425C34.1406 25.3028 33.8597 25.3028 33.6219 25.425L27.094 28.7678C26.8088 28.9134 26.6277 29.2124 26.6269 29.5392C26.5964 37.3072 29.508 41.0998 33.7193 42.6173ZM39.0474 34.8666C38.2715 37.666 36.8136 39.4635 34.8463 40.494V34.8666H39.0474ZM33.154 40.4862C31.1944 39.4505 29.7204 37.6617 28.9411 34.8666H33.154V40.4862ZM33.154 27.6021V33.1333H28.5688C28.4224 32.2059 28.3386 31.1893 28.3217 30.0774C28.3217 30.0774 31.5717 28.4125 33.154 27.6021ZM34.8463 27.6021L39.6752 30.0756C39.6532 31.1867 39.5661 32.2042 39.4189 33.1333H34.8463V27.6021Z" fill="white"/>
<defs>
<filter id="filter0_d_249_4703" x="0" y="0" width="68" height="68" filterUnits="userSpaceOnUse" color-interpolation-filters="sRGB">
<feFlood flood-opacity="0" result="BackgroundImageFix"/>
<feColorMatrix in="SourceAlpha" type="matrix" values="0 0 0 0 0 0 0 0 0 0 0 0 0 0 0 0 0 0 127 0" result="hardAlpha"/>
<feOffset/>
<feGaussianBlur stdDeviation="5"/>
<feComposite in2="hardAlpha" operator="out"/>
<feColorMatrix type="matrix" values="0 0 0 0 0 0 0 0 0 0 0 0 0 0 0 0 0 0 0.25 0"/>
<feBlend mode="normal" in2="BackgroundImageFix" result="effect1_dropShadow_249_4703"/>
<feBlend mode="normal" in="SourceGraphic" in2="effect1_dropShadow_249_4703" result="shape"/>
</filter>
</defs>
</svg>
