<svg width="68" height="68" viewBox="0 0 68 68" fill="none" xmlns="http://www.w3.org/2000/svg">
<g filter="url(#filter0_d_249_4666)">
<path d="M58 34C58 47.2548 47.2548 58 34 58C20.7452 58 10 47.2548 10 34C10 20.7452 20.7452 10 34 10C47.2548 10 58 20.7452 58 34Z" fill="#3366FF"/>
</g>
<path d="M27.6924 26C26.787 26 26.0013 26.6196 25.7812 27.5129L23.7555 35.3961C24.2307 35.1525 24.7657 35.0152 25.3309 35.0152H42.6691C43.2394 35.0152 43.7744 35.1573 44.2546 35.401L42.2837 27.5484C42.0686 26.6347 41.2784 26 40.363 26L27.6924 26ZM25.3309 36.2588C24.0454 36.2588 23 37.3201 23 38.6246V39.6394C23 40.9388 24.0454 42 25.3309 42H42.6737C43.9543 42 45 40.944 45 39.6394V38.6193C45 38.472 44.9849 38.3301 44.9599 38.188L44.8849 37.8886C44.5797 36.9445 43.7041 36.2589 42.6736 36.2589L25.3309 36.2588ZM28.082 38.3353C28.2903 38.3353 28.4901 38.4192 28.6374 38.5686C28.7847 38.718 28.8675 38.9207 28.8676 39.132C28.8676 39.2367 28.8473 39.3404 28.8078 39.4371C28.7684 39.5339 28.7105 39.6218 28.6376 39.6958C28.5646 39.7698 28.478 39.8285 28.3827 39.8686C28.2873 39.9086 28.1852 39.9292 28.082 39.9292C27.8737 39.9291 27.674 39.8451 27.5268 39.6956C27.3795 39.5461 27.2968 39.3434 27.2969 39.132C27.297 38.9208 27.3797 38.7182 27.5269 38.5688C27.6742 38.4194 27.8738 38.3354 28.082 38.3353ZM33.7549 38.5127H40.703C41.0431 38.5127 41.3181 38.7917 41.3181 39.1369C41.3181 39.4821 41.0431 39.7616 40.703 39.7616H33.7549C33.4148 39.7616 33.1394 39.4821 33.1394 39.1369C33.1394 38.7917 33.4148 38.5127 33.7549 38.5127Z" fill="white"/>
<defs>
<filter id="filter0_d_249_4666" x="0" y="0" width="68" height="68" filterUnits="userSpaceOnUse" color-interpolation-filters="sRGB">
<feFlood flood-opacity="0" result="BackgroundImageFix"/>
<feColorMatrix in="SourceAlpha" type="matrix" values="0 0 0 0 0 0 0 0 0 0 0 0 0 0 0 0 0 0 127 0" result="hardAlpha"/>
<feOffset/>
<feGaussianBlur stdDeviation="5"/>
<feComposite in2="hardAlpha" operator="out"/>
<feColorMatrix type="matrix" values="0 0 0 0 0 0 0 0 0 0 0 0 0 0 0 0 0 0 0.25 0"/>
<feBlend mode="normal" in2="BackgroundImageFix" result="effect1_dropShadow_249_4666"/>
<feBlend mode="normal" in="SourceGraphic" in2="effect1_dropShadow_249_4666" result="shape"/>
</filter>
</defs>
</svg>
