<svg width="120" height="120" viewBox="0 0 120 120" fill="none" xmlns="http://www.w3.org/2000/svg">
<g filter="url(#filter0_d_1_36)">
<path d="M110 60C110 87.6142 87.6142 110 60 110C32.3858 110 10 87.6142 10 60C10 32.3858 32.3858 10 60 10C87.6142 10 110 32.3858 110 60Z" fill="#3366FF"/>
</g>
<path d="M46.8591 43.3333C44.9729 43.3333 43.3361 44.6241 42.8775 46.4853L38.6572 62.9086C39.6472 62.401 40.7618 62.115 41.9394 62.115H78.0607C79.2487 62.115 80.3633 62.4111 81.3637 62.9187L77.2578 46.5591C76.8096 44.6556 75.1634 43.3334 73.2562 43.3334L46.8591 43.3333ZM41.9394 64.7058C39.2612 64.7058 37.0833 66.9169 37.0833 69.6345V71.7486C37.0833 74.4559 39.2612 76.6667 41.9394 76.6667H78.0703C80.7382 76.6667 82.9167 74.4667 82.9167 71.7486V69.6234C82.9167 69.3168 82.8852 69.021 82.8331 68.7249L82.6768 68.1012C82.0411 66.1343 80.2169 64.7059 78.0701 64.7059L41.9394 64.7058ZM47.6708 69.032C48.1048 69.0319 48.521 69.2066 48.8279 69.5179C49.1348 69.8292 49.3073 70.2514 49.3075 70.6917C49.3075 70.9099 49.2652 71.1259 49.183 71.3274C49.1008 71.5289 48.9802 71.712 48.8282 71.8662C48.6762 72.0205 48.4958 72.1428 48.2972 72.2262C48.0986 72.3097 47.8858 72.3526 47.6708 72.3525C47.2369 72.3524 46.8208 72.1773 46.5141 71.8659C46.2074 71.5544 46.0351 71.1321 46.0352 70.6917C46.0354 70.2516 46.2077 69.8295 46.5144 69.5183C46.8212 69.207 47.2371 69.0321 47.6708 69.032ZM59.4894 69.4015H73.9645C74.6731 69.4015 75.246 69.9827 75.246 70.7019C75.246 71.421 74.6732 72.0032 73.9645 72.0032H59.4894C58.7808 72.0032 58.207 71.421 58.207 70.7019C58.207 69.9828 58.7808 69.4015 59.4894 69.4015Z" fill="white"/>
<defs>
<filter id="filter0_d_1_36" x="0" y="0" width="120" height="120" filterUnits="userSpaceOnUse" color-interpolation-filters="sRGB">
<feFlood flood-opacity="0" result="BackgroundImageFix"/>
<feColorMatrix in="SourceAlpha" type="matrix" values="0 0 0 0 0 0 0 0 0 0 0 0 0 0 0 0 0 0 127 0" result="hardAlpha"/>
<feOffset/>
<feGaussianBlur stdDeviation="5"/>
<feComposite in2="hardAlpha" operator="out"/>
<feColorMatrix type="matrix" values="0 0 0 0 0 0 0 0 0 0 0 0 0 0 0 0 0 0 0.25 0"/>
<feBlend mode="normal" in2="BackgroundImageFix" result="effect1_dropShadow_1_36"/>
<feBlend mode="normal" in="SourceGraphic" in2="effect1_dropShadow_1_36" result="shape"/>
</filter>
</defs>
</svg>
