<svg width="68" height="68" viewBox="0 0 68 68" fill="none" xmlns="http://www.w3.org/2000/svg">
<g filter="url(#filter0_d_363_3961)">
<path d="M58 34C58 47.2548 47.2548 58 34 58C20.7452 58 10 47.2548 10 34C10 20.7452 20.7452 10 34 10C47.2548 10 58 20.7452 58 34Z" fill="#3366FF"/>
</g>
<path d="M27.6924 26C26.787 26 26.0013 26.6196 25.7812 27.5129L23.7555 35.3961C24.2307 35.1525 24.7657 35.0152 25.3309 35.0152H42.6691C43.2394 35.0152 43.7744 35.1573 44.2546 35.401L42.2837 27.5484C42.0686 26.6347 41.2784 26 40.363 26L27.6924 26ZM25.3309 36.2588C24.0454 36.2588 23 37.3201 23 38.6246V39.6394C23 40.9388 24.0454 42 25.3309 42H42.6737C43.9543 42 45 40.944 45 39.6394V38.6193C45 38.472 44.9849 38.3301 44.9599 38.188L44.8849 37.8886C44.5797 36.9445 43.7041 36.2589 42.6736 36.2589L25.3309 36.2588ZM28.082 38.3353C28.2903 38.3353 28.4901 38.4192 28.6374 38.5686C28.7847 38.718 28.8675 38.9207 28.8676 39.132C28.8676 39.2367 28.8473 39.3404 28.8078 39.4371C28.7684 39.5339 28.7105 39.6218 28.6376 39.6958C28.5646 39.7698 28.478 39.8285 28.3827 39.8686C28.2873 39.9086 28.1852 39.9292 28.082 39.9292C27.8737 39.9291 27.674 39.8451 27.5268 39.6956C27.3795 39.5461 27.2968 39.3434 27.2969 39.132C27.297 38.9208 27.3797 38.7182 27.5269 38.5688C27.6742 38.4194 27.8738 38.3354 28.082 38.3353ZM33.7549 38.5127H40.703C41.0431 38.5127 41.3181 38.7917 41.3181 39.1369C41.3181 39.4821 41.0431 39.7616 40.703 39.7616H33.7549C33.4148 39.7616 33.1394 39.4821 33.1394 39.1369C33.1394 38.7917 33.4148 38.5127 33.7549 38.5127Z" fill="white"/>
<path fill-rule="evenodd" clip-rule="evenodd" d="M43.8724 26.981C43.9543 27.006 44.0435 27.0064 44.1255 26.9817C47.0523 26.107 48.9915 23.8613 49 19.3339C49.0004 19.2073 48.9181 19.0916 48.7873 19.0353L44.172 17.0353C44.0639 16.9882 43.9362 16.9882 43.8282 17.0353L39.2128 19.0353C39.0828 19.0913 39.0005 19.2063 39.0002 19.3319C38.9798 23.8687 40.9655 26.0947 43.8724 26.981ZM43.8724 25.3144C43.9543 25.3394 44.0435 25.3397 44.1255 25.315C46.0531 24.739 47.3462 23.2677 47.3516 20.2863C47.3519 20.1596 47.2696 20.044 47.1389 19.9876L44.172 18.7019C44.0639 18.6549 43.9362 18.6549 43.8282 18.7019L40.8609 19.9876C40.7313 20.0436 40.649 20.1586 40.6486 20.2843C40.6347 23.272 41.9582 24.7307 43.8724 25.3144ZM46.2943 22.3333C45.9416 23.41 45.2789 24.1013 44.3847 24.4977V22.3333H46.2943ZM43.6155 24.4947C42.7247 24.0963 42.0547 23.4083 41.7005 22.3333H43.6155V24.4947ZM43.6155 19.5393V21.6666H41.5313C41.4647 21.31 41.4267 20.919 41.419 20.4913C41.419 20.4913 42.8962 19.851 43.6155 19.5393ZM44.3847 19.5393L46.5797 20.4906C46.5697 20.918 46.53 21.3093 46.4631 21.6666H44.3847V19.5393Z" fill="white"/>
<defs>
<filter id="filter0_d_363_3961" x="0" y="0" width="68" height="68" filterUnits="userSpaceOnUse" color-interpolation-filters="sRGB">
<feFlood flood-opacity="0" result="BackgroundImageFix"/>
<feColorMatrix in="SourceAlpha" type="matrix" values="0 0 0 0 0 0 0 0 0 0 0 0 0 0 0 0 0 0 127 0" result="hardAlpha"/>
<feOffset/>
<feGaussianBlur stdDeviation="5"/>
<feComposite in2="hardAlpha" operator="out"/>
<feColorMatrix type="matrix" values="0 0 0 0 0 0 0 0 0 0 0 0 0 0 0 0 0 0 0.25 0"/>
<feBlend mode="normal" in2="BackgroundImageFix" result="effect1_dropShadow_363_3961"/>
<feBlend mode="normal" in="SourceGraphic" in2="effect1_dropShadow_363_3961" result="shape"/>
</filter>
</defs>
</svg>
