<svg width="530" height="530" viewBox="0 0 530 530" fill="none" xmlns="http://www.w3.org/2000/svg">
<g filter="url(#filter0_d_259_4754)">
<path d="M515 265C515 403.071 403.071 515 265 515C126.929 515 15 403.071 15 265C15 126.929 126.929 15 265 15C403.071 15 515 126.929 515 265Z" fill="#2446AB"/>
</g>
<path d="M265.392 189.345C225.679 189.345 193.817 221.669 193.817 260.92C193.817 300.632 226.141 332.494 265.392 332.494C304.642 332.494 336.966 300.17 336.966 260.92C336.966 221.207 305.104 189.345 265.392 189.345ZM319.419 229.519C312.954 233.675 303.719 236.446 294.483 237.831C292.636 223.054 288.48 209.663 282.939 200.889C298.177 205.507 311.107 215.666 319.419 229.519ZM327.731 260.92C327.731 265.999 327.269 270.617 325.884 275.235C320.804 282.623 307.413 287.241 293.098 289.55C294.483 280.314 295.407 270.617 295.407 260.92C295.407 256.302 295.407 251.684 294.945 247.066C305.566 245.219 315.263 241.987 323.113 237.831C326.346 245.219 327.731 252.608 327.731 260.92ZM265.392 323.259C259.85 323.259 253.386 314.485 249.691 300.17C261.697 301.556 270.009 301.094 281.554 300.17C277.398 314.485 270.933 323.259 265.392 323.259ZM247.382 290.935C245.535 282.161 244.612 272.002 244.612 260.92C244.612 256.764 244.612 252.608 245.074 248.452C258.465 250.299 271.395 250.299 286.171 248.452C286.633 252.608 286.633 256.302 286.633 260.92C286.633 272.002 285.71 282.161 283.862 290.935C270.933 292.32 259.85 292.32 247.382 290.935ZM204.899 275.235C203.976 270.617 203.052 265.999 203.052 260.92C203.052 252.608 204.899 245.219 207.67 237.831C214.597 241.987 224.294 245.219 235.838 247.066C235.376 251.684 235.376 256.302 235.376 260.92C235.376 270.617 236.3 280.314 237.685 289.55C223.37 286.779 209.979 282.161 204.899 275.235ZM265.392 198.58C273.242 198.58 281.554 215.204 284.786 239.678C270.933 241.525 258.465 241.063 245.535 239.678C249.23 215.204 257.541 198.58 265.392 198.58ZM248.306 200.889C242.765 210.125 238.609 223.516 236.762 237.831C226.603 235.984 217.829 232.752 211.826 229.519C219.676 215.666 232.606 205.507 248.306 200.889ZM210.902 290.935C219.676 295.091 230.297 297.4 239.532 298.785C241.841 307.559 244.612 314.947 248.306 320.488C232.144 316.332 218.753 305.25 210.902 290.935ZM282.477 320.95C286.171 314.947 288.942 307.559 291.251 299.247C300.948 297.861 311.569 295.553 319.881 291.397C312.031 305.25 298.639 316.332 282.477 320.95Z" fill="white"/>
<path d="M384.067 231.829C380.373 231.829 377.14 232.752 373.908 233.676L342.969 180.572C349.434 175.031 353.59 167.181 353.59 158.407C353.59 142.245 340.66 129.315 324.498 129.315C310.184 129.315 298.177 139.936 295.869 153.789H234.915C232.606 139.936 220.6 129.315 206.285 129.315C190.123 129.315 177.193 142.245 177.193 158.407C177.193 167.642 181.349 175.492 187.814 181.034L156.875 233.676C153.643 232.29 150.41 231.829 146.716 231.829C130.554 231.829 117.625 244.758 117.625 260.92C117.625 277.082 130.554 290.012 146.716 290.012C150.41 290.012 153.643 289.088 156.875 288.165L187.352 341.269C180.887 346.81 176.731 354.66 176.731 363.895C176.731 380.057 189.661 392.987 205.823 392.987C220.138 392.987 232.144 382.366 234.453 368.513H295.407C297.716 382.366 309.722 392.987 324.037 392.987C340.199 392.987 353.128 380.057 353.128 363.895C353.128 355.122 348.972 346.81 342.508 341.73L373.446 288.627C376.679 290.012 380.373 290.474 383.605 290.474C399.767 290.474 412.697 277.544 412.697 261.382C413.159 244.758 400.229 231.829 384.067 231.829ZM335.119 336.651C331.887 335.266 328.193 334.804 324.498 334.804C310.184 334.804 298.177 345.425 295.869 359.278H234.915C232.606 345.425 220.6 334.804 206.285 334.804C202.591 334.804 199.358 335.727 196.126 336.651L165.649 283.547C172.114 278.006 176.27 270.156 176.27 260.92C176.27 251.685 172.114 243.835 165.649 238.293L196.126 185.19C199.358 186.575 202.591 187.037 206.285 187.037C220.6 187.037 232.606 176.416 234.915 162.563H295.869C298.177 176.416 310.184 187.037 324.498 187.037C328.193 187.037 331.887 186.113 335.119 185.19L366.058 238.293C359.593 243.835 355.437 251.685 355.437 260.92C355.437 270.156 359.593 278.006 366.058 283.547L335.119 336.651Z" fill="white"/>
<defs>
<filter id="filter0_d_259_4754" x="0.11628" y="0.11628" width="529.767" height="529.767" filterUnits="userSpaceOnUse" color-interpolation-filters="sRGB">
<feFlood flood-opacity="0" result="BackgroundImageFix"/>
<feColorMatrix in="SourceAlpha" type="matrix" values="0 0 0 0 0 0 0 0 0 0 0 0 0 0 0 0 0 0 127 0" result="hardAlpha"/>
<feOffset/>
<feGaussianBlur stdDeviation="7.44186"/>
<feComposite in2="hardAlpha" operator="out"/>
<feColorMatrix type="matrix" values="0 0 0 0 0 0 0 0 0 0 0 0 0 0 0 0 0 0 0.25 0"/>
<feBlend mode="normal" in2="BackgroundImageFix" result="effect1_dropShadow_259_4754"/>
<feBlend mode="normal" in="SourceGraphic" in2="effect1_dropShadow_259_4754" result="shape"/>
</filter>
</defs>
</svg>
