<svg width="618" height="618" viewBox="0 0 618 618" fill="none" xmlns="http://www.w3.org/2000/svg">
<g filter="url(#filter0_d_1_130)">
<path d="M609 309C609 474.685 474.685 609 309 609C143.315 609 9 474.685 9 309C9 143.315 143.315 9 309 9C474.685 9 609 143.315 609 309Z" fill="#2446AB"/>
</g>
<path d="M399.264 198.851H219.703C200.277 198.851 184.788 214.34 184.788 233.766V332.21C184.788 351.373 200.277 367.124 219.703 367.124H239.392V409.652C239.392 419.89 251.467 425.14 259.08 418.053L313.159 367.124H399.527C418.69 367.124 434.441 351.636 434.441 332.21V233.766C434.179 214.34 418.69 198.851 399.264 198.851ZM257.243 297.82C248.842 297.82 242.279 290.995 242.279 282.856C242.279 274.718 249.105 267.893 257.243 267.893C265.381 267.893 272.206 274.718 272.206 282.856C272.206 290.995 265.381 297.82 257.243 297.82ZM309.483 297.82C301.083 297.82 294.52 290.995 294.52 282.856C294.52 274.718 301.083 267.893 309.483 267.893C317.884 267.893 324.447 274.718 324.447 282.856C324.447 290.995 317.884 297.82 309.483 297.82ZM361.724 297.82C353.324 297.82 346.761 290.995 346.761 282.856C346.761 274.718 353.586 267.893 361.724 267.893C370.125 267.893 376.688 274.718 376.688 282.856C376.688 290.995 370.125 297.82 361.724 297.82Z" fill="white"/>
<defs>
<filter id="filter0_d_1_130" x="0.976744" y="0.976744" width="616.047" height="616.047" filterUnits="userSpaceOnUse" color-interpolation-filters="sRGB">
<feFlood flood-opacity="0" result="BackgroundImageFix"/>
<feColorMatrix in="SourceAlpha" type="matrix" values="0 0 0 0 0 0 0 0 0 0 0 0 0 0 0 0 0 0 127 0" result="hardAlpha"/>
<feOffset/>
<feGaussianBlur stdDeviation="4.01163"/>
<feComposite in2="hardAlpha" operator="out"/>
<feColorMatrix type="matrix" values="0 0 0 0 0 0 0 0 0 0 0 0 0 0 0 0 0 0 0.25 0"/>
<feBlend mode="normal" in2="BackgroundImageFix" result="effect1_dropShadow_1_130"/>
<feBlend mode="normal" in="SourceGraphic" in2="effect1_dropShadow_1_130" result="shape"/>
</filter>
</defs>
</svg>
