<svg width="68" height="68" viewBox="0 0 68 68" fill="none" xmlns="http://www.w3.org/2000/svg">
<g filter="url(#filter0_d_249_4699)">
<path d="M58 34C58 47.2548 47.2548 58 34 58C20.7452 58 10 47.2548 10 34C10 20.7452 20.7452 10 34 10C47.2548 10 58 20.7452 58 34Z" fill="#3366FF"/>
</g>
<path fill-rule="evenodd" clip-rule="evenodd" d="M25.4546 25H42.5454C43.2123 25 43.7578 25.5458 43.7578 26.2128V39.2421H33.9997H24.2422V26.2128C24.2422 25.5458 24.7877 25 25.4546 25ZM22 40.2527H33.9997H46V40.9791C46 42.0906 45.0906 43 43.9791 43H33.9997H24.0206C22.9094 43 22 42.0906 22 40.9791V40.2527ZM32.9424 27.8579H35.0576V29.0081C35.194 29.054 35.3258 29.1093 35.4532 29.1723L36.2669 28.3586L37.7625 29.8549L36.9491 30.6679C37.0121 30.7952 37.0671 30.9278 37.1133 31.0634H38.2631V33.179H37.1133C37.0671 33.315 37.0121 33.4468 36.9491 33.5745L37.7625 34.3879L36.2665 35.8838L35.4532 35.0705C35.3258 35.1331 35.1936 35.1884 35.0576 35.2347V36.3845H32.9424V35.2347C32.806 35.1884 32.6738 35.1331 32.5468 35.0705L31.7331 35.8835L30.2371 34.3879L31.0509 33.5745C30.9876 33.4468 30.9326 33.315 30.8867 33.179H29.7365V31.0634H30.8867C30.9326 30.9274 30.9879 30.7952 31.0509 30.6679L30.2375 29.8545L31.7335 28.3586L32.5468 29.1723C32.6738 29.109 32.8064 29.054 32.9424 29.0081V27.8579ZM33.9997 30.2254C35.0468 30.2254 35.8957 31.0742 35.8957 32.121C35.8957 33.1682 35.0468 34.0167 33.9997 34.0167C32.9532 34.0167 32.1043 33.1682 32.1043 32.121C32.1043 31.0742 32.9532 30.2254 33.9997 30.2254Z" fill="white"/>
<defs>
<filter id="filter0_d_249_4699" x="0" y="0" width="68" height="68" filterUnits="userSpaceOnUse" color-interpolation-filters="sRGB">
<feFlood flood-opacity="0" result="BackgroundImageFix"/>
<feColorMatrix in="SourceAlpha" type="matrix" values="0 0 0 0 0 0 0 0 0 0 0 0 0 0 0 0 0 0 127 0" result="hardAlpha"/>
<feOffset/>
<feGaussianBlur stdDeviation="5"/>
<feComposite in2="hardAlpha" operator="out"/>
<feColorMatrix type="matrix" values="0 0 0 0 0 0 0 0 0 0 0 0 0 0 0 0 0 0 0.25 0"/>
<feBlend mode="normal" in2="BackgroundImageFix" result="effect1_dropShadow_249_4699"/>
<feBlend mode="normal" in="SourceGraphic" in2="effect1_dropShadow_249_4699" result="shape"/>
</filter>
</defs>
</svg>
