<svg width="339" height="442" viewBox="0 0 339 442" fill="none" xmlns="http://www.w3.org/2000/svg">
<g filter="url(#filter0_d_248_4604)">
<g clip-path="url(#clip0_248_4604)">
<rect x="298.396" y="57.0002" width="203" height="361" rx="4.54" transform="rotate(12.38 298.396 57.0002)" fill="white"/>
<path fill-rule="evenodd" clip-rule="evenodd" d="M406.484 298.508C399.601 329.867 365.734 349.045 330.785 341.373C295.835 333.702 275.766 305.792 282.649 274.432C289.532 243.073 320.747 220.207 355.697 227.878C390.646 235.549 417.63 247.731 406.484 298.508Z" fill="#F8F8FA"/>
<mask id="mask0_248_4604" style="mask-type:alpha" maskUnits="userSpaceOnUse" x="281" y="226" width="129" height="118">
<path fill-rule="evenodd" clip-rule="evenodd" d="M406.485 298.508C399.602 329.867 365.734 349.045 330.785 341.373C295.836 333.702 275.766 305.792 282.649 274.432C289.533 243.073 320.748 220.207 355.697 227.878C390.646 235.549 417.63 247.731 406.485 298.508Z" fill="#F8F8FA"/>
</mask>
<g mask="url(#mask0_248_4604)">
<path d="M311.571 299.545L283.535 333.45L323.981 342.328L337.775 318.2L311.571 299.545Z" fill="#FE9A6C"/>
</g>
<path d="M308.495 277.219C308.495 277.219 296.029 292.371 315.573 311.989C315.573 311.989 335.658 330.414 356.228 311.197L308.495 277.219Z" fill="#FE9A6C"/>
<path d="M328.205 311.831L350.397 311.902L333.317 293.714L328.205 311.831Z" fill="#F95A3C"/>
<path d="M370.583 224.581L333.054 224.456C329.932 224.445 327.507 226.731 327.639 229.56L331.361 309.354C331.493 312.183 334.131 314.486 337.253 314.496L374.782 314.621C377.905 314.632 380.329 312.346 380.197 309.517L376.476 229.723C376.344 226.894 373.705 224.591 370.583 224.581Z" fill="#1C1C1C"/>
<path d="M369.634 226.971L334.234 226.853C331.798 226.845 329.906 228.628 330.009 230.837L333.247 300.276C333.35 302.484 335.409 304.281 337.846 304.289L373.245 304.407C375.682 304.415 377.573 302.632 377.47 300.424L374.232 230.984C374.129 228.776 372.07 226.979 369.634 226.971Z" fill="#F3F6FF"/>
<mask id="mask1_248_4604" style="mask-type:alpha" maskUnits="userSpaceOnUse" x="330" y="226" width="48" height="79">
<path d="M369.634 226.971L334.235 226.853C331.798 226.845 329.906 228.628 330.009 230.837L333.248 300.276C333.351 302.484 335.41 304.281 337.846 304.289L373.246 304.407C375.682 304.415 377.574 302.632 377.471 300.424L374.232 230.984C374.129 228.776 372.071 226.979 369.634 226.971Z" fill="#EAF2FE"/>
</mask>
<g mask="url(#mask1_248_4604)">
<path d="M383.601 241.132L320.009 285.835L322.295 288.442L385.887 243.739L383.601 241.132Z" fill="#D1DBF9"/>
<path d="M372.518 226.673L308.925 271.377L311.211 273.983L374.804 229.28L372.518 226.673Z" fill="#D1DBF9"/>
<path d="M373.164 332.298L351.51 306.156C345.966 300.151 346.404 294.251 352.784 289.097L364.999 279.221C366.067 278.355 366.215 276.87 365.335 275.768L323.385 222.994L326.269 221.176L368.234 273.947C370.205 276.421 369.873 279.753 367.469 281.696L355.254 291.572C350.246 295.619 349.935 299.506 354.259 304.173L354.322 304.245L376.005 330.419L373.166 332.292L373.164 332.298Z" fill="#D1DBF9"/>
</g>
<path d="M337.13 248.719C340.416 251.706 343.694 258.896 330.155 275.131C330.155 275.131 342.66 296.398 327.784 312.346L313.987 283.365L308.502 277.22L334.075 248.778C334.832 247.933 336.249 247.918 337.137 248.72L337.13 248.719Z" fill="#FE9A6C"/>
<path d="M342.992 237.895C342.43 235.927 340.512 235.021 338.854 235.002C338.854 235.002 338.854 235.002 338.85 235.002C337.197 234.982 335.336 235.84 334.915 237.797C334.445 239.982 335.991 241.856 337.371 243.04C337.883 243.479 338.528 243.703 339.164 243.711C339.801 243.718 340.43 243.509 340.907 243.081C342.204 241.929 343.618 240.094 342.992 237.895ZM339.031 239.976C338.217 239.967 337.535 239.36 337.509 238.621C337.483 237.882 338.121 237.29 338.936 237.3C339.751 237.309 340.432 237.916 340.459 238.655C340.485 239.395 339.846 239.986 339.031 239.976Z" fill="#3366FF"/>
<g filter="url(#filter1_d_248_4604)">
<ellipse cx="310.981" cy="206.816" rx="17.4118" ry="15.6338" transform="rotate(12.38 310.981 206.816)" fill="white"/>
</g>
<g clip-path="url(#clip1_248_4604)">
<path d="M305.263 206.041C306.262 206.261 307.004 206.969 307.259 207.812L309.21 207.404C308.772 205.878 307.425 204.593 305.622 204.198C304.958 204.052 304.3 204.044 303.68 204.149L304.162 206.019C304.513 205.959 304.886 205.959 305.263 206.041ZM316.498 208.508C317.248 208.672 317.849 209.113 318.216 209.677L319.961 208.793C319.312 207.764 318.215 206.962 316.858 206.664C315.032 206.263 313.248 206.886 312.217 208.12L313.907 209.319C314.486 208.633 315.479 208.284 316.498 208.508Z" fill="#EA596E"/>
<path d="M305.464 205.124C303.489 204.691 301.573 205.777 301.184 207.549C300.795 209.322 302.08 211.111 304.055 211.544C306.029 211.977 307.945 210.892 308.334 209.119C308.723 207.346 307.439 205.558 305.464 205.124ZM304.256 210.627C302.846 210.317 301.928 209.04 302.206 207.774C302.484 206.507 303.852 205.732 305.262 206.041C306.672 206.351 307.591 207.628 307.313 208.895C307.035 210.161 305.666 210.936 304.256 210.627ZM316.699 207.59C314.726 207.157 312.809 208.243 312.42 210.016C312.031 211.788 313.316 213.577 315.29 214.01C317.265 214.444 319.181 213.358 319.57 211.585C319.959 209.812 318.674 208.024 316.699 207.59ZM315.492 213.093C314.082 212.784 313.163 211.506 313.441 210.24C313.719 208.973 315.088 208.198 316.498 208.507C317.909 208.817 318.826 210.094 318.548 211.361C318.27 212.627 316.902 213.403 315.492 213.093Z" fill="#292F33"/>
<path d="M316.505 210.875C316.509 210.843 316.508 210.812 316.505 210.779C316.501 210.748 316.497 210.717 316.487 210.686C316.483 210.674 316.485 210.661 316.48 210.649L314.012 204.82C313.907 204.573 313.606 204.44 313.338 204.524C313.166 204.578 313.059 204.71 313.026 204.861L308.42 203.85C308.138 203.788 307.864 203.943 307.808 204.196C307.753 204.45 307.937 204.705 308.219 204.767L313.326 205.888C313.34 205.891 313.353 205.887 313.367 205.889L315.165 210.137L310.478 209.109C310.196 209.047 309.922 209.201 309.866 209.455C309.81 209.709 309.994 209.964 310.276 210.026L315.895 211.259C315.954 211.272 316.015 211.272 316.077 211.266C316.095 211.264 316.112 211.261 316.131 211.257C316.148 211.253 316.167 211.253 316.185 211.248C316.202 211.242 316.214 211.23 316.23 211.223C316.263 211.209 316.292 211.194 316.32 211.174C316.345 211.156 316.367 211.137 316.388 211.115C316.409 211.093 316.427 211.071 316.444 211.044C316.461 211.017 316.474 210.988 316.484 210.957C316.49 210.941 316.502 210.929 316.505 210.912C316.508 210.9 316.503 210.887 316.505 210.875Z" fill="#DD2E44"/>
<path d="M313.515 204.007L311.217 207.405L308.871 203.633C308.727 203.402 308.409 203.311 308.16 203.432C307.911 203.552 307.826 203.837 307.97 204.068L310.607 208.307L309.93 209.308C309.783 209.525 309.864 209.818 310.111 209.961C310.164 209.992 310.219 210.013 310.277 210.026C310.487 210.072 310.709 209.998 310.825 209.827L314.599 204.245L313.515 204.007Z" fill="#DD2E44"/>
<path d="M304.659 208.793C304.582 208.776 304.507 208.743 304.441 208.695C304.214 208.526 304.172 208.228 304.348 208.029L306.527 205.572C306.538 205.561 307.743 204.495 308.01 203.28C308.336 201.793 307.246 201.169 307.235 201.162C306.985 201.023 306.897 200.732 307.039 200.512C307.181 200.291 307.498 200.223 307.749 200.364C307.821 200.403 309.501 201.364 309.031 203.504C308.723 204.911 307.486 206.069 307.289 206.244L305.171 208.639C305.047 208.781 304.846 208.834 304.659 208.793Z" fill="#DD2E44"/>
<path d="M310.19 202.154C310.163 202.148 310.135 202.14 310.108 202.129L307.144 200.998C306.875 200.895 306.739 200.618 306.84 200.378C306.941 200.139 307.239 200.027 307.51 200.13L310.474 201.261C310.743 201.364 310.879 201.642 310.778 201.881C310.687 202.096 310.436 202.208 310.19 202.154ZM315.866 205.004C315.851 205.001 315.836 204.997 315.821 204.991L312.996 204.031C312.81 203.968 312.705 203.787 312.754 203.618C312.804 203.449 312.991 203.351 313.182 203.393C313.203 203.397 315.261 203.84 316.372 203.468C316.516 203.42 316.685 203.462 316.79 203.573C316.894 203.684 316.912 203.84 316.834 203.961L316.258 204.857C316.179 204.98 316.02 205.038 315.866 205.004Z" fill="#292F33"/>
<path d="M311.398 209.791C311.287 210.298 310.74 210.608 310.175 210.484C309.612 210.36 309.244 209.849 309.355 209.343C309.466 208.837 310.014 208.526 310.578 208.65C311.142 208.774 311.509 209.285 311.398 209.791Z" fill="#3366FF" fill-opacity="0.4"/>
</g>
<g filter="url(#filter2_d_248_4604)">
<ellipse cx="293.889" cy="324.191" rx="17.8824" ry="16.0563" transform="rotate(12.38 293.889 324.191)" fill="white"/>
</g>
<g clip-path="url(#clip2_248_4604)">
<path d="M300.308 332.016C300.203 332.497 299.682 332.792 299.147 332.675L297.691 332.355C297.156 332.238 296.807 331.752 296.912 331.271L297.677 327.786C297.783 327.305 298.303 327.01 298.839 327.128L300.294 327.447C300.83 327.565 301.179 328.05 301.073 328.531L300.308 332.016ZM288.179 329.354C288.073 329.835 287.553 330.13 287.017 330.012L285.562 329.693C285.026 329.575 284.677 329.09 284.783 328.609L285.548 325.123C285.653 324.643 286.173 324.348 286.709 324.465L288.165 324.785C288.7 324.902 289.049 325.388 288.944 325.869L288.179 329.354Z" fill="#292F33"/>
<path d="M290.856 317.156C292.893 317.147 297.744 318.212 299.59 319.073C301.38 319.909 300.964 324.398 300.964 324.398C300.964 324.398 301.934 324.611 301.552 326.353L300.787 329.838C300.787 329.838 300.439 331.146 298.463 331.155C296.427 331.165 294.971 330.845 292.546 330.313C290.12 329.78 288.664 329.461 286.819 328.599C285.029 327.763 285.261 326.43 285.261 326.43L286.026 322.945C286.026 322.945 286.408 321.203 287.379 321.416C287.379 321.416 288.881 317.166 290.856 317.156Z" fill="#3B88C3"/>
<path d="M294.267 322.471C296.161 322.887 298.431 323.477 300.035 323.993L300.082 321.464C299.883 320.051 296.972 319.412 295.032 318.986C293.091 318.56 290.18 317.921 289.408 319.121L288.391 321.438C290.064 321.64 292.372 322.055 294.267 322.471Z" fill="#BBDDF5"/>
<path d="M287.911 321.304C287.832 321.665 287.442 321.886 287.04 321.798L286.07 321.585C285.668 321.497 285.406 321.133 285.485 320.772C285.565 320.411 285.954 320.19 286.357 320.278L287.327 320.491C287.729 320.579 287.991 320.943 287.911 321.304ZM300.526 324.073C300.447 324.434 300.709 324.798 301.11 324.886L302.081 325.099C302.483 325.188 302.873 324.967 302.952 324.606C303.031 324.245 302.769 323.881 302.368 323.793L301.397 323.58C300.996 323.491 300.605 323.712 300.526 324.073Z" fill="#3B88C3"/>
<path d="M290.105 325.211C289.947 325.932 289.167 326.374 288.363 326.198L287.878 326.092C287.074 325.915 286.551 325.187 286.709 324.465C286.868 323.743 287.648 323.301 288.452 323.478L288.937 323.584C289.741 323.761 290.264 324.489 290.105 325.211ZM300.294 327.447C300.136 328.169 299.355 328.611 298.552 328.434L298.067 328.328C297.263 328.152 296.74 327.423 296.898 326.702C297.056 325.98 297.837 325.538 298.64 325.714L299.126 325.821C299.929 325.997 300.453 326.725 300.294 327.447Z" fill="#FFCC4D"/>
<path d="M290.687 324.882C290.53 324.847 290.391 324.746 290.325 324.599C289.73 323.275 287.6 322.373 287.579 322.364C287.326 322.259 287.207 321.992 287.311 321.768C287.416 321.544 287.703 321.447 287.957 321.552C288.06 321.595 290.485 322.618 291.238 324.293C291.343 324.526 291.223 324.783 290.971 324.868C290.878 324.898 290.779 324.902 290.687 324.882ZM296.508 326.159C296.416 326.139 296.327 326.095 296.255 326.027C296.061 325.844 296.06 325.561 296.253 325.393C297.639 324.188 300.27 324.274 300.381 324.279C300.653 324.29 300.876 324.498 300.877 324.745C300.878 324.993 300.658 325.185 300.385 325.175C300.362 325.174 298.05 325.101 296.955 326.054C296.834 326.16 296.664 326.194 296.508 326.159Z" fill="#226699"/>
<path d="M292.928 328.57C290.181 327.967 286.817 327.126 286.401 326.547C286.249 326.335 286.309 326.06 286.537 325.931C286.736 325.817 286.999 325.856 287.163 326.013C287.266 326.081 288.192 326.617 293.119 327.699C298.046 328.78 299.112 328.681 299.234 328.662C299.449 328.589 299.703 328.664 299.837 328.851C299.99 329.063 299.929 329.338 299.702 329.467C299.082 329.818 295.676 329.173 292.928 328.57Z" fill="#55ACEE"/>
<path d="M296.277 329.533C296.133 330.187 294.517 330.289 292.641 329.877C290.766 329.465 289.341 328.696 289.484 328.042C289.563 327.682 291.053 328.158 292.928 328.57C294.804 328.982 296.356 329.173 296.277 329.533Z" fill="#226699"/>
</g>
<path d="M364.893 160.625L362.01 173.76L360.05 173.33L361.476 166.834L360.445 166.608L359.158 172.474L357.241 172.053L359.941 159.749L361.859 160.169L360.807 164.962L361.837 165.189L362.933 160.195L364.893 160.625ZM351.841 168.229L353.722 159.658L355.783 160.11L354.294 166.892C355.282 167.072 356.383 167.216 357.592 167.241L357.403 169.059C355.606 168.98 354.084 168.736 352.757 168.43L351.841 168.229ZM379.888 171.43L379.527 173.076L374.519 171.977L373.571 176.298L371.525 175.848L372.473 171.528L367.551 170.447L367.912 168.802L379.888 171.43ZM368.952 166.66C371.761 166.947 373.27 166.018 373.757 164.926L370.066 164.115L370.414 162.527L380.258 164.688L379.91 166.276L376.225 165.467C376.189 166.659 377.155 168.131 379.869 169.057L378.756 170.507C376.468 169.69 375.102 168.4 374.594 166.954C373.535 168.056 371.768 168.658 369.356 168.444L368.952 166.66ZM393.262 166.867L391.139 176.54L389.093 176.09L389.772 173L387.568 172.516L387.333 173.589L380.994 172.198L382.486 165.402L384.561 165.857L384.143 167.76L386.375 168.25L386.793 166.347L388.824 166.793L388.545 168.067L390.748 168.55L391.216 166.418L393.262 166.867ZM381.616 177.839L382.539 173.632L384.628 174.091L384.066 176.652L391.062 178.187L390.701 179.833L381.616 177.839ZM383.421 171.051L385.653 171.541L386.033 169.81L383.801 169.32L383.421 171.051ZM387.929 170.871L390.133 171.355L390.387 170.196L388.184 169.712L387.929 170.871ZM306.286 178.69L305.918 180.364L293.914 177.729L294.281 176.055L299.246 177.145L299.802 174.613L296.068 173.793L297.497 167.283L306.983 169.365L305.554 175.875L301.834 175.059L301.278 177.591L306.286 178.69ZM298.451 172.637L303.859 173.824L304.575 170.561L299.167 169.374L298.451 172.637ZM319.724 177.936L319.366 179.567L307.361 176.932L307.719 175.301L319.724 177.936ZM307.716 182.079L308.58 178.144L310.597 178.587L310.095 180.876L317.421 182.484L317.059 184.13L307.716 182.079ZM309.357 174.671L310.463 169.634L319.62 171.644L319.262 173.275L312.165 171.718L311.779 173.477L319.004 175.063L318.643 176.709L309.357 174.671ZM331.944 174.874C331.623 176.333 332.548 178.373 335.677 179.458L334.511 180.942C332.235 180.105 330.852 178.721 330.299 177.175C329.142 178.346 327.313 179.024 324.925 178.837L324.488 177.002C327.755 177.321 329.45 175.849 329.769 174.397L329.901 173.796L332.075 174.273L331.944 174.874ZM323.156 181.089L323.523 179.415L335.499 182.043L335.132 183.717L330.124 182.618L329.156 187.025L327.11 186.576L328.078 182.169L323.156 181.089ZM348.78 177.565L345.89 190.728L343.844 190.279L346.734 177.116L348.78 177.565ZM336.197 185.421L337.403 179.927L341.567 180.841L341.988 178.923L337.824 178.009L338.185 176.364L344.452 177.74L343.315 182.919L339.18 182.011L338.7 184.201C340.65 184.606 342.291 184.854 344.145 184.946L343.952 186.643C341.795 186.567 339.847 186.215 337.399 185.685L336.197 185.421ZM361.514 180.36L359.852 187.929L357.806 187.48L358.453 184.532L356.55 184.114L356.918 182.44L358.821 182.858L359.468 179.911L361.514 180.36ZM348.963 183.904C351.218 183.709 352.427 182.332 352.869 180.832L350.358 180.281L350.719 178.635L357.845 180.199L357.483 181.845L354.987 181.297C354.773 182.712 355.289 184.362 357.151 185.476L355.795 186.873C354.459 186.092 353.691 184.979 353.365 183.73C352.521 184.842 351.294 185.615 349.667 185.753L348.963 183.904ZM349.763 191.398L350.843 186.476L359.742 188.429L358.662 193.351L349.763 191.398ZM352.198 190.208L357.02 191.266L357.384 189.607L352.563 188.548L352.198 190.208ZM369.002 182.183C372.055 182.861 373.642 184.034 373.334 185.474C373.006 186.932 371.075 187.325 368.019 186.662C364.959 185.983 363.363 184.815 363.69 183.357C363.999 181.918 365.938 181.518 369.002 182.183ZM361.564 187.51L361.922 185.878L373.898 188.507L373.54 190.138L361.564 187.51ZM361.551 194.06L362.336 190.483L369.476 192.051L369.598 191.493L362.458 189.925L362.785 188.437L371.971 190.454L371.207 193.93L364.054 192.36L363.922 192.961L371.39 194.6L371.051 196.146L361.551 194.06ZM365.851 183.831C365.721 184.388 366.506 184.74 368.349 185.159C370.219 185.555 371.079 185.564 371.202 185.006C371.309 184.519 370.539 184.096 368.672 183.686C366.826 183.281 365.95 183.343 365.851 183.831ZM389.457 186.493L388.92 188.94L390.622 189.314L390.252 191.002L388.549 190.628L388.025 193.018L385.964 192.565L387.396 186.041L389.457 186.493ZM378.303 187.569C378.675 185.806 380.488 184.922 382.522 185.361C384.545 185.813 385.8 187.37 385.414 189.13C385.035 190.854 383.235 191.779 381.212 191.327C379.179 190.889 377.91 189.29 378.303 187.569ZM378.759 193.143L379.104 191.57L387.918 193.504L387.105 197.21L380.337 195.724L380.189 196.397L387.3 197.958L386.949 199.56L377.806 197.553L378.629 193.805L385.368 195.284L385.512 194.626L378.759 193.143ZM380.306 188.009C380.103 188.864 380.658 189.511 381.567 189.711C382.475 189.91 383.236 189.552 383.425 188.694C383.612 187.842 383.064 187.227 382.157 187.021C381.247 186.828 380.478 187.155 380.306 188.009ZM402.777 189.417L399.888 202.58L397.842 202.131L398.985 196.923L396.896 196.465L397.264 194.791L399.353 195.249L399.767 193.361L397.693 192.905L398.057 191.245L400.131 191.701L400.731 188.968L402.777 189.417ZM391.485 189.758L391.84 188.141L397.777 189.444L396.644 194.61L392.795 193.765L392.28 196.111C393.801 196.423 395.178 196.642 396.77 196.767L396.574 198.479C394.578 198.348 392.905 198.011 390.908 197.58L389.863 197.35L391.097 191.727L394.975 192.579L395.405 190.618L391.485 189.758ZM413.734 198.121L413.376 199.752L404.019 197.698L405.464 191.117L414.735 193.152L414.371 194.811L407.131 193.222L406.409 196.513L413.734 198.121ZM401.776 201.36L402.149 199.657L414.154 202.292L413.78 203.995L401.776 201.36ZM428.102 194.976L425.213 208.139L423.167 207.69L424.31 202.482L422.221 202.023L422.589 200.349L424.677 200.808L425.092 198.919L423.017 198.464L423.382 196.804L425.456 197.26L426.056 194.527L428.102 194.976ZM416.81 195.317L417.164 193.7L423.102 195.003L421.968 200.168L418.12 199.323L417.605 201.67C419.126 201.981 420.502 202.201 422.095 202.326L421.899 204.037C419.903 203.907 418.23 203.569 416.232 203.138L415.188 202.909L416.422 197.286L420.3 198.137L420.73 196.177L416.81 195.317ZM439.463 207.923L439.095 209.597L427.091 206.962L427.458 205.288L430.048 205.856L430.733 202.737C429.882 201.898 429.493 200.838 429.753 199.687C430.215 197.547 432.638 196.586 435.499 197.214C438.354 197.841 440.173 199.733 439.711 201.873C439.456 203.002 438.682 203.792 437.596 204.198L436.902 207.36L439.463 207.923ZM431.799 200.136C431.518 201.38 432.495 202.359 434.284 202.752C436.058 203.141 437.392 202.669 437.665 201.424C437.941 200.165 436.92 199.213 435.144 198.831C433.358 198.431 432.068 198.876 431.799 200.136ZM432.08 206.302L434.813 206.902L435.334 204.527C434.889 204.504 434.415 204.445 433.935 204.34C433.456 204.235 433.015 204.093 432.601 203.927L432.08 206.302ZM441.485 210.391C440.777 210.236 440.311 209.526 440.483 208.806C440.623 208.102 441.342 207.66 442.051 207.816C442.737 207.966 443.22 208.672 443.073 209.375C442.907 210.096 442.172 210.542 441.485 210.391Z" fill="#19191A"/>
<rect x="238.39" y="381.685" width="17" height="4" rx="2" transform="rotate(12.38 238.39 381.685)" fill="#3366FF"/>
<circle cx="260.427" cy="388.57" r="2" transform="rotate(12.38 260.427 388.57)" fill="#C4C5C8"/>
<circle cx="268.241" cy="390.285" r="2" transform="rotate(12.38 268.241 390.285)" fill="#C4C5C8"/>
<path d="M317.107 92.0837C319.732 92.66 321.743 90.9492 322.507 87.4652C323.258 84.0457 322.01 81.807 319.541 81.2653C317.295 80.7722 315.376 81.9331 314.912 84.0435C314.477 86.0251 315.591 87.7843 317.558 88.2161C318.767 88.4815 319.87 88.1386 320.572 87.2653L320.693 87.292C320.139 89.7125 318.969 90.9103 317.46 90.579C316.573 90.3843 315.971 89.7423 315.922 88.9067L314.084 88.5032C314.015 90.2503 315.218 91.6692 317.107 92.0837ZM318.314 86.8898C317.113 86.626 316.468 85.5997 316.735 84.3835C316.991 83.2175 318.06 82.5148 319.226 82.7708C320.392 83.0267 321.065 84.1268 320.805 85.3144C320.547 86.4876 319.509 87.1521 318.314 86.8898ZM325.761 86.7172C326.441 86.8664 327.009 86.4963 327.149 85.8596C327.289 85.2229 326.928 84.6487 326.248 84.4995C325.576 84.3519 325 84.7204 324.86 85.3571C324.72 85.9938 325.089 86.5696 325.761 86.7172ZM324.609 91.9682C325.288 92.1174 325.858 91.7401 325.997 91.1106C326.136 90.4739 325.775 89.8997 325.095 89.7505C324.423 89.6029 323.847 89.9714 323.707 90.6081C323.569 91.2376 323.936 91.8206 324.609 91.9682ZM332.279 95.1515L334.046 95.5393L334.481 93.5577L335.876 93.8639L336.21 92.3401L334.815 92.0339L336.312 85.2162L333.708 84.6447C331.837 86.4687 329.85 88.5219 328.001 90.5533L327.67 92.0628L332.714 93.1698L332.279 95.1515ZM329.728 90.8499C331.122 89.3186 332.736 87.6708 334.149 86.2864L334.25 86.3084L333.067 91.6953L329.705 90.9572L329.728 90.8499ZM339.376 96.7092L341.221 97.1144L343.487 86.7913L341.649 86.3877L338.535 87.6915L338.154 89.4299L341.121 88.1765L341.243 88.2032L339.376 96.7092Z" fill="black"/>
</g>
</g>
<g filter="url(#filter3_d_248_4604)">
<g clip-path="url(#clip3_248_4604)">
<rect x="86.4673" y="9.0166" width="203" height="361" rx="4.54" transform="rotate(12.38 86.4673 9.0166)" fill="#3366FF"/>
<g clip-path="url(#clip4_248_4604)">
<path d="M135.826 102.774L133.482 102.26L132.326 107.525C132.489 107.582 132.682 107.635 132.905 107.684C133.147 107.737 133.431 107.778 133.756 107.807C134.035 107.868 134.308 107.917 134.573 107.954C134.838 107.991 135.088 108.003 135.325 107.992L134.417 112.131C134.157 112.159 133.881 112.172 133.588 112.172C133.319 112.155 133.035 112.114 132.737 112.049C132.393 112.016 132.073 111.967 131.775 111.902C131.496 111.84 131.217 111.779 130.937 111.718L126.778 110.805L129.811 96.9879L136.762 98.5136L135.826 102.774ZM125.969 110.627L119.046 109.108L122.078 95.2906L129.057 96.8224L128.122 101.083L125.61 100.532L124.447 105.827L126.904 106.366L125.969 110.627ZM145.887 104.664L144.731 109.929C144.675 109.916 144.608 109.912 144.529 109.916C144.473 109.904 144.408 109.89 144.334 109.873C144.259 109.857 144.185 109.841 144.11 109.824C144.055 109.812 143.989 109.798 143.915 109.781C143.743 109.765 143.571 109.748 143.399 109.732C143.227 109.715 143.065 109.701 142.911 109.689C142.814 109.688 142.716 109.688 142.619 109.688C142.544 109.672 142.468 109.666 142.389 109.67C142.31 109.674 142.231 109.678 142.152 109.681C142.078 109.665 142.012 109.651 141.957 109.639C141.836 109.655 141.734 109.675 141.651 109.699C141.591 109.707 141.53 109.715 141.47 109.723L140.468 114.288L135.611 113.222L138.797 98.7051L143.654 99.7713L142.579 104.671C142.75 104.602 142.938 104.548 143.141 104.508C143.345 104.467 143.577 104.433 143.837 104.405C144.092 104.397 144.39 104.42 144.729 104.473C145.073 104.506 145.459 104.57 145.887 104.664ZM133.385 123.229L134.287 119.12L119.073 115.781L120.075 111.216L140.174 115.627L138.27 124.301L133.385 123.229Z" fill="white"/>
<path d="M162.919 109.359L160.853 108.906L157.921 122.266C158.084 122.323 158.267 122.374 158.472 122.419C158.695 122.468 158.942 122.501 159.211 122.517C159.435 122.566 159.669 122.607 159.916 122.64C160.162 122.673 160.404 122.684 160.64 122.672L159.632 127.267C159.372 127.295 159.105 127.311 158.831 127.315C158.58 127.302 158.334 127.269 158.092 127.216C157.804 127.196 157.52 127.155 157.241 127.093C156.981 127.036 156.711 126.977 156.432 126.916L152.272 126.003L157.283 103.177L163.954 104.642L162.919 109.359ZM151.463 125.825L144.819 124.367L149.829 101.541L156.529 103.012L155.493 107.729L153.26 107.239L150.321 120.63L152.498 121.108L151.463 125.825ZM172.781 114.682L171.626 119.947C171.514 119.922 171.391 119.906 171.256 119.898C171.126 119.869 170.984 119.849 170.831 119.836C170.682 119.804 170.531 119.781 170.377 119.769C170.224 119.756 170.064 119.732 169.896 119.695C169.567 119.686 169.246 119.68 168.935 119.675C168.642 119.675 168.359 119.677 168.085 119.68L165.754 130.302L160.59 129.168L165.967 104.669L171.132 105.802L169.228 114.476C169.506 114.452 169.791 114.44 170.084 114.441C170.4 114.425 170.731 114.423 171.08 114.436C171.247 114.473 171.408 114.497 171.561 114.51C171.733 114.526 171.884 114.549 172.014 114.577C172.168 114.59 172.3 114.608 172.412 114.633C172.547 114.641 172.67 114.657 172.781 114.682Z" fill="white"/>
<path d="M191.214 122.46C191.363 121.961 191.518 121.432 191.68 120.872C191.842 120.312 192.013 119.711 192.192 119.07C192.345 118.466 192.488 117.902 192.622 117.378C192.761 116.834 192.882 116.329 192.984 115.863L177.463 112.456L178.532 107.586L198.938 112.065C198.862 112.41 198.78 112.743 198.69 113.064C198.623 113.368 198.556 113.672 198.489 113.977C198.427 114.261 198.365 114.545 198.302 114.829C198.24 115.113 198.182 115.377 198.129 115.62C198.048 115.9 197.969 116.17 197.892 116.43C197.835 116.693 197.779 116.947 197.725 117.19C197.672 117.434 197.619 117.677 197.565 117.921C197.516 118.144 197.467 118.367 197.418 118.59C197.346 118.83 197.274 119.069 197.202 119.309C197.153 119.532 197.097 119.743 197.034 119.942C196.985 120.165 196.927 120.386 196.859 120.605C196.814 120.808 196.772 121.001 196.732 121.183C196.601 121.601 196.473 122.009 196.346 122.406C196.243 122.788 196.142 123.159 196.043 123.52L191.214 122.46ZM180.523 133.575L181.919 127.215L173.21 125.303L174.279 120.434L197.364 125.501L196.296 130.37L187.307 128.397L185.911 134.758L180.523 133.575Z" fill="white"/>
<path d="M202.179 122.315L210.023 124.037L210.965 119.746L203.26 118.054L204.296 113.337L216.746 116.07L213.767 129.643L205.923 127.922L204.9 132.578L213.526 134.471L212.491 139.189L199.119 136.254L202.179 122.315ZM214.186 140.932L219.563 116.433L224.727 117.567L219.35 142.066L214.186 140.932Z" fill="white"/>
</g>
<path d="M138.402 256.934C146.532 258.719 153.553 258.202 154.085 255.779C154.616 253.357 148.457 249.947 140.328 248.163C132.198 246.378 125.177 246.895 124.645 249.317C124.114 251.74 130.273 255.15 138.402 256.934Z" fill="#00E3FA"/>
<path d="M160.307 210.653C158.448 211.039 156.484 211.051 154.513 210.618C147.01 208.971 142.26 201.554 143.906 194.055C144.326 192.141 145.123 190.41 146.202 188.916L153.174 199.804L161.472 194.496L154.415 183.477C156.348 183.038 158.407 183.003 160.474 183.457C167.977 185.104 172.727 192.521 171.081 200.02C170.627 202.087 169.734 203.941 168.525 205.511L177.355 219.3C187.078 209.91 189.174 194.673 181.601 182.848C172.966 169.363 155.031 165.426 141.541 174.055C128.051 182.684 124.116 200.609 132.752 214.095C132.772 214.127 132.796 214.159 132.817 214.191L147.199 239.26L169.493 224.999L160.307 210.653Z" fill="white"/>
<rect opacity="0.2" x="53.2944" y="352.587" width="134" height="5" rx="2.5" transform="rotate(12.38 53.2944 352.587)" fill="#EFEDF0"/>
<rect opacity="0.35" x="240.357" y="62.7591" width="21" height="10.3333" rx="2.16667" transform="rotate(12.38 240.357 62.7591)" stroke="white"/>
<path opacity="0.4" d="M261.655 70.676L260.797 74.583C261.656 74.4246 262.336 73.7671 262.523 72.9142C262.71 72.0614 262.368 71.1795 261.655 70.676Z" fill="white"/>
<rect x="241.5" y="64.5459" width="18" height="7.33333" rx="1.33333" transform="rotate(12.38 241.5 64.5459)" fill="white"/>
<path fill-rule="evenodd" clip-rule="evenodd" d="M226.899 62.6561C229.072 63.1332 230.979 64.4262 232.226 66.2678C232.319 66.4094 232.509 66.4495 232.651 66.3578L234.036 65.4636C234.108 65.417 234.159 65.3437 234.177 65.2597C234.195 65.1758 234.178 65.0881 234.131 65.0162C230.867 60.1509 224.345 58.7195 219.343 61.7702C219.27 61.8158 219.219 61.8886 219.2 61.9723C219.181 62.056 219.196 62.1439 219.242 62.2164L220.125 63.6084C220.216 63.7515 220.406 63.7946 220.549 63.7049C222.453 62.5546 224.726 62.1791 226.899 62.6561ZM226.083 66.3752C227.277 66.6372 228.331 67.3333 229.04 68.3282C229.135 68.4682 229.324 68.5071 229.466 68.416L230.85 67.5214C230.922 67.4745 230.973 67.4004 230.991 67.3157C231.009 67.231 230.992 67.1427 230.944 67.0707C228.799 63.9743 224.625 63.0582 221.38 64.9715C221.306 65.0169 221.254 65.0899 221.235 65.1743C221.215 65.2587 221.231 65.3473 221.277 65.4203L222.158 66.8119C222.249 66.9542 222.437 66.9981 222.582 66.9107C223.642 66.3046 224.89 66.1138 226.083 66.3752ZM227.802 69.3753C227.785 69.4605 227.734 69.5349 227.66 69.5809L225.268 71.126C225.198 71.1714 225.112 71.1869 225.031 71.169C224.949 71.1511 224.878 71.1012 224.833 71.0306L223.308 68.6256C223.26 68.5529 223.245 68.4638 223.265 68.3795C223.286 68.2951 223.34 68.2229 223.416 68.1799C224.899 67.3974 226.731 67.7995 227.749 69.1312C227.8 69.2018 227.819 69.2902 227.802 69.3753Z" fill="white"/>
<path fill-rule="evenodd" clip-rule="evenodd" d="M214.04 57.4948L213.063 57.2804C212.524 57.162 211.991 57.5033 211.872 58.0427L210.014 66.5079C209.896 67.0473 210.237 67.5806 210.776 67.699L211.753 67.9134C212.293 68.0318 212.826 67.6905 212.944 67.151L214.802 58.6859C214.921 58.1465 214.579 57.6132 214.04 57.4948ZM208.005 58.5589L208.982 58.7733C209.521 58.8917 209.862 59.425 209.744 59.9645L208.386 66.1505C208.268 66.69 207.734 67.0313 207.195 66.9129L206.218 66.6985C205.679 66.5801 205.338 66.0468 205.456 65.5074L206.814 59.3213C206.932 58.7819 207.465 58.4405 208.005 58.5589ZM203.923 60.0519L202.946 59.8375C202.407 59.7191 201.874 60.0604 201.755 60.5999L200.898 64.5068C200.779 65.0463 201.121 65.5796 201.66 65.698L202.637 65.9124C203.176 66.0308 203.71 65.6895 203.828 65.15L204.686 61.243C204.804 60.7036 204.463 60.1703 203.923 60.0519ZM198.936 61.0049L197.96 60.7905C197.42 60.6721 196.887 61.0134 196.768 61.5528L196.34 63.5063C196.221 64.0458 196.563 64.5791 197.102 64.6975L198.079 64.9119C198.618 65.0303 199.151 64.689 199.27 64.1495L199.699 62.196C199.817 61.6566 199.476 61.1233 198.936 61.0049Z" fill="white"/>
<path d="M105.178 44.1001C107.804 44.6764 109.814 42.9655 110.579 39.4816C111.329 36.062 110.081 33.8234 107.613 33.2816C105.366 32.7886 103.447 33.9495 102.984 36.0599C102.549 38.0415 103.662 39.8006 105.63 40.2325C106.839 40.4978 107.941 40.155 108.643 39.2817L108.764 39.3083C108.211 41.7288 107.04 42.9267 105.531 42.5953C104.644 42.4006 104.042 41.7587 103.993 40.9231L102.155 40.5195C102.086 42.2667 103.29 43.6856 105.178 44.1001ZM106.386 38.9062C105.184 38.6424 104.539 37.6161 104.806 36.3999C105.062 35.2338 106.131 34.5312 107.297 34.7871C108.463 35.0431 109.137 36.1432 108.876 37.3307C108.619 38.504 107.58 39.1684 106.386 38.9062ZM113.832 38.7336C114.512 38.8828 115.081 38.5127 115.221 37.876C115.36 37.2393 114.999 36.6651 114.319 36.5159C113.647 36.3683 113.071 36.7368 112.931 37.3735C112.791 38.0102 113.16 38.586 113.832 38.7336ZM112.68 43.9846C113.36 44.1337 113.93 43.7565 114.068 43.1269C114.208 42.4902 113.846 41.916 113.167 41.7668C112.494 41.6192 111.918 41.9878 111.779 42.6245C111.64 43.254 112.007 43.837 112.68 43.9846ZM120.35 47.1678L122.117 47.5557L122.552 45.574L123.947 45.8803L124.281 44.3565L122.886 44.0503L124.383 37.2326L121.779 36.661C119.909 38.4851 117.921 40.5383 116.073 42.5697L115.741 44.0792L120.785 45.1862L120.35 47.1678ZM117.8 42.8663C119.193 41.335 120.807 39.6871 122.221 38.3027L122.321 38.3247L121.139 43.7116L117.776 42.9736L117.8 42.8663ZM127.447 48.7256L129.293 49.1307L131.558 38.8076L129.72 38.4041L126.607 39.7079L126.225 41.4463L129.192 40.1929L129.314 40.2196L127.447 48.7256Z" fill="white"/>
</g>
</g>
<defs>
<filter id="filter0_d_248_4604" x="212.531" y="48.5312" width="292.614" height="413.066" filterUnits="userSpaceOnUse" color-interpolation-filters="sRGB">
<feFlood flood-opacity="0" result="BackgroundImageFix"/>
<feColorMatrix in="SourceAlpha" type="matrix" values="0 0 0 0 0 0 0 0 0 0 0 0 0 0 0 0 0 0 127 0" result="hardAlpha"/>
<feOffset/>
<feGaussianBlur stdDeviation="4.2345"/>
<feComposite in2="hardAlpha" operator="out"/>
<feColorMatrix type="matrix" values="0 0 0 0 0 0 0 0 0 0 0 0 0 0 0 0 0 0 0.1 0"/>
<feBlend mode="normal" in2="BackgroundImageFix" result="effect1_dropShadow_248_4604"/>
<feBlend mode="normal" in="SourceGraphic" in2="effect1_dropShadow_248_4604" result="shape"/>
</filter>
<filter id="filter1_d_248_4604" x="270.644" y="173.092" width="80.6743" height="77.447" filterUnits="userSpaceOnUse" color-interpolation-filters="sRGB">
<feFlood flood-opacity="0" result="BackgroundImageFix"/>
<feColorMatrix in="SourceAlpha" type="matrix" values="0 0 0 0 0 0 0 0 0 0 0 0 0 0 0 0 0 0 127 0" result="hardAlpha"/>
<feOffset dy="5"/>
<feGaussianBlur stdDeviation="11.5"/>
<feComposite in2="hardAlpha" operator="out"/>
<feColorMatrix type="matrix" values="0 0 0 0 0 0 0 0 0 0 0 0 0 0 0 0 0 0 0.09 0"/>
<feBlend mode="normal" in2="BackgroundImageFix" result="effect1_dropShadow_248_4604"/>
<feBlend mode="normal" in="SourceGraphic" in2="effect1_dropShadow_248_4604" result="shape"/>
</filter>
<filter id="filter2_d_248_4604" x="253.083" y="290.042" width="81.6118" height="78.2971" filterUnits="userSpaceOnUse" color-interpolation-filters="sRGB">
<feFlood flood-opacity="0" result="BackgroundImageFix"/>
<feColorMatrix in="SourceAlpha" type="matrix" values="0 0 0 0 0 0 0 0 0 0 0 0 0 0 0 0 0 0 127 0" result="hardAlpha"/>
<feOffset dy="5"/>
<feGaussianBlur stdDeviation="11.5"/>
<feComposite in2="hardAlpha" operator="out"/>
<feColorMatrix type="matrix" values="0 0 0 0 0 0 0 0 0 0 0 0 0 0 0 0 0 0 0.09 0"/>
<feBlend mode="normal" in2="BackgroundImageFix" result="effect1_dropShadow_248_4604"/>
<feBlend mode="normal" in="SourceGraphic" in2="effect1_dropShadow_248_4604" result="shape"/>
</filter>
<filter id="filter3_d_248_4604" x="0.601793" y="0.547594" width="292.614" height="413.066" filterUnits="userSpaceOnUse" color-interpolation-filters="sRGB">
<feFlood flood-opacity="0" result="BackgroundImageFix"/>
<feColorMatrix in="SourceAlpha" type="matrix" values="0 0 0 0 0 0 0 0 0 0 0 0 0 0 0 0 0 0 127 0" result="hardAlpha"/>
<feOffset/>
<feGaussianBlur stdDeviation="4.2345"/>
<feComposite in2="hardAlpha" operator="out"/>
<feColorMatrix type="matrix" values="0 0 0 0 0 0 0 0 0 0 0 0 0 0 0 0 0 0 0.1 0"/>
<feBlend mode="normal" in2="BackgroundImageFix" result="effect1_dropShadow_248_4604"/>
<feBlend mode="normal" in="SourceGraphic" in2="effect1_dropShadow_248_4604" result="shape"/>
</filter>
<clipPath id="clip0_248_4604">
<rect x="298.396" y="57.0002" width="203" height="361" rx="4.54" transform="rotate(12.38 298.396 57.0002)" fill="white"/>
</clipPath>
<clipPath id="clip1_248_4604">
<rect width="18.8235" height="16.9014" fill="white" transform="translate(303.6 196.544) rotate(12.38)"/>
</clipPath>
<clipPath id="clip2_248_4604">
<rect width="17.8824" height="16.0563" fill="white" transform="translate(286.968 314.02) rotate(12.38)"/>
</clipPath>
<clipPath id="clip3_248_4604">
<rect x="86.4673" y="9.0166" width="203" height="361" rx="4.54" transform="rotate(12.38 86.4673 9.0166)" fill="white"/>
</clipPath>
<clipPath id="clip4_248_4604">
<rect width="149" height="45" fill="white" transform="translate(102.831 80.4778) rotate(12.38)"/>
</clipPath>
</defs>
</svg>
