<svg width="68" height="68" viewBox="0 0 68 68" fill="none" xmlns="http://www.w3.org/2000/svg">
<g filter="url(#filter0_d_249_4707)">
<path d="M58 34C58 47.2548 47.2548 58 34 58C20.7452 58 10 47.2548 10 34C10 20.7452 20.7452 10 34 10C47.2548 10 58 20.7452 58 34Z" fill="#3366FF"/>
</g>
<path fill-rule="evenodd" clip-rule="evenodd" d="M34.3575 22C36.2642 22 37.8239 23.5596 37.8239 25.4662V32.9319C37.8239 34.838 36.2642 36.3978 34.3575 36.3978C32.4514 36.3978 30.8916 34.8378 30.8916 32.9319V25.4662C30.8916 23.5598 32.4514 22 34.3575 22Z" fill="white"/>
<path fill-rule="evenodd" clip-rule="evenodd" d="M41.379 33.1415C41.379 35.0735 40.5893 36.829 39.3173 38.101C38.2837 39.1345 36.9312 39.8496 35.4245 40.0812V41.042H39.0195C39.6086 41.042 40.086 41.5192 40.086 42.1081C40.086 42.697 39.6086 43.1747 39.0195 43.1747H29.696C29.1069 43.1747 28.6295 42.697 28.6295 42.1081C28.6295 41.5192 29.1071 41.042 29.696 41.042H33.2912V40.0812C31.7842 39.8496 30.4317 39.1345 29.3982 38.101C28.1264 36.829 27.3369 35.0735 27.3369 33.1415C27.3369 32.1826 27.3369 31.2239 27.3369 30.2653C27.3369 29.6764 27.8143 29.199 28.4034 29.199C28.9923 29.199 29.47 29.6766 29.47 30.2653C29.47 31.2242 29.47 32.1828 29.47 33.1415C29.47 34.4846 30.0201 35.7067 30.9065 36.5927C31.7929 37.4794 33.0146 38.0295 34.3577 38.0295C35.7009 38.0295 36.9228 37.4791 37.8092 36.5927C38.6961 35.7065 39.2457 34.4846 39.2457 33.1415C39.2457 32.1826 39.2457 31.2239 39.2457 30.2653C39.2457 29.6764 39.7234 29.199 40.3123 29.199C40.9011 29.199 41.379 29.6764 41.379 30.2653C41.379 31.2242 41.379 32.1828 41.379 33.1415Z" fill="white"/>
<defs>
<filter id="filter0_d_249_4707" x="0" y="0" width="68" height="68" filterUnits="userSpaceOnUse" color-interpolation-filters="sRGB">
<feFlood flood-opacity="0" result="BackgroundImageFix"/>
<feColorMatrix in="SourceAlpha" type="matrix" values="0 0 0 0 0 0 0 0 0 0 0 0 0 0 0 0 0 0 127 0" result="hardAlpha"/>
<feOffset/>
<feGaussianBlur stdDeviation="5"/>
<feComposite in2="hardAlpha" operator="out"/>
<feColorMatrix type="matrix" values="0 0 0 0 0 0 0 0 0 0 0 0 0 0 0 0 0 0 0.25 0"/>
<feBlend mode="normal" in2="BackgroundImageFix" result="effect1_dropShadow_249_4707"/>
<feBlend mode="normal" in="SourceGraphic" in2="effect1_dropShadow_249_4707" result="shape"/>
</filter>
</defs>
</svg>
